{"glyphs":{"0":{"ha":894,"x_min":95,"x_max":789,"o":"m 437 -7 q 263 50 341 -7 q 140 204 184 106 q 95 418 95 302 q 144 687 95 580 q 274 844 193 793 q 456 894 356 894 q 639 840 565 894 q 751 685 713 787 q 789 441 789 584 q 743 206 789 308 q 616 48 696 104 q 437 -7 536 -7 m 697 446 q 668 605 697 538 q 587 708 639 673 q 469 744 536 744 q 330 710 394 744 q 228 609 267 677 q 190 443 190 541 q 224 295 190 366 q 314 179 258 223 q 433 135 370 135 q 567 170 507 135 q 662 276 627 205 q 697 446 697 346 z "},"1":{"ha":359,"x_min":58,"x_max":254,"o":"m 58 802 q 83 851 58 821 q 141 906 109 882 q 186 931 173 931 q 212 922 195 931 q 241 895 228 913 q 254 850 254 877 q 241 609 252 766 q 229 367 233 467 q 225 170 224 268 q 233 67 233 119 q 219 17 233 38 q 186 -3 205 -3 q 132 37 146 -3 q 119 155 119 77 q 122 276 119 208 q 134 465 126 345 q 149 760 147 667 q 137 769 146 767 q 110 772 127 772 q 71 780 84 774 q 58 802 58 785 z "},"2":{"ha":718,"x_min":104,"x_max":604,"o":"m 604 78 q 586 28 604 45 q 549 6 568 11 q 523 1 530 1 q 508 2 515 1 q 495 3 500 3 q 461 6 472 6 q 331 -1 419 6 q 201 -7 243 -7 q 179 0 191 -7 q 161 22 168 8 q 153 51 153 35 q 165 116 153 90 q 201 174 177 141 q 236 227 227 205 q 281 323 243 243 q 384 551 346 458 q 422 696 422 644 q 390 758 422 738 q 315 779 359 779 q 254 767 278 779 q 218 740 231 755 q 191 700 205 724 q 170 668 178 677 q 146 659 161 659 q 122 675 131 659 q 109 711 113 691 q 104 742 104 730 q 142 849 106 808 q 228 909 178 891 q 322 928 277 928 q 418 902 371 928 q 494 830 465 877 q 524 724 524 784 q 499 571 524 652 q 440 416 474 489 q 353 238 406 342 q 303 141 320 176 q 332 137 311 137 q 428 148 368 137 q 526 168 489 158 q 537 170 530 168 q 547 175 544 172 q 573 156 559 174 q 595 116 586 138 q 604 78 604 94 m 523 1 z "},"3":{"ha":729,"x_min":71,"x_max":626,"o":"m 243 142 q 506 300 506 142 q 487 347 506 324 q 437 383 468 369 q 374 397 407 397 q 350 393 361 397 q 320 382 339 390 q 293 372 305 376 q 269 368 281 368 q 224 385 239 368 q 209 435 209 402 q 253 516 209 485 q 359 569 297 548 q 467 670 419 613 q 517 780 515 728 l 484 781 l 448 782 q 357 764 408 782 q 275 724 306 747 q 263 717 270 722 q 250 713 256 713 q 228 720 240 713 q 207 741 215 728 q 198 768 198 753 q 248 858 198 822 q 363 910 298 893 q 472 928 429 928 q 588 889 549 928 q 626 770 626 851 q 602 717 626 747 q 527 635 578 687 q 448 552 467 574 q 543 499 507 538 q 595 415 580 461 q 610 325 610 368 q 554 108 610 179 q 397 17 498 37 q 117 -4 296 -4 q 71 64 71 -4 q 75 106 71 82 q 89 148 80 130 q 110 165 98 165 q 138 163 129 165 q 159 156 148 161 q 189 146 172 149 q 243 142 205 142 z "},"4":{"ha":681,"x_min":74,"x_max":560,"o":"m 82 730 q 97 779 84 760 q 135 799 111 799 q 170 766 159 799 q 181 682 181 733 l 175 557 q 199 474 175 502 q 267 439 224 447 q 385 431 311 431 l 443 431 q 452 845 452 590 q 468 906 453 885 q 508 928 484 928 q 532 914 521 928 q 550 881 543 901 q 557 846 557 862 q 555 817 557 846 q 547 401 554 788 q 560 349 560 378 q 543 307 560 334 q 538 241 538 281 q 541 155 538 208 q 544 75 544 104 q 523 3 544 31 q 469 -25 502 -25 q 451 -15 460 -25 q 435 11 441 -5 q 429 44 429 26 l 429 287 l 262 292 q 122 364 171 297 q 74 543 74 431 l 74 553 l 82 730 z "},"5":{"ha":760,"x_min":92,"x_max":675,"o":"m 250 555 q 272 559 260 555 q 302 573 284 564 q 335 587 322 583 q 359 592 347 592 q 553 508 495 592 q 612 284 612 423 q 572 115 612 183 q 463 14 532 47 q 304 -20 393 -20 q 159 6 226 -20 q 92 101 92 33 q 101 139 92 120 q 122 169 109 157 q 149 181 136 181 q 169 177 160 181 q 191 163 178 173 q 230 141 211 149 q 281 134 250 134 q 451 164 389 134 q 512 275 512 195 q 494 332 512 295 q 441 397 477 368 q 355 426 406 426 q 310 419 332 426 q 275 405 288 412 q 230 380 262 399 q 170 393 193 380 q 147 441 147 406 q 149 461 147 454 q 159 617 156 504 q 165 762 161 707 q 181 862 170 817 q 214 917 193 906 q 355 922 261 922 q 487 928 408 922 q 616 933 574 933 q 661 906 647 933 q 675 840 675 878 q 660 785 675 806 q 622 764 644 764 q 583 774 606 764 q 566 781 574 778 q 551 784 558 784 q 456 790 522 788 q 330 793 391 793 l 290 792 q 273 791 283 791 l 250 555 z "},"6":{"ha":804,"x_min":90,"x_max":726,"o":"m 317 929 q 355 908 345 929 q 366 851 366 886 q 344 756 366 808 q 279 624 322 704 q 212 485 235 539 q 189 383 189 430 q 221 224 189 284 q 338 151 254 163 q 334 202 334 165 q 364 354 336 283 q 446 469 393 425 q 572 512 499 512 q 656 491 622 512 q 708 433 691 469 q 726 353 726 397 q 678 174 726 256 q 554 44 631 92 q 394 -3 477 -3 q 218 33 284 -3 q 121 154 152 70 q 90 382 90 238 q 133 584 90 450 q 232 823 177 717 q 317 929 287 929 m 626 332 q 609 359 626 349 q 570 368 591 368 q 484 334 521 368 q 428 250 448 299 q 409 158 409 200 q 519 182 470 158 q 597 247 569 207 q 626 332 626 288 z "},"7":{"ha":629,"x_min":63,"x_max":569,"o":"m 178 779 q 98 796 134 779 q 63 865 63 813 q 76 910 63 890 q 113 931 90 931 q 151 930 136 931 q 365 929 215 929 l 500 929 q 526 937 521 937 q 558 912 547 937 q 569 854 569 887 q 383 326 569 775 q 337 215 361 283 q 307 101 312 148 q 295 44 302 66 q 273 7 288 22 q 231 -7 258 -7 q 196 15 205 -7 q 187 74 187 37 q 191 110 187 86 q 297 408 193 130 q 445 787 401 686 l 178 779 z "},"8":{"ha":659,"x_min":100,"x_max":594,"o":"m 100 161 q 114 284 100 217 q 155 412 127 351 q 224 508 183 473 q 175 602 195 545 q 155 709 155 659 q 249 888 155 840 q 463 937 343 937 q 531 907 501 937 q 578 832 562 877 q 594 742 594 787 q 535 635 594 663 q 500 588 530 629 q 440 506 465 537 q 395 460 416 475 q 462 321 433 391 q 490 203 490 251 q 465 87 490 138 q 393 8 439 37 q 288 -20 347 -20 q 192 -6 233 -20 q 125 48 151 8 q 100 161 100 87 m 333 561 q 377 590 353 561 q 437 679 400 620 q 475 737 460 716 q 502 770 489 758 q 439 787 494 787 q 366 775 407 787 q 294 740 324 763 q 263 684 264 717 q 278 646 263 677 q 310 588 294 615 q 333 561 327 561 m 277 138 q 350 155 318 138 q 382 214 382 172 q 362 310 382 260 q 316 394 342 360 q 274 428 289 428 q 238 384 254 428 q 213 284 222 340 q 203 203 203 228 q 220 151 203 165 q 277 138 237 138 z "},"9":{"ha":752,"x_min":71,"x_max":619,"o":"m 512 452 q 376 417 418 417 q 233 446 303 417 q 117 537 163 475 q 71 696 71 600 q 121 820 71 766 q 240 903 172 873 q 357 932 309 932 q 466 902 417 932 q 544 816 515 873 q 572 682 572 760 q 575 674 572 678 q 584 665 578 671 q 609 633 600 652 q 619 578 619 615 q 613 448 619 519 q 607 317 612 429 q 598 133 603 205 q 580 9 593 60 q 546 -43 568 -43 q 520 -31 538 -43 q 489 3 503 -18 q 475 50 475 24 q 480 129 476 90 q 492 222 485 168 q 507 343 503 294 q 512 452 512 393 m 378 563 q 459 572 417 563 q 502 602 502 581 l 502 607 q 485 697 502 655 q 436 765 469 739 q 357 791 403 791 q 279 778 321 791 q 208 739 237 765 q 178 675 178 712 q 212 617 178 642 q 293 577 245 591 q 378 563 340 563 z "}," ":{"ha":280,"x_min":0,"x_max":0,"o":""},"A":{"ha":806,"x_min":60,"x_max":742,"o":"m 260 275 q 239 271 246 275 q 227 256 233 267 q 211 214 221 244 l 165 83 q 152 28 163 48 q 128 0 141 7 q 108 -8 115 -8 q 72 3 83 -8 q 60 45 60 15 q 83 136 60 95 l 98 181 q 141 304 123 256 q 139 323 139 311 q 147 374 139 355 q 176 407 155 393 l 305 710 q 308 716 307 713 q 312 725 310 720 q 357 805 337 776 q 400 835 378 835 q 493 764 450 835 q 565 596 535 692 q 633 355 595 500 q 675 202 660 252 q 704 136 690 153 q 710 129 707 132 q 716 121 713 125 q 732 100 728 108 q 740 82 737 93 q 742 50 742 71 q 680 -16 742 -16 q 630 34 652 -16 q 595 139 608 83 l 589 158 q 566 235 574 214 q 545 266 557 256 q 509 275 533 275 l 260 275 m 334 410 q 431 408 383 408 q 509 410 481 408 q 448 557 489 471 l 395 674 q 345 576 382 667 q 282 412 307 485 l 334 410 z "},"Á":{"ha":806,"x_min":60,"x_max":742,"o":"m 260 275 q 239 271 246 275 q 227 256 233 267 q 211 214 221 244 l 165 83 q 152 28 163 48 q 128 0 141 7 q 108 -8 115 -8 q 72 3 83 -8 q 60 45 60 15 q 83 136 60 95 l 98 181 q 141 304 123 256 q 139 323 139 311 q 147 374 139 355 q 176 407 155 393 l 305 710 q 308 716 307 713 q 312 725 310 720 q 357 805 337 776 q 400 835 378 835 q 493 764 450 835 q 565 596 535 692 q 633 355 595 500 q 675 202 660 252 q 704 136 690 153 q 710 129 707 132 q 716 121 713 125 q 732 100 728 108 q 740 82 737 93 q 742 50 742 71 q 680 -16 742 -16 q 630 34 652 -16 q 595 139 608 83 l 589 158 q 566 235 574 214 q 545 266 557 256 q 509 275 533 275 l 260 275 m 334 410 q 431 408 383 408 q 509 410 481 408 q 448 557 489 471 l 395 674 q 345 576 382 667 q 282 412 307 485 l 334 410 m 323 984 q 336 1023 323 1006 q 370 1053 349 1039 q 433 1096 401 1073 q 509 1146 481 1129 q 557 1162 538 1162 q 592 1149 579 1162 q 606 1105 606 1135 q 555 1028 606 1066 q 440 965 504 990 q 351 939 376 939 q 343 942 351 938 q 330 955 336 945 q 323 984 323 965 z "},"Ă":{"ha":806,"x_min":60,"x_max":742,"o":"m 260 275 q 239 271 246 275 q 227 256 233 267 q 211 214 221 244 l 165 83 q 152 28 163 48 q 128 0 141 7 q 108 -8 115 -8 q 72 3 83 -8 q 60 45 60 15 q 83 136 60 95 l 98 181 q 141 304 123 256 q 139 323 139 311 q 147 374 139 355 q 176 407 155 393 l 305 710 q 308 716 307 713 q 312 725 310 720 q 357 805 337 776 q 400 835 378 835 q 493 764 450 835 q 565 596 535 692 q 633 355 595 500 q 675 202 660 252 q 704 136 690 153 q 710 129 707 132 q 716 121 713 125 q 732 100 728 108 q 740 82 737 93 q 742 50 742 71 q 680 -16 742 -16 q 630 34 652 -16 q 595 139 608 83 l 589 158 q 566 235 574 214 q 545 266 557 256 q 509 275 533 275 l 260 275 m 334 410 q 431 408 383 408 q 509 410 481 408 q 448 557 489 471 l 395 674 q 345 576 382 667 q 282 412 307 485 l 334 410 m 204 1156 q 220 1214 204 1197 q 254 1232 236 1232 q 284 1219 277 1232 q 296 1179 292 1206 q 307 1135 300 1152 q 338 1105 315 1118 q 407 1093 361 1093 q 487 1111 452 1093 q 522 1172 522 1130 q 538 1219 522 1204 q 572 1233 554 1233 q 603 1215 589 1233 q 616 1164 616 1198 q 591 1068 616 1113 q 518 997 565 1024 q 412 970 471 970 q 263 1013 321 970 q 204 1156 204 1056 z "},"Ắ":{"ha":806,"x_min":60,"x_max":742,"o":"m 260 275 q 239 271 246 275 q 227 256 233 267 q 211 214 221 244 l 165 83 q 152 28 163 48 q 128 0 141 7 q 108 -8 115 -8 q 72 3 83 -8 q 60 45 60 15 q 83 136 60 95 l 98 181 q 141 304 123 256 q 139 323 139 311 q 147 374 139 355 q 176 407 155 393 l 305 710 q 308 716 307 713 q 312 725 310 720 q 357 805 337 776 q 400 835 378 835 q 493 764 450 835 q 565 596 535 692 q 633 355 595 500 q 675 202 660 252 q 704 136 690 153 q 710 129 707 132 q 716 121 713 125 q 732 100 728 108 q 740 82 737 93 q 742 50 742 71 q 680 -16 742 -16 q 630 34 652 -16 q 595 139 608 83 l 589 158 q 566 235 574 214 q 545 266 557 256 q 509 275 533 275 l 260 275 m 334 410 q 431 408 383 408 q 509 410 481 408 q 448 557 489 471 l 395 674 q 345 576 382 667 q 282 412 307 485 l 334 410 m 346 1162 q 359 1201 346 1185 q 393 1231 372 1217 q 432 1258 414 1243 q 454 1275 450 1272 q 493 1304 479 1295 q 524 1313 508 1313 q 560 1299 546 1313 q 574 1256 574 1285 q 535 1197 574 1230 q 446 1140 496 1164 q 374 1116 396 1116 q 366 1119 374 1115 q 352 1133 358 1123 q 346 1162 346 1143 m 200 1017 q 216 1076 200 1059 q 250 1093 232 1093 q 280 1081 273 1093 q 292 1046 288 1069 q 303 1005 296 1021 q 334 978 311 989 q 403 967 357 967 q 486 980 454 967 q 517 1034 517 993 q 534 1081 517 1067 q 568 1095 550 1095 q 598 1077 585 1095 q 612 1027 612 1059 q 587 938 612 976 q 515 880 562 901 q 408 860 469 860 q 260 898 319 860 q 200 1017 200 936 z "},"Ặ":{"ha":806,"x_min":60,"x_max":742,"o":"m 260 275 q 239 271 246 275 q 227 256 233 267 q 211 214 221 244 l 165 83 q 152 28 163 48 q 128 0 141 7 q 108 -8 115 -8 q 72 3 83 -8 q 60 45 60 15 q 83 136 60 95 l 98 181 q 141 304 123 256 q 139 323 139 311 q 147 374 139 355 q 176 407 155 393 l 305 710 q 308 716 307 713 q 312 725 310 720 q 357 805 337 776 q 400 835 378 835 q 493 764 450 835 q 565 596 535 692 q 633 355 595 500 q 675 202 660 252 q 704 136 690 153 q 710 129 707 132 q 716 121 713 125 q 732 100 728 108 q 740 82 737 93 q 742 50 742 71 q 680 -16 742 -16 q 630 34 652 -16 q 595 139 608 83 l 589 158 q 566 235 574 214 q 545 266 557 256 q 509 275 533 275 l 260 275 m 334 410 q 431 408 383 408 q 509 410 481 408 q 448 557 489 471 l 395 674 q 345 576 382 667 q 282 412 307 485 l 334 410 m 204 1156 q 220 1214 204 1197 q 254 1232 236 1232 q 284 1219 277 1232 q 296 1179 292 1206 q 307 1135 300 1152 q 338 1105 315 1118 q 407 1093 361 1093 q 487 1111 452 1093 q 522 1172 522 1130 q 538 1219 522 1204 q 572 1233 554 1233 q 603 1215 589 1233 q 616 1164 616 1198 q 591 1068 616 1113 q 518 997 565 1024 q 412 970 471 970 q 263 1013 321 970 q 204 1156 204 1056 m 469 -230 q 406 -315 469 -315 q 353 -299 377 -315 q 330 -241 330 -283 q 340 -199 330 -220 q 368 -165 351 -178 q 400 -151 385 -151 q 448 -169 428 -151 q 469 -230 469 -187 z "},"Ằ":{"ha":806,"x_min":60,"x_max":742,"o":"m 260 275 q 239 271 246 275 q 227 256 233 267 q 211 214 221 244 l 165 83 q 152 28 163 48 q 128 0 141 7 q 108 -8 115 -8 q 72 3 83 -8 q 60 45 60 15 q 83 136 60 95 l 98 181 q 141 304 123 256 q 139 323 139 311 q 147 374 139 355 q 176 407 155 393 l 305 710 q 308 716 307 713 q 312 725 310 720 q 357 805 337 776 q 400 835 378 835 q 493 764 450 835 q 565 596 535 692 q 633 355 595 500 q 675 202 660 252 q 704 136 690 153 q 710 129 707 132 q 716 121 713 125 q 732 100 728 108 q 740 82 737 93 q 742 50 742 71 q 680 -16 742 -16 q 630 34 652 -16 q 595 139 608 83 l 589 158 q 566 235 574 214 q 545 266 557 256 q 509 275 533 275 l 260 275 m 334 410 q 431 408 383 408 q 509 410 481 408 q 448 557 489 471 l 395 674 q 345 576 382 667 q 282 412 307 485 l 334 410 m 222 1256 q 236 1299 222 1285 q 272 1313 250 1313 q 303 1304 289 1313 q 342 1276 318 1295 q 403 1231 376 1246 q 437 1201 425 1217 q 450 1162 450 1185 q 444 1133 450 1143 q 431 1119 438 1123 q 423 1116 423 1115 q 351 1140 401 1116 q 261 1197 300 1164 q 222 1256 222 1230 m 200 1017 q 216 1076 200 1059 q 250 1093 232 1093 q 280 1081 273 1093 q 292 1046 288 1069 q 303 1005 296 1021 q 334 978 311 989 q 403 967 357 967 q 486 980 454 967 q 517 1034 517 993 q 534 1081 517 1067 q 568 1095 550 1095 q 598 1077 585 1095 q 612 1027 612 1059 q 587 938 612 976 q 515 880 562 901 q 408 860 469 860 q 260 898 319 860 q 200 1017 200 936 z "},"Ẳ":{"ha":806,"x_min":60,"x_max":742,"o":"m 407 1128 q 421 1133 407 1128 q 446 1144 439 1139 q 454 1160 454 1149 q 451 1175 454 1168 q 436 1205 446 1196 q 416 1218 427 1215 q 391 1221 406 1221 q 364 1226 374 1222 q 350 1243 355 1230 q 349 1251 349 1249 q 360 1277 349 1265 q 395 1296 372 1289 q 442 1304 417 1304 q 483 1298 464 1304 q 514 1282 501 1292 q 540 1255 530 1268 q 556 1224 550 1241 q 562 1185 562 1207 q 538 1114 562 1147 q 460 1061 515 1081 q 400 1050 427 1050 q 346 1076 359 1050 q 343 1090 343 1082 q 349 1111 343 1101 q 364 1123 354 1120 q 385 1126 371 1126 q 407 1128 400 1126 m 704 136 q 710 129 707 132 q 716 121 713 125 q 732 100 728 108 q 740 82 737 93 q 742 50 742 71 q 680 -16 742 -16 q 630 34 652 -16 q 595 139 608 83 l 589 158 q 566 235 574 214 q 545 266 557 256 q 509 275 533 275 l 260 275 q 239 271 246 275 q 227 256 233 267 q 211 214 221 244 l 165 83 q 152 28 163 48 q 128 0 141 7 q 108 -8 115 -8 q 72 3 83 -8 q 60 45 60 15 q 83 136 60 95 l 98 181 q 141 304 123 256 q 139 323 139 311 q 147 374 139 355 q 176 407 155 393 l 305 710 q 308 716 307 713 q 312 725 310 720 q 342 783 330 761 q 370 820 355 806 q 248 866 295 828 q 200 976 200 905 q 216 1035 200 1017 q 250 1052 232 1052 q 280 1040 273 1052 q 292 1005 288 1029 q 303 965 296 981 q 334 937 311 949 q 403 926 357 926 q 481 938 452 926 q 517 993 511 951 q 537 1038 522 1023 q 568 1053 552 1053 q 598 1036 585 1053 q 612 985 612 1018 q 567 872 612 916 q 444 820 522 828 q 517 719 483 792 q 577 561 551 646 q 633 353 602 475 q 675 202 660 251 q 704 136 690 153 m 431 408 q 509 410 481 408 q 448 557 489 471 l 395 674 q 345 576 382 667 q 282 412 307 485 l 334 410 q 431 408 383 408 z "},"Ẵ":{"ha":806,"x_min":60,"x_max":742,"o":"m 260 275 q 239 271 246 275 q 227 256 233 267 q 211 214 221 244 l 165 83 q 152 28 163 48 q 128 0 141 7 q 108 -8 115 -8 q 72 3 83 -8 q 60 45 60 15 q 83 136 60 95 l 98 181 q 141 304 123 256 q 139 323 139 311 q 147 374 139 355 q 176 407 155 393 l 305 710 q 308 716 307 713 q 312 725 310 720 q 357 805 337 776 q 400 835 378 835 q 493 764 450 835 q 565 596 535 692 q 633 355 595 500 q 675 202 660 252 q 704 136 690 153 q 710 129 707 132 q 716 121 713 125 q 732 100 728 108 q 740 82 737 93 q 742 50 742 71 q 680 -16 742 -16 q 630 34 652 -16 q 595 139 608 83 l 589 158 q 566 235 574 214 q 545 266 557 256 q 509 275 533 275 l 260 275 m 334 410 q 431 408 383 408 q 509 410 481 408 q 448 557 489 471 l 395 674 q 345 576 382 667 q 282 412 307 485 l 334 410 m 240 1138 q 211 1153 223 1138 q 198 1192 198 1168 q 216 1257 198 1230 q 263 1300 234 1285 q 325 1314 292 1314 q 386 1304 361 1314 q 440 1274 411 1293 q 471 1255 459 1261 q 497 1249 484 1249 q 526 1257 515 1249 q 547 1282 536 1265 q 563 1300 556 1294 q 581 1307 570 1307 q 605 1294 597 1307 q 612 1263 612 1282 q 599 1203 612 1231 q 559 1157 585 1175 q 497 1140 533 1140 q 453 1149 475 1140 q 400 1177 431 1159 q 356 1201 374 1193 q 323 1209 338 1209 q 291 1198 303 1209 q 267 1164 279 1186 q 253 1144 259 1151 q 240 1138 248 1138 m 200 1017 q 216 1076 200 1059 q 250 1093 232 1093 q 280 1081 273 1093 q 292 1046 288 1069 q 303 1005 296 1021 q 334 978 311 989 q 403 967 357 967 q 486 980 454 967 q 517 1034 517 993 q 534 1081 517 1067 q 568 1095 550 1095 q 598 1077 585 1095 q 612 1027 612 1059 q 587 938 612 976 q 515 880 562 901 q 408 860 469 860 q 260 898 319 860 q 200 1017 200 936 z "},"Ǎ":{"ha":806,"x_min":60,"x_max":742,"o":"m 260 275 q 239 271 246 275 q 227 256 233 267 q 211 214 221 244 l 165 83 q 152 28 163 48 q 128 0 141 7 q 108 -8 115 -8 q 72 3 83 -8 q 60 45 60 15 q 83 136 60 95 l 98 181 q 141 304 123 256 q 139 323 139 311 q 147 374 139 355 q 176 407 155 393 l 305 710 q 308 716 307 713 q 312 725 310 720 q 357 805 337 776 q 400 835 378 835 q 493 764 450 835 q 565 596 535 692 q 633 355 595 500 q 675 202 660 252 q 704 136 690 153 q 710 129 707 132 q 716 121 713 125 q 732 100 728 108 q 740 82 737 93 q 742 50 742 71 q 680 -16 742 -16 q 630 34 652 -16 q 595 139 608 83 l 589 158 q 566 235 574 214 q 545 266 557 256 q 509 275 533 275 l 260 275 m 334 410 q 431 408 383 408 q 509 410 481 408 q 448 557 489 471 l 395 674 q 345 576 382 667 q 282 412 307 485 l 334 410 m 406 1090 q 340 1027 378 1055 q 264 982 302 998 q 196 965 226 965 q 166 983 180 965 q 153 1025 153 1001 q 166 1073 153 1052 q 196 1096 180 1094 q 247 1114 220 1099 q 316 1154 275 1128 q 374 1186 353 1176 q 408 1197 395 1197 q 448 1181 431 1196 q 570 1109 499 1130 q 599 1095 589 1101 q 616 1080 609 1090 q 623 1055 623 1070 q 616 1012 623 1031 q 598 982 609 993 q 578 972 588 972 q 494 1009 545 972 q 406 1090 443 1046 z "},"Â":{"ha":806,"x_min":60,"x_max":742,"o":"m 260 275 q 239 271 246 275 q 227 256 233 267 q 211 214 221 244 l 165 83 q 152 28 163 48 q 128 0 141 7 q 108 -8 115 -8 q 72 3 83 -8 q 60 45 60 15 q 83 136 60 95 l 98 181 q 141 304 123 256 q 139 323 139 311 q 147 374 139 355 q 176 407 155 393 l 305 710 q 308 716 307 713 q 312 725 310 720 q 357 805 337 776 q 400 835 378 835 q 493 764 450 835 q 565 596 535 692 q 633 355 595 500 q 675 202 660 252 q 704 136 690 153 q 710 129 707 132 q 716 121 713 125 q 732 100 728 108 q 740 82 737 93 q 742 50 742 71 q 680 -16 742 -16 q 630 34 652 -16 q 595 139 608 83 l 589 158 q 566 235 574 214 q 545 266 557 256 q 509 275 533 275 l 260 275 m 334 410 q 431 408 383 408 q 509 410 481 408 q 448 557 489 471 l 395 674 q 345 576 382 667 q 282 412 307 485 l 334 410 m 406 1090 q 340 1027 378 1055 q 264 982 302 998 q 196 965 226 965 q 166 983 180 965 q 153 1025 153 1001 q 166 1073 153 1052 q 196 1096 180 1094 q 247 1114 220 1099 q 316 1154 275 1128 q 374 1186 353 1176 q 408 1197 395 1197 q 448 1181 431 1196 q 570 1109 499 1130 q 599 1095 589 1101 q 616 1080 609 1090 q 623 1055 623 1070 q 616 1012 623 1031 q 598 982 609 993 q 578 972 588 972 q 494 1009 545 972 q 406 1090 443 1046 z "},"Ấ":{"ha":806,"x_min":60,"x_max":789,"o":"m 260 275 q 239 271 246 275 q 227 256 233 267 q 211 214 221 244 l 165 83 q 152 28 163 48 q 128 0 141 7 q 108 -8 115 -8 q 72 3 83 -8 q 60 45 60 15 q 83 136 60 95 l 98 181 q 141 304 123 256 q 139 323 139 311 q 147 374 139 355 q 176 407 155 393 l 305 710 q 308 716 307 713 q 312 725 310 720 q 357 805 337 776 q 400 835 378 835 q 493 764 450 835 q 565 596 535 692 q 633 355 595 500 q 675 202 660 252 q 704 136 690 153 q 710 129 707 132 q 716 121 713 125 q 732 100 728 108 q 740 82 737 93 q 742 50 742 71 q 680 -16 742 -16 q 630 34 652 -16 q 595 139 608 83 l 589 158 q 566 235 574 214 q 545 266 557 256 q 509 275 533 275 l 260 275 m 334 410 q 431 408 383 408 q 509 410 481 408 q 448 557 489 471 l 395 674 q 345 576 382 667 q 282 412 307 485 l 334 410 m 548 1101 q 555 1143 548 1126 q 581 1170 563 1159 q 616 1196 598 1181 q 656 1235 633 1212 q 706 1279 688 1265 q 739 1293 724 1293 q 775 1279 762 1293 q 789 1236 789 1265 q 750 1159 789 1197 q 662 1095 711 1120 q 589 1069 612 1069 q 585 1069 588 1069 q 578 1068 582 1068 q 548 1101 548 1068 m 233 888 q 200 906 214 888 q 186 958 186 924 q 219 1008 186 989 q 243 1028 235 1022 q 319 1088 292 1068 q 371 1121 346 1109 q 418 1133 395 1133 q 460 1115 439 1133 q 508 1066 481 1097 l 524 1048 q 566 1013 534 1038 q 611 974 596 989 q 627 943 627 958 q 617 909 627 926 q 592 880 608 891 q 557 868 576 868 q 530 882 544 868 q 490 927 515 896 q 446 978 463 959 q 408 1007 428 996 q 376 981 393 997 q 355 962 358 965 q 287 907 315 926 q 233 888 260 888 z "},"Ậ":{"ha":806,"x_min":60,"x_max":742,"o":"m 260 275 q 239 271 246 275 q 227 256 233 267 q 211 214 221 244 l 165 83 q 152 28 163 48 q 128 0 141 7 q 108 -8 115 -8 q 72 3 83 -8 q 60 45 60 15 q 83 136 60 95 l 98 181 q 141 304 123 256 q 139 323 139 311 q 147 374 139 355 q 176 407 155 393 l 305 710 q 308 716 307 713 q 312 725 310 720 q 357 805 337 776 q 400 835 378 835 q 493 764 450 835 q 565 596 535 692 q 633 355 595 500 q 675 202 660 252 q 704 136 690 153 q 710 129 707 132 q 716 121 713 125 q 732 100 728 108 q 740 82 737 93 q 742 50 742 71 q 680 -16 742 -16 q 630 34 652 -16 q 595 139 608 83 l 589 158 q 566 235 574 214 q 545 266 557 256 q 509 275 533 275 l 260 275 m 334 410 q 431 408 383 408 q 509 410 481 408 q 448 557 489 471 l 395 674 q 345 576 382 667 q 282 412 307 485 l 334 410 m 406 1090 q 340 1027 378 1055 q 264 982 302 998 q 196 965 226 965 q 166 983 180 965 q 153 1025 153 1001 q 166 1073 153 1052 q 196 1096 180 1094 q 247 1114 220 1099 q 316 1154 275 1128 q 374 1186 353 1176 q 408 1197 395 1197 q 448 1181 431 1196 q 570 1109 499 1130 q 599 1095 589 1101 q 616 1080 609 1090 q 623 1055 623 1070 q 616 1012 623 1031 q 598 982 609 993 q 578 972 588 972 q 494 1009 545 972 q 406 1090 443 1046 m 469 -230 q 406 -315 469 -315 q 353 -299 377 -315 q 330 -241 330 -283 q 340 -199 330 -220 q 368 -165 351 -178 q 400 -151 385 -151 q 448 -169 428 -151 q 469 -230 469 -187 z "},"Ầ":{"ha":806,"x_min":60,"x_max":762,"o":"m 260 275 q 239 271 246 275 q 227 256 233 267 q 211 214 221 244 l 165 83 q 152 28 163 48 q 128 0 141 7 q 108 -8 115 -8 q 72 3 83 -8 q 60 45 60 15 q 83 136 60 95 l 98 181 q 141 304 123 256 q 139 323 139 311 q 147 374 139 355 q 176 407 155 393 l 305 710 q 308 716 307 713 q 312 725 310 720 q 357 805 337 776 q 400 835 378 835 q 493 764 450 835 q 565 596 535 692 q 633 355 595 500 q 675 202 660 252 q 704 136 690 153 q 710 129 707 132 q 716 121 713 125 q 732 100 728 108 q 740 82 737 93 q 742 50 742 71 q 680 -16 742 -16 q 630 34 652 -16 q 595 139 608 83 l 589 158 q 566 235 574 214 q 545 266 557 256 q 509 275 533 275 l 260 275 m 334 410 q 431 408 383 408 q 509 410 481 408 q 448 557 489 471 l 395 674 q 345 576 382 667 q 282 412 307 485 l 334 410 m 530 1253 q 538 1285 530 1272 q 557 1305 546 1299 q 579 1311 569 1311 q 627 1286 603 1311 q 688 1208 650 1261 q 739 1141 724 1158 q 762 1084 762 1113 q 754 1049 762 1061 q 735 1032 745 1036 q 720 1027 726 1027 l 716 1027 q 649 1075 695 1035 q 566 1165 602 1116 q 530 1253 530 1214 m 233 916 q 200 933 214 916 q 186 985 186 951 q 196 1015 186 1002 q 219 1036 206 1028 q 279 1078 242 1052 q 361 1131 332 1115 q 418 1147 391 1147 q 458 1131 438 1147 q 507 1082 477 1114 l 524 1063 q 572 1027 537 1048 q 613 997 600 1009 q 627 970 627 985 q 617 937 627 954 q 592 907 608 919 q 557 895 576 895 q 529 908 544 895 q 487 950 514 921 q 445 994 462 977 q 408 1021 427 1010 q 366 988 393 1011 q 292 934 321 953 q 233 916 262 916 z "},"Ẩ":{"ha":806,"x_min":60,"x_max":860,"o":"m 260 275 q 239 271 246 275 q 227 256 233 267 q 211 214 221 244 l 165 83 q 152 28 163 48 q 128 0 141 7 q 108 -8 115 -8 q 72 3 83 -8 q 60 45 60 15 q 83 136 60 95 l 98 181 q 141 304 123 256 q 139 323 139 311 q 147 374 139 355 q 176 407 155 393 l 305 710 q 308 716 307 713 q 312 725 310 720 q 357 805 337 776 q 400 835 378 835 q 493 764 450 835 q 565 596 535 692 q 633 355 595 500 q 675 202 660 252 q 704 136 690 153 q 710 129 707 132 q 716 121 713 125 q 732 100 728 108 q 740 82 737 93 q 742 50 742 71 q 680 -16 742 -16 q 630 34 652 -16 q 595 139 608 83 l 589 158 q 566 235 574 214 q 545 266 557 256 q 509 275 533 275 l 260 275 m 334 410 q 431 408 383 408 q 509 410 481 408 q 448 557 489 471 l 395 674 q 345 576 382 667 q 282 412 307 485 l 334 410 m 750 1211 q 753 1197 753 1201 q 734 1161 753 1177 q 692 1136 715 1145 q 670 1133 685 1133 q 649 1131 656 1133 q 634 1118 639 1127 q 629 1098 629 1109 q 631 1084 629 1092 q 676 1052 642 1052 q 745 1068 698 1052 q 811 1110 786 1083 q 848 1167 837 1137 q 860 1227 860 1198 q 855 1259 860 1244 q 807 1321 844 1291 q 709 1363 754 1363 q 680 1358 693 1363 q 646 1334 659 1350 q 634 1301 634 1318 q 635 1292 634 1295 q 652 1272 640 1278 q 684 1260 663 1265 q 726 1244 711 1253 q 750 1211 741 1234 m 233 916 q 200 933 214 916 q 186 985 186 951 q 196 1015 186 1002 q 219 1036 206 1028 q 279 1078 242 1052 q 361 1131 332 1115 q 418 1147 391 1147 q 458 1131 438 1147 q 507 1082 477 1114 l 524 1063 q 572 1027 537 1048 q 613 997 600 1009 q 627 970 627 985 q 617 937 627 954 q 592 907 608 919 q 557 895 576 895 q 529 908 544 895 q 487 950 514 921 q 445 994 462 977 q 408 1021 427 1010 q 366 988 393 1011 q 292 934 321 953 q 233 916 262 916 z "},"Ẫ":{"ha":806,"x_min":60,"x_max":742,"o":"m 260 275 q 239 271 246 275 q 227 256 233 267 q 211 214 221 244 l 165 83 q 152 28 163 48 q 128 0 141 7 q 108 -8 115 -8 q 72 3 83 -8 q 60 45 60 15 q 83 136 60 95 l 98 181 q 141 304 123 256 q 139 323 139 311 q 147 374 139 355 q 176 407 155 393 l 305 710 q 308 716 307 713 q 312 725 310 720 q 357 805 337 776 q 400 835 378 835 q 493 764 450 835 q 565 596 535 692 q 633 355 595 500 q 675 202 660 252 q 704 136 690 153 q 710 129 707 132 q 716 121 713 125 q 732 100 728 108 q 740 82 737 93 q 742 50 742 71 q 680 -16 742 -16 q 630 34 652 -16 q 595 139 608 83 l 589 158 q 566 235 574 214 q 545 266 557 256 q 509 275 533 275 l 260 275 m 334 410 q 431 408 383 408 q 509 410 481 408 q 448 557 489 471 l 395 674 q 345 576 382 667 q 282 412 307 485 l 334 410 m 260 1138 q 231 1153 243 1138 q 219 1192 219 1168 q 237 1257 219 1230 q 284 1299 255 1284 q 345 1314 313 1314 q 407 1304 382 1314 q 460 1274 431 1293 q 492 1255 479 1261 q 517 1249 504 1249 q 546 1257 536 1249 q 568 1282 557 1265 q 584 1301 577 1295 q 602 1307 591 1307 q 625 1295 617 1307 q 633 1263 633 1282 q 620 1203 633 1231 q 580 1157 606 1175 q 517 1140 554 1140 q 473 1149 495 1140 q 421 1177 452 1159 q 376 1201 393 1194 q 344 1209 359 1209 q 313 1198 324 1209 q 288 1165 301 1187 q 274 1144 279 1151 q 260 1138 268 1138 m 225 901 q 192 919 206 901 q 178 972 178 937 q 188 1002 178 989 q 211 1023 198 1015 l 269 1063 q 354 1117 325 1101 q 410 1133 382 1133 q 452 1115 431 1133 q 500 1066 473 1097 l 516 1048 q 564 1013 530 1034 q 605 983 591 996 q 618 956 618 971 q 609 922 618 940 q 584 893 600 905 q 549 882 568 882 q 520 895 536 882 q 479 936 504 909 q 437 980 454 963 q 400 1007 419 996 q 355 972 385 996 q 281 918 310 936 q 225 901 253 901 z "},"Ä":{"ha":806,"x_min":60,"x_max":742,"o":"m 260 275 q 239 271 246 275 q 227 256 233 267 q 211 214 221 244 l 165 83 q 152 28 163 48 q 128 0 141 7 q 108 -8 115 -8 q 72 3 83 -8 q 60 45 60 15 q 83 136 60 95 l 98 181 q 141 304 123 256 q 139 323 139 311 q 147 374 139 355 q 176 407 155 393 l 305 710 q 308 716 307 713 q 312 725 310 720 q 357 805 337 776 q 400 835 378 835 q 493 764 450 835 q 565 596 535 692 q 633 355 595 500 q 675 202 660 252 q 704 136 690 153 q 710 129 707 132 q 716 121 713 125 q 732 100 728 108 q 740 82 737 93 q 742 50 742 71 q 680 -16 742 -16 q 630 34 652 -16 q 595 139 608 83 l 589 158 q 566 235 574 214 q 545 266 557 256 q 509 275 533 275 l 260 275 m 334 410 q 431 408 383 408 q 509 410 481 408 q 448 557 489 471 l 395 674 q 345 576 382 667 q 282 412 307 485 l 334 410 m 308 1135 q 339 1112 326 1135 q 352 1048 352 1090 q 342 987 352 1013 q 319 950 333 962 q 294 938 305 938 q 244 963 260 938 q 229 1038 229 989 q 242 1084 229 1062 q 275 1121 256 1107 q 308 1135 294 1135 m 596 1031 q 586 989 596 1010 q 561 952 576 967 q 532 938 545 938 q 487 962 505 938 q 470 1025 470 987 q 479 1076 470 1050 q 506 1117 489 1101 q 542 1133 522 1133 q 583 1101 570 1133 q 596 1031 596 1068 z "},"Ạ":{"ha":806,"x_min":60,"x_max":742,"o":"m 260 275 q 239 271 246 275 q 227 256 233 267 q 211 214 221 244 l 165 83 q 152 28 163 48 q 128 0 141 7 q 108 -8 115 -8 q 72 3 83 -8 q 60 45 60 15 q 83 136 60 95 l 98 181 q 141 304 123 256 q 139 323 139 311 q 147 374 139 355 q 176 407 155 393 l 305 710 q 308 716 307 713 q 312 725 310 720 q 357 805 337 776 q 400 835 378 835 q 493 764 450 835 q 565 596 535 692 q 633 355 595 500 q 675 202 660 252 q 704 136 690 153 q 710 129 707 132 q 716 121 713 125 q 732 100 728 108 q 740 82 737 93 q 742 50 742 71 q 680 -16 742 -16 q 630 34 652 -16 q 595 139 608 83 l 589 158 q 566 235 574 214 q 545 266 557 256 q 509 275 533 275 l 260 275 m 334 410 q 431 408 383 408 q 509 410 481 408 q 448 557 489 471 l 395 674 q 345 576 382 667 q 282 412 307 485 l 334 410 m 469 -230 q 406 -315 469 -315 q 353 -299 377 -315 q 330 -241 330 -283 q 340 -199 330 -220 q 368 -165 351 -178 q 400 -151 385 -151 q 448 -169 428 -151 q 469 -230 469 -187 z "},"À":{"ha":806,"x_min":60,"x_max":742,"o":"m 260 275 q 239 271 246 275 q 227 256 233 267 q 211 214 221 244 l 165 83 q 152 28 163 48 q 128 0 141 7 q 108 -8 115 -8 q 72 3 83 -8 q 60 45 60 15 q 83 136 60 95 l 98 181 q 141 304 123 256 q 139 323 139 311 q 147 374 139 355 q 176 407 155 393 l 305 710 q 308 716 307 713 q 312 725 310 720 q 357 805 337 776 q 400 835 378 835 q 493 764 450 835 q 565 596 535 692 q 633 355 595 500 q 675 202 660 252 q 704 136 690 153 q 710 129 707 132 q 716 121 713 125 q 732 100 728 108 q 740 82 737 93 q 742 50 742 71 q 680 -16 742 -16 q 630 34 652 -16 q 595 139 608 83 l 589 158 q 566 235 574 214 q 545 266 557 256 q 509 275 533 275 l 260 275 m 334 410 q 431 408 383 408 q 509 410 481 408 q 448 557 489 471 l 395 674 q 345 576 382 667 q 282 412 307 485 l 334 410 m 272 1105 q 286 1149 272 1135 q 323 1162 300 1162 q 371 1145 342 1162 q 444 1097 400 1128 q 509 1053 489 1065 q 544 1023 531 1039 q 557 984 557 1006 q 550 955 557 965 q 536 942 544 945 q 528 939 528 938 q 438 965 503 939 q 323 1028 374 990 q 272 1105 272 1066 z "},"Ả":{"ha":806,"x_min":60,"x_max":742,"o":"m 260 275 q 239 271 246 275 q 227 256 233 267 q 211 214 221 244 l 165 83 q 152 28 163 48 q 128 0 141 7 q 108 -8 115 -8 q 72 3 83 -8 q 60 45 60 15 q 83 136 60 95 l 98 181 q 141 304 123 256 q 139 323 139 311 q 147 374 139 355 q 176 407 155 393 l 305 710 q 308 716 307 713 q 312 725 310 720 q 357 805 337 776 q 400 835 378 835 q 493 764 450 835 q 565 596 535 692 q 633 355 595 500 q 675 202 660 252 q 704 136 690 153 q 710 129 707 132 q 716 121 713 125 q 732 100 728 108 q 740 82 737 93 q 742 50 742 71 q 680 -16 742 -16 q 630 34 652 -16 q 595 139 608 83 l 589 158 q 566 235 574 214 q 545 266 557 256 q 509 275 533 275 l 260 275 m 334 410 q 431 408 383 408 q 509 410 481 408 q 448 557 489 471 l 395 674 q 345 576 382 667 q 282 412 307 485 l 334 410 m 447 1118 q 436 1089 447 1103 q 407 1066 425 1075 q 371 1057 389 1057 q 341 1049 351 1057 q 330 1021 330 1040 q 343 989 330 1001 q 376 977 355 977 q 463 1003 416 977 q 541 1071 509 1029 q 573 1158 573 1113 q 558 1209 573 1183 q 518 1254 543 1235 q 473 1277 503 1266 q 410 1287 442 1287 q 358 1269 380 1287 q 336 1226 336 1251 q 344 1197 336 1208 q 364 1179 352 1185 q 395 1166 376 1173 q 434 1147 422 1156 q 447 1118 447 1138 z "},"Ā":{"ha":806,"x_min":60,"x_max":742,"o":"m 260 275 q 239 271 246 275 q 227 256 233 267 q 211 214 221 244 l 165 83 q 152 28 163 48 q 128 0 141 7 q 108 -8 115 -8 q 72 3 83 -8 q 60 45 60 15 q 83 136 60 95 l 98 181 q 141 304 123 256 q 139 323 139 311 q 147 374 139 355 q 176 407 155 393 l 305 710 q 308 716 307 713 q 312 725 310 720 q 357 805 337 776 q 400 835 378 835 q 493 764 450 835 q 565 596 535 692 q 633 355 595 500 q 675 202 660 252 q 704 136 690 153 q 710 129 707 132 q 716 121 713 125 q 732 100 728 108 q 740 82 737 93 q 742 50 742 71 q 680 -16 742 -16 q 630 34 652 -16 q 595 139 608 83 l 589 158 q 566 235 574 214 q 545 266 557 256 q 509 275 533 275 l 260 275 m 334 410 q 431 408 383 408 q 509 410 481 408 q 448 557 489 471 l 395 674 q 345 576 382 667 q 282 412 307 485 l 334 410 m 580 1099 q 604 1095 595 1099 q 617 1079 612 1091 q 621 1041 621 1066 q 615 992 621 1008 q 599 974 608 977 q 573 970 589 970 l 239 970 q 203 993 216 970 q 191 1042 191 1016 q 204 1086 191 1066 q 233 1105 217 1105 l 580 1099 z "},"Ą":{"ha":806,"x_min":60,"x_max":772,"o":"m 745 -156 q 765 -172 758 -156 q 772 -210 772 -188 q 738 -295 772 -273 q 650 -316 703 -316 q 571 -297 607 -316 q 515 -245 536 -279 q 494 -168 494 -211 q 514 -71 494 -110 q 559 -11 534 -32 q 628 39 584 9 q 595 139 608 81 l 589 158 q 566 235 574 214 q 545 266 557 256 q 509 275 533 275 l 260 275 q 239 271 246 275 q 227 256 233 267 q 211 214 221 244 l 165 83 q 152 28 163 48 q 128 0 141 7 q 108 -8 115 -8 q 72 3 83 -8 q 60 45 60 15 q 83 136 60 95 l 98 181 q 141 304 123 256 q 139 323 139 311 q 147 374 139 355 q 176 407 155 393 l 305 710 q 308 716 307 713 q 312 725 310 720 q 357 805 337 776 q 400 835 378 835 q 493 764 450 835 q 565 596 535 692 q 633 355 595 500 q 675 202 660 252 q 704 136 690 153 q 717 121 711 126 q 733 100 728 108 q 740 81 738 92 q 747 50 747 66 q 739 23 747 35 q 715 -8 732 0 q 682 -16 699 -16 q 635 -44 654 -31 q 604 -82 616 -58 q 591 -141 591 -106 q 619 -183 600 -167 q 658 -199 639 -199 q 682 -193 672 -199 q 703 -177 692 -188 q 724 -161 715 -166 q 745 -156 732 -156 m 431 408 q 509 410 481 408 q 448 557 489 471 l 395 674 q 345 576 382 667 q 282 412 307 485 l 334 410 q 431 408 383 408 z "},"Å":{"ha":806,"x_min":60,"x_max":742,"o":"m 260 275 q 239 271 246 275 q 227 256 233 267 q 211 214 221 244 l 165 83 q 152 28 163 48 q 128 0 141 7 q 108 -8 115 -8 q 72 3 83 -8 q 60 45 60 15 q 83 136 60 95 l 98 181 q 141 304 123 256 q 139 323 139 311 q 147 374 139 355 q 176 407 155 393 l 305 710 q 308 716 307 713 q 312 725 310 720 q 357 805 337 776 q 400 835 378 835 q 493 764 450 835 q 565 596 535 692 q 633 355 595 500 q 675 202 660 252 q 704 136 690 153 q 710 129 707 132 q 716 121 713 125 q 732 100 728 108 q 740 82 737 93 q 742 50 742 71 q 680 -16 742 -16 q 630 34 652 -16 q 595 139 608 83 l 589 158 q 566 235 574 214 q 545 266 557 256 q 509 275 533 275 l 260 275 m 334 410 q 431 408 383 408 q 509 410 481 408 q 448 557 489 471 l 395 674 q 345 576 382 667 q 282 412 307 485 l 334 410 m 558 1059 q 534 976 558 1019 q 474 904 510 932 q 403 875 437 875 q 329 898 364 875 q 272 958 294 920 q 251 1038 251 996 q 277 1114 251 1064 q 340 1203 303 1164 q 410 1241 377 1241 q 432 1238 425 1241 q 445 1224 440 1235 q 454 1191 450 1214 q 465 1184 458 1187 q 474 1181 472 1182 q 514 1163 495 1178 q 546 1121 534 1147 q 558 1059 558 1095 m 433 983 q 456 994 443 983 q 479 1021 469 1004 q 488 1055 488 1038 q 462 1086 488 1069 q 402 1116 435 1103 q 359 1129 370 1129 q 345 1114 352 1129 q 331 1081 337 1099 q 326 1053 326 1062 q 344 1024 326 1041 q 388 995 362 1008 q 433 983 413 983 z "},"Ã":{"ha":806,"x_min":60,"x_max":742,"o":"m 260 275 q 239 271 246 275 q 227 256 233 267 q 211 214 221 244 l 165 83 q 152 28 163 48 q 128 0 141 7 q 108 -8 115 -8 q 72 3 83 -8 q 60 45 60 15 q 83 136 60 95 l 98 181 q 141 304 123 256 q 139 323 139 311 q 147 374 139 355 q 176 407 155 393 l 305 710 q 308 716 307 713 q 312 725 310 720 q 357 805 337 776 q 400 835 378 835 q 493 764 450 835 q 565 596 535 692 q 633 355 595 500 q 675 202 660 252 q 704 136 690 153 q 710 129 707 132 q 716 121 713 125 q 732 100 728 108 q 740 82 737 93 q 742 50 742 71 q 680 -16 742 -16 q 630 34 652 -16 q 595 139 608 83 l 589 158 q 566 235 574 214 q 545 266 557 256 q 509 275 533 275 l 260 275 m 334 410 q 431 408 383 408 q 509 410 481 408 q 448 557 489 471 l 395 674 q 345 576 382 667 q 282 412 307 485 l 334 410 m 233 951 q 204 967 216 951 q 192 1008 192 983 q 210 1076 192 1045 q 257 1124 229 1107 q 317 1142 286 1142 q 379 1127 354 1142 q 433 1085 405 1112 q 465 1059 452 1067 q 490 1051 477 1051 q 518 1060 508 1051 q 541 1084 529 1068 q 557 1104 550 1098 q 574 1110 564 1110 q 598 1097 590 1110 q 606 1065 606 1084 q 592 1001 606 1033 q 552 948 578 969 q 490 928 526 928 q 446 941 468 928 q 394 980 424 955 q 349 1014 366 1003 q 316 1025 332 1025 q 284 1013 296 1025 q 260 979 273 1001 q 245 958 251 965 q 233 951 240 951 z "},"Æ":{"ha":1127,"x_min":18,"x_max":1056,"o":"m 610 677 q 609 671 610 675 q 608 665 608 667 q 608 634 608 659 l 608 561 q 610 492 610 517 l 610 443 q 768 442 665 442 q 815 446 785 442 q 856 452 846 450 q 879 439 869 452 q 896 410 890 427 q 902 380 902 393 q 890 330 902 351 q 865 308 879 308 q 840 307 859 307 q 769 309 826 307 q 631 311 649 311 l 611 311 l 611 136 l 674 136 q 810 138 714 136 q 945 141 907 141 q 1006 117 991 141 q 1020 57 1020 94 q 1003 2 1020 19 q 964 -16 985 -16 q 932 -13 946 -16 q 899 -6 919 -11 q 858 3 876 0 q 817 5 841 5 q 720 1 783 5 q 569 -5 620 -5 q 528 19 544 -5 q 513 81 513 43 l 517 311 q 390 312 470 311 l 284 313 q 165 85 222 182 l 134 26 q 105 -11 120 3 q 70 -24 91 -24 q 49 -15 62 -24 q 27 11 37 -5 q 18 45 18 27 q 24 84 18 68 q 145 277 101 193 q 244 480 190 361 q 301 603 279 556 q 354 707 323 650 q 308 710 315 710 q 286 715 299 710 q 262 734 273 721 q 252 768 252 747 q 271 806 252 796 q 316 817 290 817 q 528 810 363 817 q 562 835 538 835 q 591 824 572 835 q 619 812 607 816 q 646 808 631 808 q 660 808 656 808 l 961 814 q 1020 811 1002 814 q 1047 792 1038 807 q 1056 745 1056 778 q 1042 697 1056 720 q 1011 674 1029 674 l 610 677 m 519 443 l 520 467 l 520 486 q 519 520 520 505 q 518 547 519 536 q 515 624 515 595 q 519 670 515 656 l 519 707 q 494 699 511 699 l 477 699 q 419 595 449 654 q 346 444 389 535 l 519 443 z "},"Ǽ":{"ha":1127,"x_min":18,"x_max":1056,"o":"m 610 677 q 609 671 610 675 q 608 665 608 667 q 608 634 608 659 l 608 561 q 610 492 610 517 l 610 443 q 768 442 665 442 q 815 446 785 442 q 856 452 846 450 q 879 439 869 452 q 896 410 890 427 q 902 380 902 393 q 890 330 902 351 q 865 308 879 308 q 840 307 859 307 q 769 309 826 307 q 631 311 649 311 l 611 311 l 611 136 l 674 136 q 810 138 714 136 q 945 141 907 141 q 1006 117 991 141 q 1020 57 1020 94 q 1003 2 1020 19 q 964 -16 985 -16 q 932 -13 946 -16 q 899 -6 919 -11 q 858 3 876 0 q 817 5 841 5 q 720 1 783 5 q 569 -5 620 -5 q 528 19 544 -5 q 513 81 513 43 l 517 311 q 390 312 470 311 l 284 313 q 165 85 222 182 l 134 26 q 105 -11 120 3 q 70 -24 91 -24 q 49 -15 62 -24 q 27 11 37 -5 q 18 45 18 27 q 24 84 18 68 q 145 277 101 193 q 244 480 190 361 q 301 603 279 556 q 354 707 323 650 q 308 710 315 710 q 286 715 299 710 q 262 734 273 721 q 252 768 252 747 q 271 806 252 796 q 316 817 290 817 q 528 810 363 817 q 562 835 538 835 q 591 824 572 835 q 619 812 607 816 q 646 808 631 808 q 660 808 656 808 l 961 814 q 1020 811 1002 814 q 1047 792 1038 807 q 1056 745 1056 778 q 1042 697 1056 720 q 1011 674 1029 674 l 610 677 m 519 443 l 520 467 l 520 486 q 519 520 520 505 q 518 547 519 536 q 515 624 515 595 q 519 670 515 656 l 519 707 q 494 699 511 699 l 477 699 q 419 595 449 654 q 346 444 389 535 l 519 443 m 659 972 q 672 1010 659 994 q 705 1041 684 1027 q 769 1084 737 1061 q 845 1134 817 1117 q 892 1150 873 1150 q 928 1137 915 1150 q 941 1093 941 1123 q 890 1016 941 1054 q 775 952 840 978 q 686 927 711 927 q 679 929 686 926 q 665 943 671 933 q 659 972 659 953 z "},"B":{"ha":699,"x_min":98,"x_max":635,"o":"m 218 0 q 199 -6 212 0 q 188 -11 194 -9 q 175 -14 181 -14 q 142 -5 161 -14 q 111 19 124 3 q 98 58 98 35 q 100 121 98 63 q 106 544 102 179 q 120 709 106 634 q 165 796 133 785 q 270 820 214 812 q 373 828 326 828 q 435 812 402 828 q 490 767 467 796 q 512 699 512 737 q 469 562 512 625 q 590 472 546 532 q 635 323 635 412 q 581 141 635 214 q 439 32 528 68 q 243 -3 350 -3 q 232 -2 240 -3 q 218 0 224 0 m 435 677 q 405 694 435 688 q 334 701 376 701 q 280 697 313 701 q 219 684 246 693 q 192 661 193 675 l 188 555 q 232 562 203 555 q 351 597 260 568 q 435 677 435 649 m 186 376 l 185 342 l 185 311 q 192 132 185 199 l 236 136 q 397 156 332 142 q 510 211 462 170 q 559 333 559 252 q 527 400 559 372 q 449 445 496 429 q 356 460 401 460 q 328 455 342 460 q 289 439 313 450 q 237 419 260 427 q 188 408 214 412 l 186 376 z "},"Ḃ":{"ha":699,"x_min":98,"x_max":635,"o":"m 218 0 q 199 -6 212 0 q 188 -11 194 -9 q 175 -14 181 -14 q 142 -5 161 -14 q 111 19 124 3 q 98 58 98 35 q 100 121 98 63 q 106 544 102 179 q 120 709 106 634 q 165 796 133 785 q 270 820 214 812 q 373 828 326 828 q 435 812 402 828 q 490 767 467 796 q 512 699 512 737 q 469 562 512 625 q 590 472 546 532 q 635 323 635 412 q 581 141 635 214 q 439 32 528 68 q 243 -3 350 -3 q 232 -2 240 -3 q 218 0 224 0 m 435 677 q 405 694 435 688 q 334 701 376 701 q 280 697 313 701 q 219 684 246 693 q 192 661 193 675 l 188 555 q 232 562 203 555 q 351 597 260 568 q 435 677 435 649 m 186 376 l 185 342 l 185 311 q 192 132 185 199 l 236 136 q 397 156 332 142 q 510 211 462 170 q 559 333 559 252 q 527 400 559 372 q 449 445 496 429 q 356 460 401 460 q 328 455 342 460 q 289 439 313 450 q 237 419 260 427 q 188 408 214 412 l 186 376 m 324 1105 q 373 1088 352 1105 q 394 1028 394 1071 q 378 964 394 986 q 330 943 361 943 q 280 960 303 943 q 256 1020 256 977 q 267 1060 256 1040 q 293 1093 277 1080 q 324 1105 309 1105 z "},"C":{"ha":730,"x_min":71,"x_max":687,"o":"m 128 581 q 190 694 148 635 q 288 792 232 752 q 404 831 345 831 q 513 805 461 831 q 598 725 566 778 q 631 600 631 673 q 624 558 631 581 q 604 518 618 535 q 572 502 591 502 q 549 511 556 502 q 539 533 541 519 q 534 571 536 547 q 524 638 532 612 q 488 685 516 665 q 404 704 460 704 q 273 633 328 704 q 191 468 218 562 q 163 313 163 374 q 195 209 163 253 q 277 142 227 165 q 382 119 328 119 q 490 126 431 119 q 585 151 549 134 q 622 183 610 174 q 639 192 633 192 q 674 173 661 192 q 687 124 687 153 q 640 46 687 77 q 525 3 593 16 q 393 -9 458 -9 q 163 61 255 -9 q 71 311 71 132 q 86 438 71 374 q 128 581 101 502 z "},"Ć":{"ha":730,"x_min":71,"x_max":687,"o":"m 128 581 q 190 694 148 635 q 288 792 232 752 q 404 831 345 831 q 513 805 461 831 q 598 725 566 778 q 631 600 631 673 q 624 558 631 581 q 604 518 618 535 q 572 502 591 502 q 549 511 556 502 q 539 533 541 519 q 534 571 536 547 q 524 638 532 612 q 488 685 516 665 q 404 704 460 704 q 273 633 328 704 q 191 468 218 562 q 163 313 163 374 q 195 209 163 253 q 277 142 227 165 q 382 119 328 119 q 490 126 431 119 q 585 151 549 134 q 622 183 610 174 q 639 192 633 192 q 674 173 661 192 q 687 124 687 153 q 640 46 687 77 q 525 3 593 16 q 393 -9 458 -9 q 163 61 255 -9 q 71 311 71 132 q 86 438 71 374 q 128 581 101 502 m 325 972 q 337 1010 325 994 q 371 1041 350 1027 q 435 1084 403 1061 q 511 1134 482 1117 q 558 1150 539 1150 q 594 1137 581 1150 q 607 1093 607 1123 q 556 1016 607 1054 q 441 952 505 978 q 352 927 377 927 q 345 929 352 926 q 331 943 337 933 q 325 972 325 953 z "},"Č":{"ha":730,"x_min":71,"x_max":687,"o":"m 128 581 q 190 694 148 635 q 288 792 232 752 q 404 831 345 831 q 513 805 461 831 q 598 725 566 778 q 631 600 631 673 q 624 558 631 581 q 604 518 618 535 q 572 502 591 502 q 549 511 556 502 q 539 533 541 519 q 534 571 536 547 q 524 638 532 612 q 488 685 516 665 q 404 704 460 704 q 273 633 328 704 q 191 468 218 562 q 163 313 163 374 q 195 209 163 253 q 277 142 227 165 q 382 119 328 119 q 490 126 431 119 q 585 151 549 134 q 622 183 610 174 q 639 192 633 192 q 674 173 661 192 q 687 124 687 153 q 640 46 687 77 q 525 3 593 16 q 393 -9 458 -9 q 163 61 255 -9 q 71 311 71 132 q 86 438 71 374 q 128 581 101 502 m 401 1044 q 468 1108 430 1079 q 544 1153 506 1137 q 612 1169 583 1169 q 642 1151 628 1169 q 656 1110 656 1133 q 642 1062 656 1084 q 612 1039 629 1040 q 561 1021 589 1036 q 492 981 532 1006 q 433 948 453 958 q 400 938 414 938 q 379 942 389 939 q 360 953 370 945 q 240 1025 310 1003 q 210 1039 220 1033 q 192 1055 199 1044 q 185 1080 185 1065 q 192 1123 185 1104 q 210 1152 199 1141 q 230 1162 220 1162 q 314 1125 263 1162 q 401 1044 365 1088 z "},"Ç":{"ha":730,"x_min":71,"x_max":687,"o":"m 687 124 q 616 33 687 64 q 447 -7 545 1 l 443 -30 q 453 -57 445 -44 q 475 -90 460 -70 q 511 -146 498 -121 q 523 -203 523 -171 q 489 -317 523 -286 q 394 -348 456 -348 q 339 -338 372 -348 q 281 -304 307 -328 q 255 -244 255 -281 q 260 -211 255 -226 q 274 -189 266 -197 q 289 -180 281 -180 q 304 -188 296 -183 q 317 -196 313 -193 q 359 -218 340 -211 q 401 -226 377 -226 q 428 -222 419 -226 q 437 -208 437 -219 q 431 -196 437 -204 q 423 -184 425 -187 q 382 -117 398 -149 q 367 -40 367 -84 q 369 -9 367 -27 q 155 68 239 -3 q 71 311 71 140 q 86 438 71 374 q 128 581 101 502 q 190 694 148 635 q 288 792 232 752 q 404 831 345 831 q 513 805 461 831 q 598 725 566 778 q 631 600 631 673 q 624 558 631 581 q 604 518 618 535 q 572 502 591 502 q 549 511 556 502 q 539 533 541 519 q 534 571 536 547 q 524 638 532 612 q 488 685 516 665 q 404 704 460 704 q 273 633 328 704 q 191 468 218 562 q 163 313 163 374 q 195 209 163 253 q 277 142 227 165 q 382 119 328 119 q 490 126 431 119 q 585 151 549 134 q 622 183 610 174 q 639 192 633 192 q 674 173 661 192 q 687 124 687 153 z "},"Ĉ":{"ha":730,"x_min":71,"x_max":687,"o":"m 128 581 q 190 694 148 635 q 288 792 232 752 q 404 831 345 831 q 513 805 461 831 q 598 725 566 778 q 631 600 631 673 q 624 558 631 581 q 604 518 618 535 q 572 502 591 502 q 549 511 556 502 q 539 533 541 519 q 534 571 536 547 q 524 638 532 612 q 488 685 516 665 q 404 704 460 704 q 273 633 328 704 q 191 468 218 562 q 163 313 163 374 q 195 209 163 253 q 277 142 227 165 q 382 119 328 119 q 490 126 431 119 q 585 151 549 134 q 622 183 610 174 q 639 192 633 192 q 674 173 661 192 q 687 124 687 153 q 640 46 687 77 q 525 3 593 16 q 393 -9 458 -9 q 163 61 255 -9 q 71 311 71 132 q 86 438 71 374 q 128 581 101 502 m 408 1078 q 341 1015 379 1043 q 266 969 304 986 q 197 953 227 953 q 168 971 182 953 q 154 1013 154 989 q 168 1061 154 1040 q 197 1084 181 1082 q 249 1101 221 1087 q 317 1141 276 1116 q 375 1174 355 1164 q 410 1185 396 1185 q 450 1169 432 1183 q 572 1097 500 1118 q 601 1083 591 1088 q 617 1068 610 1078 q 625 1043 625 1058 q 617 1000 625 1019 q 600 970 610 981 q 579 960 589 960 q 495 997 546 960 q 408 1078 444 1034 z "},"Ċ":{"ha":730,"x_min":71,"x_max":687,"o":"m 128 581 q 190 694 148 635 q 288 792 232 752 q 404 831 345 831 q 513 805 461 831 q 598 725 566 778 q 631 600 631 673 q 624 558 631 581 q 604 518 618 535 q 572 502 591 502 q 549 511 556 502 q 539 533 541 519 q 534 571 536 547 q 524 638 532 612 q 488 685 516 665 q 404 704 460 704 q 273 633 328 704 q 191 468 218 562 q 163 313 163 374 q 195 209 163 253 q 277 142 227 165 q 382 119 328 119 q 490 126 431 119 q 585 151 549 134 q 622 183 610 174 q 639 192 633 192 q 674 173 661 192 q 687 124 687 153 q 640 46 687 77 q 525 3 593 16 q 393 -9 458 -9 q 163 61 255 -9 q 71 311 71 132 q 86 438 71 374 q 128 581 101 502 m 407 1152 q 456 1134 435 1152 q 477 1074 477 1117 q 460 1010 477 1032 q 413 989 444 989 q 362 1006 386 989 q 339 1066 339 1023 q 350 1106 339 1086 q 376 1139 360 1126 q 407 1152 392 1152 z "},"D":{"ha":762,"x_min":95,"x_max":722,"o":"m 106 712 q 136 802 107 778 q 205 827 165 827 l 304 827 q 490 770 391 827 q 655 613 588 714 q 722 385 722 511 q 654 172 722 260 q 490 40 587 84 q 304 -3 392 -3 q 193 3 225 -3 q 171 -6 185 0 q 155 -12 157 -12 q 119 15 132 -12 q 100 80 105 41 q 96 153 95 118 l 106 712 m 328 128 q 465 154 394 128 q 585 233 536 179 q 633 366 633 286 q 586 534 633 456 q 464 658 538 612 q 317 704 390 704 q 255 702 293 704 q 199 699 218 701 q 188 565 188 637 l 188 448 q 203 132 188 220 q 216 130 205 131 q 242 128 228 128 l 328 128 z "},"Ǳ":{"ha":1413,"x_min":95,"x_max":1407,"o":"m 106 712 q 136 802 107 778 q 205 827 165 827 l 304 827 q 490 770 391 827 q 655 613 588 714 q 722 385 722 511 q 654 172 722 260 q 490 40 587 84 q 304 -3 392 -3 q 193 3 225 -3 q 171 -6 185 0 q 155 -12 157 -12 q 119 15 132 -12 q 100 80 105 41 q 96 153 95 118 l 106 712 m 328 128 q 465 154 394 128 q 585 233 536 179 q 633 366 633 286 q 586 534 633 456 q 464 658 538 612 q 317 704 390 704 q 255 702 293 704 q 199 699 218 701 q 188 565 188 637 l 188 448 q 203 132 188 220 q 216 130 205 131 q 242 128 228 128 l 328 128 m 1305 -3 q 1164 -7 1263 -3 q 1095 -10 1149 -8 q 994 -12 1041 -12 q 880 -5 949 -12 q 852 10 859 -4 q 846 57 846 24 q 860 140 846 99 q 903 227 875 181 q 991 368 941 290 q 1094 534 1056 470 q 1162 665 1132 598 l 1135 665 q 1054 662 1099 665 q 997 659 1008 659 q 876 653 910 653 q 833 676 850 653 q 815 732 815 699 q 830 783 815 765 q 868 801 845 801 q 925 798 884 801 q 983 795 966 795 q 1069 797 1010 795 q 1162 799 1114 799 q 1271 794 1217 799 q 1289 771 1284 792 q 1295 726 1295 751 q 1245 606 1295 697 q 1134 414 1196 515 q 1035 258 1072 313 q 992 189 1018 233 q 956 123 966 145 l 1118 123 l 1146 123 q 1204 123 1185 123 l 1263 124 q 1286 128 1275 124 q 1314 139 1297 132 q 1338 150 1330 146 q 1356 153 1347 153 q 1395 134 1383 153 q 1407 85 1407 115 q 1394 20 1407 50 q 1356 -9 1381 -9 q 1331 -6 1344 -9 q 1305 -3 1314 -3 z "},"Ǆ":{"ha":1413,"x_min":95,"x_max":1407,"o":"m 106 712 q 136 802 107 778 q 205 827 165 827 l 304 827 q 490 770 391 827 q 655 613 588 714 q 722 385 722 511 q 654 172 722 260 q 490 40 587 84 q 304 -3 392 -3 q 193 3 225 -3 q 171 -6 185 0 q 155 -12 157 -12 q 119 15 132 -12 q 100 80 105 41 q 96 153 95 118 l 106 712 m 328 128 q 465 154 394 128 q 585 233 536 179 q 633 366 633 286 q 586 534 633 456 q 464 658 538 612 q 317 704 390 704 q 255 702 293 704 q 199 699 218 701 q 188 565 188 637 l 188 448 q 203 132 188 220 q 216 130 205 131 q 242 128 228 128 l 328 128 m 1305 -3 q 1164 -7 1263 -3 q 1095 -10 1149 -8 q 994 -12 1041 -12 q 880 -5 949 -12 q 852 10 859 -4 q 846 57 846 24 q 860 140 846 99 q 903 227 875 181 q 991 368 941 290 q 1094 534 1056 470 q 1162 665 1132 598 l 1135 665 q 1054 662 1099 665 q 997 659 1008 659 q 876 653 910 653 q 833 676 850 653 q 815 732 815 699 q 830 783 815 765 q 868 801 845 801 q 925 798 884 801 q 983 795 966 795 q 1069 797 1010 795 q 1162 799 1114 799 q 1271 794 1217 799 q 1289 771 1284 792 q 1295 726 1295 751 q 1245 606 1295 697 q 1134 414 1196 515 q 1035 258 1072 313 q 992 189 1018 233 q 956 123 966 145 l 1118 123 l 1146 123 q 1204 123 1185 123 l 1263 124 q 1286 128 1275 124 q 1314 139 1297 132 q 1338 150 1330 146 q 1356 153 1347 153 q 1395 134 1383 153 q 1407 85 1407 115 q 1394 20 1407 50 q 1356 -9 1381 -9 q 1331 -6 1344 -9 q 1305 -3 1314 -3 m 1095 1044 q 1161 1108 1123 1079 q 1237 1153 1199 1137 q 1305 1169 1276 1169 q 1335 1151 1321 1169 q 1349 1110 1349 1133 q 1335 1062 1349 1084 q 1305 1039 1322 1040 q 1254 1021 1282 1036 q 1185 981 1225 1006 q 1126 948 1146 958 q 1093 938 1107 938 q 1072 942 1082 939 q 1053 953 1063 945 q 933 1025 1003 1003 q 903 1039 913 1033 q 885 1055 892 1044 q 878 1080 878 1065 q 885 1123 878 1104 q 903 1152 892 1141 q 923 1162 913 1162 q 1007 1125 956 1162 q 1095 1044 1058 1088 z "},"Ð":{"ha":799,"x_min":24,"x_max":722,"o":"m 304 827 q 490 770 391 827 q 655 613 588 714 q 722 385 722 511 q 654 172 722 260 q 490 40 587 84 q 304 -3 392 -3 q 193 3 225 -3 q 171 -6 185 0 q 155 -12 157 -12 q 119 15 132 -12 q 100 80 105 41 q 96 153 95 118 l 100 332 q 79 332 93 332 q 39 345 54 332 q 24 400 24 359 q 38 450 24 429 q 71 471 52 471 q 84 468 79 471 q 102 465 89 465 l 106 712 q 136 802 107 778 q 205 827 165 827 l 304 827 m 328 128 q 465 154 394 128 q 585 233 536 179 q 633 366 633 286 q 586 534 633 456 q 464 658 538 612 q 317 704 390 704 q 255 702 293 704 q 199 699 218 701 q 188 565 188 637 l 188 467 q 344 471 291 471 q 377 451 366 471 q 389 400 389 432 q 378 361 389 378 q 352 336 367 345 q 328 328 337 328 q 262 334 302 328 q 236 337 258 334 q 192 340 213 340 l 189 340 q 203 132 191 204 q 216 130 205 131 q 242 128 228 128 l 328 128 z "},"Ď":{"ha":762,"x_min":94,"x_max":722,"o":"m 106 712 q 136 802 107 778 q 205 827 165 827 l 304 827 q 490 770 391 827 q 655 613 588 714 q 722 385 722 511 q 654 172 722 260 q 490 40 587 84 q 304 -3 392 -3 q 193 3 225 -3 q 171 -6 185 0 q 155 -12 157 -12 q 119 15 132 -12 q 100 80 105 41 q 96 153 95 118 l 106 712 m 328 128 q 465 154 394 128 q 585 233 536 179 q 633 366 633 286 q 586 534 633 456 q 464 658 538 612 q 317 704 390 704 q 255 702 293 704 q 199 699 218 701 q 188 565 188 637 l 188 448 q 203 132 188 220 q 216 130 205 131 q 242 128 228 128 l 328 128 m 311 1044 q 377 1108 339 1079 q 453 1153 415 1137 q 522 1169 492 1169 q 551 1151 537 1169 q 565 1110 565 1133 q 551 1062 565 1084 q 522 1039 538 1040 q 470 1021 498 1036 q 401 981 441 1006 q 342 948 362 958 q 309 938 323 938 q 288 942 298 939 q 269 953 279 945 q 149 1025 219 1003 q 119 1039 130 1033 q 101 1055 109 1044 q 94 1080 94 1065 q 101 1123 94 1104 q 119 1152 109 1141 q 139 1162 129 1162 q 223 1125 172 1162 q 311 1044 274 1088 z "},"Đ":{"ha":799,"x_min":24,"x_max":722,"o":"m 304 827 q 490 770 391 827 q 655 613 588 714 q 722 385 722 511 q 654 172 722 260 q 490 40 587 84 q 304 -3 392 -3 q 193 3 225 -3 q 171 -6 185 0 q 155 -12 157 -12 q 119 15 132 -12 q 100 80 105 41 q 96 153 95 118 l 100 341 q 79 340 93 340 q 40 355 55 340 q 24 410 24 369 q 38 454 24 438 q 71 471 51 471 q 84 468 79 471 q 102 465 89 465 l 106 712 q 136 802 107 778 q 205 827 165 827 l 304 827 m 328 128 q 465 154 394 128 q 585 233 536 179 q 633 366 633 286 q 586 534 633 456 q 464 658 538 612 q 317 704 390 704 q 255 702 293 704 q 199 699 218 701 q 188 565 188 637 l 188 467 q 344 471 291 471 q 377 451 366 471 q 389 400 389 432 q 378 364 389 378 q 353 344 367 350 q 328 338 338 338 q 262 345 302 338 q 236 348 258 345 q 192 351 213 351 l 189 351 q 203 132 191 201 q 216 130 205 131 q 242 128 228 128 l 328 128 z "},"Ḋ":{"ha":762,"x_min":95,"x_max":722,"o":"m 106 712 q 136 802 107 778 q 205 827 165 827 l 304 827 q 490 770 391 827 q 655 613 588 714 q 722 385 722 511 q 654 172 722 260 q 490 40 587 84 q 304 -3 392 -3 q 193 3 225 -3 q 171 -6 185 0 q 155 -12 157 -12 q 119 15 132 -12 q 100 80 105 41 q 96 153 95 118 l 106 712 m 328 128 q 465 154 394 128 q 585 233 536 179 q 633 366 633 286 q 586 534 633 456 q 464 658 538 612 q 317 704 390 704 q 255 702 293 704 q 199 699 218 701 q 188 565 188 637 l 188 448 q 203 132 188 220 q 216 130 205 131 q 242 128 228 128 l 328 128 m 316 1152 q 365 1134 344 1152 q 386 1074 386 1117 q 370 1010 386 1032 q 322 989 353 989 q 272 1006 295 989 q 248 1066 248 1023 q 259 1106 248 1086 q 285 1139 269 1126 q 316 1152 301 1152 z "},"Ḍ":{"ha":762,"x_min":95,"x_max":722,"o":"m 106 712 q 136 802 107 778 q 205 827 165 827 l 304 827 q 490 770 391 827 q 655 613 588 714 q 722 385 722 511 q 654 172 722 260 q 490 40 587 84 q 304 -3 392 -3 q 193 3 225 -3 q 171 -6 185 0 q 155 -12 157 -12 q 119 15 132 -12 q 100 80 105 41 q 96 153 95 118 l 106 712 m 328 128 q 465 154 394 128 q 585 233 536 179 q 633 366 633 286 q 586 534 633 456 q 464 658 538 612 q 317 704 390 704 q 255 702 293 704 q 199 699 218 701 q 188 565 188 637 l 188 448 q 203 132 188 220 q 216 130 205 131 q 242 128 228 128 l 328 128 m 407 -230 q 344 -315 407 -315 q 292 -299 315 -315 q 268 -241 268 -283 q 279 -199 268 -220 q 306 -165 290 -178 q 338 -151 323 -151 q 387 -169 366 -151 q 407 -230 407 -187 z "},"Ḏ":{"ha":762,"x_min":95,"x_max":722,"o":"m 106 712 q 136 802 107 778 q 205 827 165 827 l 304 827 q 490 770 391 827 q 655 613 588 714 q 722 385 722 511 q 654 172 722 260 q 490 40 587 84 q 304 -3 392 -3 q 193 3 225 -3 q 171 -6 185 0 q 155 -12 157 -12 q 119 15 132 -12 q 100 80 105 41 q 96 153 95 118 l 106 712 m 328 128 q 465 154 394 128 q 585 233 536 179 q 633 366 633 286 q 586 534 633 456 q 464 658 538 612 q 317 704 390 704 q 255 702 293 704 q 199 699 218 701 q 188 565 188 637 l 188 448 q 203 132 188 220 q 216 130 205 131 q 242 128 228 128 l 328 128 m 532 -162 q 563 -179 553 -162 q 573 -235 573 -196 q 566 -280 573 -269 q 544 -291 559 -291 l 526 -290 l 191 -290 q 154 -275 167 -290 q 142 -239 142 -260 q 149 -203 142 -222 q 165 -171 155 -184 q 185 -157 176 -157 q 278 -158 237 -157 q 347 -159 319 -159 q 532 -162 465 -162 z "},"ǲ":{"ha":1324,"x_min":95,"x_max":1304,"o":"m 106 712 q 136 802 107 778 q 205 827 165 827 l 304 827 q 490 770 391 827 q 655 613 588 714 q 722 385 722 511 q 654 172 722 260 q 490 40 587 84 q 304 -3 392 -3 q 193 3 225 -3 q 171 -6 185 0 q 155 -12 157 -12 q 119 15 132 -12 q 100 80 105 41 q 96 153 95 118 l 106 712 m 328 128 q 465 154 394 128 q 585 233 536 179 q 633 366 633 286 q 586 534 633 456 q 464 658 538 612 q 317 704 390 704 q 255 702 293 704 q 199 699 218 701 q 188 565 188 637 l 188 448 q 203 132 188 220 q 216 130 205 131 q 242 128 228 128 l 328 128 m 890 499 q 852 501 864 499 q 832 516 841 503 q 823 559 823 529 q 832 611 823 585 q 859 637 842 637 l 1065 637 q 1102 640 1083 637 q 1126 644 1122 643 q 1185 650 1162 650 q 1219 620 1209 650 q 1229 557 1229 591 q 1201 467 1219 511 q 1158 377 1183 423 q 1082 243 1133 332 q 1055 196 1072 225 q 1013 124 1038 168 q 1064 119 1032 119 q 1164 130 1112 119 q 1249 161 1216 142 q 1254 164 1251 163 q 1259 165 1257 165 q 1284 148 1274 165 q 1299 107 1294 131 q 1304 66 1304 84 q 1296 32 1304 50 q 1272 3 1287 15 q 1240 -8 1257 -8 q 1209 -5 1226 -8 q 1195 -3 1205 -4 q 1177 -1 1185 -1 q 1093 -3 1137 -1 q 1049 -4 1078 -3 q 997 -5 1020 -5 q 940 -2 962 -5 q 901 18 918 2 q 884 68 884 35 q 909 132 884 85 q 989 269 935 178 q 1073 413 1040 355 q 1120 511 1105 471 q 1099 512 1118 512 q 994 505 1063 512 q 953 502 986 505 q 890 499 920 499 z "},"ǅ":{"ha":1324,"x_min":95,"x_max":1307,"o":"m 106 712 q 136 802 107 778 q 205 827 165 827 l 304 827 q 490 770 391 827 q 655 613 588 714 q 722 385 722 511 q 654 172 722 260 q 490 40 587 84 q 304 -3 392 -3 q 193 3 225 -3 q 171 -6 185 0 q 155 -12 157 -12 q 119 15 132 -12 q 100 80 105 41 q 96 153 95 118 l 106 712 m 328 128 q 465 154 394 128 q 585 233 536 179 q 633 366 633 286 q 586 534 633 456 q 464 658 538 612 q 317 704 390 704 q 255 702 293 704 q 199 699 218 701 q 188 565 188 637 l 188 448 q 203 132 188 220 q 216 130 205 131 q 242 128 228 128 l 328 128 m 890 499 q 852 501 864 499 q 832 516 841 503 q 823 559 823 529 q 832 611 823 585 q 859 637 842 637 l 1065 637 q 1102 640 1083 637 q 1126 644 1122 643 q 1185 650 1162 650 q 1219 620 1209 650 q 1229 557 1229 591 q 1201 467 1219 511 q 1158 377 1183 423 q 1082 243 1133 332 q 1055 196 1072 225 q 1013 124 1038 168 q 1064 119 1032 119 q 1164 130 1112 119 q 1249 161 1216 142 q 1254 164 1251 163 q 1259 165 1257 165 q 1284 148 1274 165 q 1299 107 1294 131 q 1304 66 1304 84 q 1296 32 1304 50 q 1272 3 1287 15 q 1240 -8 1257 -8 q 1209 -5 1226 -8 q 1195 -3 1205 -4 q 1177 -1 1185 -1 q 1093 -3 1137 -1 q 1049 -4 1078 -3 q 997 -5 1020 -5 q 940 -2 962 -5 q 901 18 918 2 q 884 68 884 35 q 909 132 884 85 q 989 269 935 178 q 1073 413 1040 355 q 1120 511 1105 471 q 1099 512 1118 512 q 994 505 1063 512 q 953 502 986 505 q 890 499 920 499 m 1260 1031 q 1294 1020 1281 1031 q 1307 974 1307 1008 q 1273 922 1307 942 q 1216 874 1255 907 q 1114 793 1152 819 q 1048 766 1076 766 q 1013 779 1031 766 q 982 805 994 792 q 941 850 970 817 q 901 887 930 863 q 841 941 863 918 q 819 981 819 964 q 839 1023 819 1005 q 888 1042 859 1042 q 917 1024 901 1042 q 966 966 933 1007 q 1016 905 996 928 q 1057 870 1037 882 q 1123 930 1076 883 q 1203 1005 1171 979 q 1260 1031 1235 1031 z "},"E":{"ha":670,"x_min":104,"x_max":653,"o":"m 574 798 q 624 794 608 798 q 646 779 639 791 q 653 737 653 766 q 639 688 653 712 q 607 663 625 663 q 199 668 298 665 q 197 585 199 646 q 196 496 196 522 l 450 499 q 487 483 473 499 q 501 431 501 466 q 496 405 501 421 q 481 376 491 389 q 457 364 471 364 q 256 366 330 364 q 221 366 241 366 q 198 364 203 366 l 203 146 q 303 144 248 146 q 378 141 359 142 q 572 136 503 136 q 616 57 616 136 q 596 1 616 18 q 545 -16 576 -16 q 463 -10 517 -16 q 388 -4 424 -6 q 296 -1 353 -1 q 235 -5 271 -1 q 165 -8 180 -8 q 122 16 138 -8 q 106 79 106 40 l 111 380 q 107 401 111 389 q 105 413 106 404 q 104 429 104 421 q 112 467 104 446 q 109 686 109 571 q 111 746 109 722 q 126 788 114 770 q 163 806 138 806 q 187 804 174 806 q 203 801 199 802 q 249 795 232 795 l 411 796 q 574 798 530 798 z "},"É":{"ha":670,"x_min":104,"x_max":653,"o":"m 574 798 q 624 794 608 798 q 646 779 639 791 q 653 737 653 766 q 639 688 653 712 q 607 663 625 663 q 199 668 298 665 q 197 585 199 646 q 196 496 196 522 l 450 499 q 487 483 473 499 q 501 431 501 466 q 496 405 501 421 q 481 376 491 389 q 457 364 471 364 q 256 366 330 364 q 221 366 241 366 q 198 364 203 366 l 203 146 q 303 144 248 146 q 378 141 359 142 q 572 136 503 136 q 616 57 616 136 q 596 1 616 18 q 545 -16 576 -16 q 463 -10 517 -16 q 388 -4 424 -6 q 296 -1 353 -1 q 235 -5 271 -1 q 165 -8 180 -8 q 122 16 138 -8 q 106 79 106 40 l 111 380 q 107 401 111 389 q 105 413 106 404 q 104 429 104 421 q 112 467 104 446 q 109 686 109 571 q 111 746 109 722 q 126 788 114 770 q 163 806 138 806 q 187 804 174 806 q 203 801 199 802 q 249 795 232 795 l 411 796 q 574 798 530 798 m 289 972 q 301 1010 289 994 q 335 1041 314 1027 q 399 1084 367 1061 q 475 1134 446 1117 q 522 1150 503 1150 q 558 1137 545 1150 q 571 1093 571 1123 q 520 1016 571 1054 q 405 952 469 978 q 316 927 341 927 q 309 929 316 926 q 295 943 301 933 q 289 972 289 953 z "},"Ĕ":{"ha":670,"x_min":104,"x_max":653,"o":"m 574 798 q 624 794 608 798 q 646 779 639 791 q 653 737 653 766 q 639 688 653 712 q 607 663 625 663 q 199 668 298 665 q 197 585 199 646 q 196 496 196 522 l 450 499 q 487 483 473 499 q 501 431 501 466 q 496 405 501 421 q 481 376 491 389 q 457 364 471 364 q 256 366 330 364 q 221 366 241 366 q 198 364 203 366 l 203 146 q 303 144 248 146 q 378 141 359 142 q 572 136 503 136 q 616 57 616 136 q 596 1 616 18 q 545 -16 576 -16 q 463 -10 517 -16 q 388 -4 424 -6 q 296 -1 353 -1 q 235 -5 271 -1 q 165 -8 180 -8 q 122 16 138 -8 q 106 79 106 40 l 111 380 q 107 401 111 389 q 105 413 106 404 q 104 429 104 421 q 112 467 104 446 q 109 686 109 571 q 111 746 109 722 q 126 788 114 770 q 163 806 138 806 q 187 804 174 806 q 203 801 199 802 q 249 795 232 795 l 411 796 q 574 798 530 798 m 170 1143 q 185 1202 170 1185 q 219 1219 201 1219 q 250 1207 242 1219 q 262 1167 258 1194 q 273 1123 265 1140 q 303 1093 280 1105 q 372 1080 327 1080 q 452 1099 418 1080 q 487 1160 487 1118 q 503 1206 487 1192 q 537 1221 519 1221 q 568 1203 555 1221 q 582 1152 582 1185 q 556 1056 582 1101 q 484 985 530 1012 q 378 958 437 958 q 228 1001 287 958 q 170 1143 170 1044 z "},"Ě":{"ha":670,"x_min":104,"x_max":653,"o":"m 574 798 q 624 794 608 798 q 646 779 639 791 q 653 737 653 766 q 639 688 653 712 q 607 663 625 663 q 199 668 298 665 q 197 585 199 646 q 196 496 196 522 l 450 499 q 487 483 473 499 q 501 431 501 466 q 496 405 501 421 q 481 376 491 389 q 457 364 471 364 q 256 366 330 364 q 221 366 241 366 q 198 364 203 366 l 203 146 q 303 144 248 146 q 378 141 359 142 q 572 136 503 136 q 616 57 616 136 q 596 1 616 18 q 545 -16 576 -16 q 463 -10 517 -16 q 388 -4 424 -6 q 296 -1 353 -1 q 235 -5 271 -1 q 165 -8 180 -8 q 122 16 138 -8 q 106 79 106 40 l 111 380 q 107 401 111 389 q 105 413 106 404 q 104 429 104 421 q 112 467 104 446 q 109 686 109 571 q 111 746 109 722 q 126 788 114 770 q 163 806 138 806 q 187 804 174 806 q 203 801 199 802 q 249 795 232 795 l 411 796 q 574 798 530 798 m 366 1044 q 432 1108 394 1079 q 508 1153 470 1137 q 576 1169 547 1169 q 606 1151 592 1169 q 620 1110 620 1133 q 606 1062 620 1084 q 576 1039 593 1040 q 525 1021 553 1036 q 456 981 496 1006 q 397 948 417 958 q 364 938 378 938 q 343 942 353 939 q 324 953 334 945 q 204 1025 274 1003 q 174 1039 184 1033 q 156 1055 163 1044 q 149 1080 149 1065 q 156 1123 149 1104 q 174 1152 163 1141 q 194 1162 184 1162 q 278 1125 227 1162 q 366 1044 329 1088 z "},"Ê":{"ha":670,"x_min":104,"x_max":653,"o":"m 574 798 q 624 794 608 798 q 646 779 639 791 q 653 737 653 766 q 639 688 653 712 q 607 663 625 663 q 199 668 298 665 q 197 585 199 646 q 196 496 196 522 l 450 499 q 487 483 473 499 q 501 431 501 466 q 496 405 501 421 q 481 376 491 389 q 457 364 471 364 q 256 366 330 364 q 221 366 241 366 q 198 364 203 366 l 203 146 q 303 144 248 146 q 378 141 359 142 q 572 136 503 136 q 616 57 616 136 q 596 1 616 18 q 545 -16 576 -16 q 463 -10 517 -16 q 388 -4 424 -6 q 296 -1 353 -1 q 235 -5 271 -1 q 165 -8 180 -8 q 122 16 138 -8 q 106 79 106 40 l 111 380 q 107 401 111 389 q 105 413 106 404 q 104 429 104 421 q 112 467 104 446 q 109 686 109 571 q 111 746 109 722 q 126 788 114 770 q 163 806 138 806 q 187 804 174 806 q 203 801 199 802 q 249 795 232 795 l 411 796 q 574 798 530 798 m 372 1078 q 306 1015 343 1043 q 230 969 268 986 q 161 953 191 953 q 132 971 146 953 q 118 1013 118 989 q 132 1061 118 1040 q 161 1084 145 1082 q 213 1101 185 1087 q 281 1141 240 1116 q 339 1174 319 1164 q 374 1185 360 1185 q 414 1169 396 1183 q 536 1097 465 1118 q 565 1083 555 1088 q 582 1068 574 1078 q 589 1043 589 1058 q 582 1000 589 1019 q 564 970 574 981 q 543 960 553 960 q 459 997 510 960 q 372 1078 408 1034 z "},"Ế":{"ha":670,"x_min":104,"x_max":754,"o":"m 574 798 q 624 794 608 798 q 646 779 639 791 q 653 737 653 766 q 639 688 653 712 q 607 663 625 663 q 199 668 298 665 q 197 585 199 646 q 196 496 196 522 l 450 499 q 487 483 473 499 q 501 431 501 466 q 496 405 501 421 q 481 376 491 389 q 457 364 471 364 q 256 366 330 364 q 221 366 241 366 q 198 364 203 366 l 203 146 q 303 144 248 146 q 378 141 359 142 q 572 136 503 136 q 616 57 616 136 q 596 1 616 18 q 545 -16 576 -16 q 463 -10 517 -16 q 388 -4 424 -6 q 296 -1 353 -1 q 235 -5 271 -1 q 165 -8 180 -8 q 122 16 138 -8 q 106 79 106 40 l 111 380 q 107 401 111 389 q 105 413 106 404 q 104 429 104 421 q 112 467 104 446 q 109 686 109 571 q 111 746 109 722 q 126 788 114 770 q 163 806 138 806 q 187 804 174 806 q 203 801 199 802 q 249 795 232 795 l 411 796 q 574 798 530 798 m 513 1089 q 521 1131 513 1114 q 546 1158 528 1147 q 581 1184 564 1168 q 622 1223 599 1200 q 671 1267 653 1253 q 705 1281 689 1281 q 741 1267 727 1281 q 754 1224 754 1253 q 715 1146 754 1185 q 627 1083 677 1108 q 554 1057 578 1057 q 550 1057 553 1057 q 543 1056 547 1056 q 513 1089 513 1056 m 199 876 q 165 893 180 876 q 151 945 151 911 q 184 996 151 977 q 209 1016 201 1010 q 284 1076 257 1056 q 336 1108 311 1097 q 383 1120 361 1120 q 425 1103 404 1120 q 473 1054 446 1085 l 490 1036 q 531 1001 500 1025 q 577 962 562 977 q 592 930 592 946 q 583 897 592 914 q 557 867 573 879 q 522 856 541 856 q 495 870 509 856 q 455 915 481 884 q 411 965 429 947 q 374 995 393 984 q 341 969 359 985 q 320 950 323 953 q 253 895 280 913 q 199 876 225 876 z "},"Ệ":{"ha":670,"x_min":104,"x_max":653,"o":"m 574 798 q 624 794 608 798 q 646 779 639 791 q 653 737 653 766 q 639 688 653 712 q 607 663 625 663 q 199 668 298 665 q 197 585 199 646 q 196 496 196 522 l 450 499 q 487 483 473 499 q 501 431 501 466 q 496 405 501 421 q 481 376 491 389 q 457 364 471 364 q 256 366 330 364 q 221 366 241 366 q 198 364 203 366 l 203 146 q 303 144 248 146 q 378 141 359 142 q 572 136 503 136 q 616 57 616 136 q 596 1 616 18 q 545 -16 576 -16 q 463 -10 517 -16 q 388 -4 424 -6 q 296 -1 353 -1 q 235 -5 271 -1 q 165 -8 180 -8 q 122 16 138 -8 q 106 79 106 40 l 111 380 q 107 401 111 389 q 105 413 106 404 q 104 429 104 421 q 112 467 104 446 q 109 686 109 571 q 111 746 109 722 q 126 788 114 770 q 163 806 138 806 q 187 804 174 806 q 203 801 199 802 q 249 795 232 795 l 411 796 q 574 798 530 798 m 372 1078 q 306 1015 343 1043 q 230 969 268 986 q 161 953 191 953 q 132 971 146 953 q 118 1013 118 989 q 132 1061 118 1040 q 161 1084 145 1082 q 213 1101 185 1087 q 281 1141 240 1116 q 339 1174 319 1164 q 374 1185 360 1185 q 414 1169 396 1183 q 536 1097 465 1118 q 565 1083 555 1088 q 582 1068 574 1078 q 589 1043 589 1058 q 582 1000 589 1019 q 564 970 574 981 q 543 960 553 960 q 459 997 510 960 q 372 1078 408 1034 m 446 -230 q 383 -315 446 -315 q 331 -299 355 -315 q 307 -241 307 -283 q 318 -199 307 -220 q 346 -165 329 -178 q 378 -151 362 -151 q 426 -169 406 -151 q 446 -230 446 -187 z "},"Ề":{"ha":670,"x_min":104,"x_max":728,"o":"m 574 798 q 624 794 608 798 q 646 779 639 791 q 653 737 653 766 q 639 688 653 712 q 607 663 625 663 q 199 668 298 665 q 197 585 199 646 q 196 496 196 522 l 450 499 q 487 483 473 499 q 501 431 501 466 q 496 405 501 421 q 481 376 491 389 q 457 364 471 364 q 256 366 330 364 q 221 366 241 366 q 198 364 203 366 l 203 146 q 303 144 248 146 q 378 141 359 142 q 572 136 503 136 q 616 57 616 136 q 596 1 616 18 q 545 -16 576 -16 q 463 -10 517 -16 q 388 -4 424 -6 q 296 -1 353 -1 q 235 -5 271 -1 q 165 -8 180 -8 q 122 16 138 -8 q 106 79 106 40 l 111 380 q 107 401 111 389 q 105 413 106 404 q 104 429 104 421 q 112 467 104 446 q 109 686 109 571 q 111 746 109 722 q 126 788 114 770 q 163 806 138 806 q 187 804 174 806 q 203 801 199 802 q 249 795 232 795 l 411 796 q 574 798 530 798 m 495 1240 q 503 1273 495 1260 q 523 1293 511 1286 q 545 1299 534 1299 q 592 1274 568 1299 q 654 1196 616 1249 q 704 1129 690 1145 q 728 1072 728 1101 q 719 1037 728 1049 q 701 1020 711 1024 q 685 1015 691 1015 l 682 1015 q 614 1063 661 1023 q 531 1153 568 1103 q 495 1240 495 1202 m 199 903 q 165 921 180 903 q 151 973 151 939 q 161 1003 151 990 q 184 1024 172 1016 q 245 1065 208 1040 q 327 1119 298 1103 q 383 1135 356 1135 q 423 1118 404 1135 q 472 1070 443 1102 l 490 1050 q 538 1015 503 1036 q 578 985 565 997 q 592 958 592 972 q 583 924 592 942 q 557 895 573 907 q 522 883 541 883 q 494 896 509 883 q 452 938 479 909 q 410 982 427 965 q 374 1009 393 998 q 331 976 359 999 q 257 922 287 941 q 199 903 227 903 z "},"Ể":{"ha":670,"x_min":104,"x_max":825,"o":"m 574 798 q 624 794 608 798 q 646 779 639 791 q 653 737 653 766 q 639 688 653 712 q 607 663 625 663 q 199 668 298 665 q 197 585 199 646 q 196 496 196 522 l 450 499 q 487 483 473 499 q 501 431 501 466 q 496 405 501 421 q 481 376 491 389 q 457 364 471 364 q 256 366 330 364 q 221 366 241 366 q 198 364 203 366 l 203 146 q 303 144 248 146 q 378 141 359 142 q 572 136 503 136 q 616 57 616 136 q 596 1 616 18 q 545 -16 576 -16 q 463 -10 517 -16 q 388 -4 424 -6 q 296 -1 353 -1 q 235 -5 271 -1 q 165 -8 180 -8 q 122 16 138 -8 q 106 79 106 40 l 111 380 q 107 401 111 389 q 105 413 106 404 q 104 429 104 421 q 112 467 104 446 q 109 686 109 571 q 111 746 109 722 q 126 788 114 770 q 163 806 138 806 q 187 804 174 806 q 203 801 199 802 q 249 795 232 795 l 411 796 q 574 798 530 798 m 715 1198 q 718 1185 718 1189 q 700 1149 718 1165 q 657 1124 681 1133 q 635 1121 650 1121 q 614 1118 621 1121 q 599 1106 604 1115 q 594 1086 594 1097 q 597 1072 594 1080 q 642 1040 607 1040 q 711 1056 663 1040 q 777 1098 751 1071 q 814 1155 802 1124 q 825 1215 825 1186 q 821 1247 825 1232 q 772 1309 809 1279 q 675 1351 720 1351 q 645 1345 659 1351 q 612 1322 624 1338 q 600 1289 600 1305 q 601 1280 600 1282 q 617 1259 606 1265 q 650 1248 629 1253 q 691 1232 676 1241 q 715 1198 707 1222 m 199 903 q 165 921 180 903 q 151 973 151 939 q 161 1003 151 990 q 184 1024 172 1016 q 245 1065 208 1040 q 327 1119 298 1103 q 383 1135 356 1135 q 423 1118 404 1135 q 472 1070 443 1102 l 490 1050 q 538 1015 503 1036 q 578 985 565 997 q 592 958 592 972 q 583 924 592 942 q 557 895 573 907 q 522 883 541 883 q 494 896 509 883 q 452 938 479 909 q 410 982 427 965 q 374 1009 393 998 q 331 976 359 999 q 257 922 287 941 q 199 903 227 903 z "},"Ễ":{"ha":670,"x_min":104,"x_max":653,"o":"m 574 798 q 624 794 608 798 q 646 779 639 791 q 653 737 653 766 q 639 688 653 712 q 607 663 625 663 q 199 668 298 665 q 197 585 199 646 q 196 496 196 522 l 450 499 q 487 483 473 499 q 501 431 501 466 q 496 405 501 421 q 481 376 491 389 q 457 364 471 364 q 256 366 330 364 q 221 366 241 366 q 198 364 203 366 l 203 146 q 303 144 248 146 q 378 141 359 142 q 572 136 503 136 q 616 57 616 136 q 596 1 616 18 q 545 -16 576 -16 q 463 -10 517 -16 q 388 -4 424 -6 q 296 -1 353 -1 q 235 -5 271 -1 q 165 -8 180 -8 q 122 16 138 -8 q 106 79 106 40 l 111 380 q 107 401 111 389 q 105 413 106 404 q 104 429 104 421 q 112 467 104 446 q 109 686 109 571 q 111 746 109 722 q 126 788 114 770 q 163 806 138 806 q 187 804 174 806 q 203 801 199 802 q 249 795 232 795 l 411 796 q 574 798 530 798 m 226 1126 q 197 1141 209 1126 q 184 1180 184 1156 q 202 1245 184 1217 q 250 1287 220 1272 q 311 1302 279 1302 q 372 1292 347 1302 q 426 1261 397 1281 q 457 1242 445 1249 q 483 1236 469 1236 q 512 1245 501 1236 q 534 1270 522 1253 q 549 1289 543 1282 q 567 1295 556 1295 q 590 1282 583 1295 q 598 1251 598 1270 q 585 1191 598 1219 q 546 1145 572 1162 q 483 1128 519 1128 q 439 1137 460 1128 q 387 1165 417 1147 q 341 1189 358 1181 q 309 1197 325 1197 q 278 1186 290 1197 q 253 1153 267 1175 q 239 1132 245 1139 q 226 1126 233 1126 m 191 888 q 157 907 172 888 q 143 960 143 925 q 153 989 143 977 q 176 1010 163 1002 l 235 1050 q 319 1105 290 1089 q 375 1120 348 1120 q 417 1103 396 1120 q 465 1054 438 1085 l 481 1036 q 529 1001 495 1022 q 570 971 557 983 q 584 944 584 959 q 574 910 584 928 q 549 881 565 892 q 514 869 533 869 q 485 883 501 869 q 445 924 469 897 q 402 967 420 951 q 366 995 385 984 q 321 960 350 984 q 247 906 275 924 q 191 888 218 888 z "},"Ë":{"ha":670,"x_min":104,"x_max":653,"o":"m 574 798 q 624 794 608 798 q 646 779 639 791 q 653 737 653 766 q 639 688 653 712 q 607 663 625 663 q 199 668 298 665 q 197 585 199 646 q 196 496 196 522 l 450 499 q 487 483 473 499 q 501 431 501 466 q 496 405 501 421 q 481 376 491 389 q 457 364 471 364 q 256 366 330 364 q 221 366 241 366 q 198 364 203 366 l 203 146 q 303 144 248 146 q 378 141 359 142 q 572 136 503 136 q 616 57 616 136 q 596 1 616 18 q 545 -16 576 -16 q 463 -10 517 -16 q 388 -4 424 -6 q 296 -1 353 -1 q 235 -5 271 -1 q 165 -8 180 -8 q 122 16 138 -8 q 106 79 106 40 l 111 380 q 107 401 111 389 q 105 413 106 404 q 104 429 104 421 q 112 467 104 446 q 109 686 109 571 q 111 746 109 722 q 126 788 114 770 q 163 806 138 806 q 187 804 174 806 q 203 801 199 802 q 249 795 232 795 l 411 796 q 574 798 530 798 m 273 1122 q 304 1100 291 1122 q 317 1036 317 1078 q 308 975 317 1000 q 284 938 298 950 q 259 926 271 926 q 210 951 225 926 q 194 1025 194 977 q 208 1072 194 1050 q 241 1108 222 1095 q 273 1122 260 1122 m 562 1019 q 551 977 562 998 q 526 940 541 955 q 497 926 511 926 q 453 950 470 926 q 435 1013 435 975 q 445 1064 435 1038 q 471 1105 454 1089 q 507 1121 488 1121 q 549 1088 536 1121 q 562 1019 562 1056 z "},"Ė":{"ha":670,"x_min":104,"x_max":653,"o":"m 574 798 q 624 794 608 798 q 646 779 639 791 q 653 737 653 766 q 639 688 653 712 q 607 663 625 663 q 199 668 298 665 q 197 585 199 646 q 196 496 196 522 l 450 499 q 487 483 473 499 q 501 431 501 466 q 496 405 501 421 q 481 376 491 389 q 457 364 471 364 q 256 366 330 364 q 221 366 241 366 q 198 364 203 366 l 203 146 q 303 144 248 146 q 378 141 359 142 q 572 136 503 136 q 616 57 616 136 q 596 1 616 18 q 545 -16 576 -16 q 463 -10 517 -16 q 388 -4 424 -6 q 296 -1 353 -1 q 235 -5 271 -1 q 165 -8 180 -8 q 122 16 138 -8 q 106 79 106 40 l 111 380 q 107 401 111 389 q 105 413 106 404 q 104 429 104 421 q 112 467 104 446 q 109 686 109 571 q 111 746 109 722 q 126 788 114 770 q 163 806 138 806 q 187 804 174 806 q 203 801 199 802 q 249 795 232 795 l 411 796 q 574 798 530 798 m 371 1152 q 420 1134 399 1152 q 441 1074 441 1117 q 425 1010 441 1032 q 377 989 408 989 q 327 1006 350 989 q 303 1066 303 1023 q 314 1106 303 1086 q 340 1139 324 1126 q 371 1152 356 1152 z "},"Ẹ":{"ha":670,"x_min":104,"x_max":653,"o":"m 574 798 q 624 794 608 798 q 646 779 639 791 q 653 737 653 766 q 639 688 653 712 q 607 663 625 663 q 199 668 298 665 q 197 585 199 646 q 196 496 196 522 l 450 499 q 487 483 473 499 q 501 431 501 466 q 496 405 501 421 q 481 376 491 389 q 457 364 471 364 q 256 366 330 364 q 221 366 241 366 q 198 364 203 366 l 203 146 q 303 144 248 146 q 378 141 359 142 q 572 136 503 136 q 616 57 616 136 q 596 1 616 18 q 545 -16 576 -16 q 463 -10 517 -16 q 388 -4 424 -6 q 296 -1 353 -1 q 235 -5 271 -1 q 165 -8 180 -8 q 122 16 138 -8 q 106 79 106 40 l 111 380 q 107 401 111 389 q 105 413 106 404 q 104 429 104 421 q 112 467 104 446 q 109 686 109 571 q 111 746 109 722 q 126 788 114 770 q 163 806 138 806 q 187 804 174 806 q 203 801 199 802 q 249 795 232 795 l 411 796 q 574 798 530 798 m 446 -230 q 383 -315 446 -315 q 331 -299 355 -315 q 307 -241 307 -283 q 318 -199 307 -220 q 346 -165 329 -178 q 378 -151 362 -151 q 426 -169 406 -151 q 446 -230 446 -187 z "},"È":{"ha":670,"x_min":104,"x_max":653,"o":"m 574 798 q 624 794 608 798 q 646 779 639 791 q 653 737 653 766 q 639 688 653 712 q 607 663 625 663 q 199 668 298 665 q 197 585 199 646 q 196 496 196 522 l 450 499 q 487 483 473 499 q 501 431 501 466 q 496 405 501 421 q 481 376 491 389 q 457 364 471 364 q 256 366 330 364 q 221 366 241 366 q 198 364 203 366 l 203 146 q 303 144 248 146 q 378 141 359 142 q 572 136 503 136 q 616 57 616 136 q 596 1 616 18 q 545 -16 576 -16 q 463 -10 517 -16 q 388 -4 424 -6 q 296 -1 353 -1 q 235 -5 271 -1 q 165 -8 180 -8 q 122 16 138 -8 q 106 79 106 40 l 111 380 q 107 401 111 389 q 105 413 106 404 q 104 429 104 421 q 112 467 104 446 q 109 686 109 571 q 111 746 109 722 q 126 788 114 770 q 163 806 138 806 q 187 804 174 806 q 203 801 199 802 q 249 795 232 795 l 411 796 q 574 798 530 798 m 237 1093 q 251 1137 237 1123 q 289 1150 265 1150 q 337 1133 308 1150 q 410 1084 366 1116 q 475 1041 454 1053 q 509 1010 496 1027 q 522 972 522 994 q 516 943 522 953 q 501 929 509 933 q 493 927 493 926 q 404 952 468 927 q 289 1016 340 978 q 237 1093 237 1054 z "},"Ẻ":{"ha":670,"x_min":104,"x_max":653,"o":"m 574 798 q 624 794 608 798 q 646 779 639 791 q 653 737 653 766 q 639 688 653 712 q 607 663 625 663 q 199 668 298 665 q 197 585 199 646 q 196 496 196 522 l 450 499 q 487 483 473 499 q 501 431 501 466 q 496 405 501 421 q 481 376 491 389 q 457 364 471 364 q 256 366 330 364 q 221 366 241 366 q 198 364 203 366 l 203 146 q 303 144 248 146 q 378 141 359 142 q 572 136 503 136 q 616 57 616 136 q 596 1 616 18 q 545 -16 576 -16 q 463 -10 517 -16 q 388 -4 424 -6 q 296 -1 353 -1 q 235 -5 271 -1 q 165 -8 180 -8 q 122 16 138 -8 q 106 79 106 40 l 111 380 q 107 401 111 389 q 105 413 106 404 q 104 429 104 421 q 112 467 104 446 q 109 686 109 571 q 111 746 109 722 q 126 788 114 770 q 163 806 138 806 q 187 804 174 806 q 203 801 199 802 q 249 795 232 795 l 411 796 q 574 798 530 798 m 412 1106 q 401 1077 412 1091 q 372 1054 390 1063 q 336 1045 355 1045 q 306 1037 317 1045 q 296 1008 296 1028 q 308 977 296 989 q 342 964 321 964 q 428 990 382 964 q 507 1059 475 1017 q 538 1146 538 1101 q 523 1197 538 1171 q 484 1242 508 1223 q 438 1264 469 1254 q 376 1275 408 1275 q 323 1257 345 1275 q 301 1214 301 1239 q 309 1184 301 1196 q 329 1167 317 1173 q 361 1154 341 1161 q 400 1135 387 1144 q 412 1106 412 1126 z "},"Ē":{"ha":670,"x_min":104,"x_max":653,"o":"m 574 798 q 624 794 608 798 q 646 779 639 791 q 653 737 653 766 q 639 688 653 712 q 607 663 625 663 q 199 668 298 665 q 197 585 199 646 q 196 496 196 522 l 450 499 q 487 483 473 499 q 501 431 501 466 q 496 405 501 421 q 481 376 491 389 q 457 364 471 364 q 256 366 330 364 q 221 366 241 366 q 198 364 203 366 l 203 146 q 303 144 248 146 q 378 141 359 142 q 572 136 503 136 q 616 57 616 136 q 596 1 616 18 q 545 -16 576 -16 q 463 -10 517 -16 q 388 -4 424 -6 q 296 -1 353 -1 q 235 -5 271 -1 q 165 -8 180 -8 q 122 16 138 -8 q 106 79 106 40 l 111 380 q 107 401 111 389 q 105 413 106 404 q 104 429 104 421 q 112 467 104 446 q 109 686 109 571 q 111 746 109 722 q 126 788 114 770 q 163 806 138 806 q 187 804 174 806 q 203 801 199 802 q 249 795 232 795 l 411 796 q 574 798 530 798 m 545 1086 q 569 1083 561 1086 q 582 1066 578 1079 q 587 1029 587 1054 q 580 980 587 996 q 564 962 574 965 q 538 958 555 958 l 204 958 q 169 981 181 958 q 156 1030 156 1004 q 169 1074 156 1054 q 198 1093 182 1093 l 545 1086 z "},"Ę":{"ha":670,"x_min":104,"x_max":653,"o":"m 610 -156 q 630 -172 623 -156 q 637 -210 637 -188 q 603 -295 637 -273 q 515 -316 568 -316 q 436 -297 472 -316 q 379 -245 400 -279 q 358 -168 358 -211 q 377 -74 358 -112 q 429 -7 396 -35 q 296 -1 366 -1 q 235 -5 271 -1 q 165 -8 180 -8 q 122 16 138 -8 q 106 79 106 40 l 111 380 q 107 401 111 389 q 105 413 106 404 q 104 429 104 421 q 112 467 104 446 q 109 686 109 571 q 111 746 109 722 q 126 788 114 770 q 163 806 138 806 q 187 804 174 806 q 203 801 199 802 q 249 795 232 795 l 411 796 q 574 798 530 798 q 624 794 608 798 q 646 779 639 791 q 653 737 653 766 q 639 688 653 712 q 607 663 625 663 q 199 668 298 665 q 197 585 199 646 q 196 496 196 522 l 450 499 q 487 483 473 499 q 501 431 501 466 q 496 405 501 421 q 481 376 491 389 q 457 364 471 364 q 256 366 330 364 q 221 366 241 366 q 198 364 203 366 l 203 146 q 303 144 248 146 q 378 141 359 142 q 572 136 503 136 q 616 57 616 136 q 596 1 616 18 q 545 -16 576 -16 q 499 -44 517 -30 q 468 -82 481 -58 q 455 -141 455 -106 q 484 -183 464 -167 q 523 -199 503 -199 q 547 -193 537 -199 q 568 -177 557 -188 q 588 -161 578 -167 q 610 -156 597 -156 z "},"Ẽ":{"ha":670,"x_min":104,"x_max":653,"o":"m 574 798 q 624 794 608 798 q 646 779 639 791 q 653 737 653 766 q 639 688 653 712 q 607 663 625 663 q 199 668 298 665 q 197 585 199 646 q 196 496 196 522 l 450 499 q 487 483 473 499 q 501 431 501 466 q 496 405 501 421 q 481 376 491 389 q 457 364 471 364 q 256 366 330 364 q 221 366 241 366 q 198 364 203 366 l 203 146 q 303 144 248 146 q 378 141 359 142 q 572 136 503 136 q 616 57 616 136 q 596 1 616 18 q 545 -16 576 -16 q 463 -10 517 -16 q 388 -4 424 -6 q 296 -1 353 -1 q 235 -5 271 -1 q 165 -8 180 -8 q 122 16 138 -8 q 106 79 106 40 l 111 380 q 107 401 111 389 q 105 413 106 404 q 104 429 104 421 q 112 467 104 446 q 109 686 109 571 q 111 746 109 722 q 126 788 114 770 q 163 806 138 806 q 187 804 174 806 q 203 801 199 802 q 249 795 232 795 l 411 796 q 574 798 530 798 m 198 939 q 170 955 182 939 q 157 996 157 971 q 176 1064 157 1033 q 223 1112 194 1095 q 283 1130 252 1130 q 345 1115 319 1130 q 399 1073 370 1100 q 430 1047 418 1055 q 455 1039 442 1039 q 484 1047 473 1039 q 506 1072 494 1056 q 522 1092 515 1086 q 540 1098 529 1098 q 563 1085 555 1098 q 571 1053 571 1072 q 557 989 571 1021 q 517 936 544 957 q 455 916 491 916 q 411 929 433 916 q 359 968 389 943 q 315 1002 332 991 q 281 1013 298 1013 q 250 1001 262 1013 q 225 967 238 989 q 211 946 216 953 q 198 939 205 939 z "},"F":{"ha":658,"x_min":94,"x_max":646,"o":"m 519 808 q 576 815 556 815 q 608 802 591 815 q 635 768 624 788 q 646 728 646 747 q 634 676 646 694 q 596 658 623 658 q 511 677 586 658 q 462 673 506 677 q 252 669 418 669 q 205 673 212 669 q 198 481 199 609 q 229 478 199 478 q 282 480 252 478 q 323 485 313 482 l 450 504 q 491 511 470 511 q 531 444 531 511 q 523 397 531 412 q 499 377 514 382 q 451 368 484 372 l 435 366 l 294 349 q 250 344 282 348 q 199 340 217 340 l 201 90 q 155 -5 201 -5 q 108 20 121 -5 q 94 91 94 45 q 99 148 94 113 q 102 178 102 170 l 109 658 q 120 769 109 716 q 165 821 132 821 q 217 814 182 821 q 269 808 252 808 l 519 808 z "},"Ḟ":{"ha":658,"x_min":94,"x_max":646,"o":"m 519 808 q 576 815 556 815 q 608 802 591 815 q 635 768 624 788 q 646 728 646 747 q 634 676 646 694 q 596 658 623 658 q 511 677 586 658 q 462 673 506 677 q 252 669 418 669 q 205 673 212 669 q 198 481 199 609 q 229 478 199 478 q 282 480 252 478 q 323 485 313 482 l 450 504 q 491 511 470 511 q 531 444 531 511 q 523 397 531 412 q 499 377 514 382 q 451 368 484 372 l 435 366 l 294 349 q 250 344 282 348 q 199 340 217 340 l 201 90 q 155 -5 201 -5 q 108 20 121 -5 q 94 91 94 45 q 99 148 94 113 q 102 178 102 170 l 109 658 q 120 769 109 716 q 165 821 132 821 q 217 814 182 821 q 269 808 252 808 l 519 808 m 395 1152 q 444 1134 422 1152 q 465 1074 465 1117 q 448 1010 465 1032 q 401 989 432 989 q 350 1006 374 989 q 327 1066 327 1023 q 337 1106 327 1086 q 364 1139 348 1126 q 395 1152 380 1152 z "},"G":{"ha":745,"x_min":90,"x_max":682,"o":"m 633 450 q 666 429 651 450 q 682 383 682 407 q 656 319 682 334 q 655 250 656 295 q 653 180 653 216 q 656 81 653 135 q 652 24 656 43 q 640 -1 647 5 q 619 -7 632 -7 q 596 2 606 -7 q 580 22 587 12 q 569 39 573 33 q 490 7 536 22 q 401 -8 444 -8 q 168 94 246 -8 q 90 387 90 195 q 132 571 90 464 q 251 756 175 678 q 425 835 328 835 q 534 813 484 835 q 615 751 585 791 q 646 656 646 710 q 637 594 646 614 q 613 574 629 574 q 602 583 609 574 q 589 604 595 593 q 569 632 575 627 q 418 705 499 705 q 307 652 363 705 q 215 519 251 598 q 178 369 178 439 q 209 229 178 285 q 293 146 239 173 q 417 119 347 119 q 510 130 478 119 q 553 162 542 140 q 565 223 565 184 l 565 305 q 467 300 528 300 q 436 310 452 300 q 409 336 420 319 q 399 375 399 353 q 417 428 399 413 q 464 442 435 442 q 526 439 485 442 q 578 444 544 439 q 633 450 611 450 z "},"Ğ":{"ha":745,"x_min":90,"x_max":682,"o":"m 633 450 q 666 429 651 450 q 682 383 682 407 q 656 319 682 334 q 655 250 656 295 q 653 180 653 216 q 656 81 653 135 q 652 24 656 43 q 640 -1 647 5 q 619 -7 632 -7 q 596 2 606 -7 q 580 22 587 12 q 569 39 573 33 q 490 7 536 22 q 401 -8 444 -8 q 168 94 246 -8 q 90 387 90 195 q 132 571 90 464 q 251 756 175 678 q 425 835 328 835 q 534 813 484 835 q 615 751 585 791 q 646 656 646 710 q 637 594 646 614 q 613 574 629 574 q 602 583 609 574 q 589 604 595 593 q 569 632 575 627 q 418 705 499 705 q 307 652 363 705 q 215 519 251 598 q 178 369 178 439 q 209 229 178 285 q 293 146 239 173 q 417 119 347 119 q 510 130 478 119 q 553 162 542 140 q 565 223 565 184 l 565 305 q 467 300 528 300 q 436 310 452 300 q 409 336 420 319 q 399 375 399 353 q 417 428 399 413 q 464 442 435 442 q 526 439 485 442 q 578 444 544 439 q 633 450 611 450 m 236 1143 q 252 1202 236 1185 q 286 1219 268 1219 q 316 1207 309 1219 q 328 1167 324 1194 q 339 1123 332 1140 q 370 1093 347 1105 q 439 1080 393 1080 q 519 1099 484 1080 q 553 1160 553 1118 q 570 1206 553 1192 q 604 1221 586 1221 q 635 1203 621 1221 q 648 1152 648 1185 q 623 1056 648 1101 q 550 985 597 1012 q 444 958 503 958 q 295 1001 353 958 q 236 1143 236 1044 z "},"Ǧ":{"ha":745,"x_min":90,"x_max":686,"o":"m 633 450 q 666 429 651 450 q 682 383 682 407 q 656 319 682 334 q 655 250 656 295 q 653 180 653 216 q 656 81 653 135 q 652 24 656 43 q 640 -1 647 5 q 619 -7 632 -7 q 596 2 606 -7 q 580 22 587 12 q 569 39 573 33 q 490 7 536 22 q 401 -8 444 -8 q 168 94 246 -8 q 90 387 90 195 q 132 571 90 464 q 251 756 175 678 q 425 835 328 835 q 534 813 484 835 q 615 751 585 791 q 646 656 646 710 q 637 594 646 614 q 613 574 629 574 q 602 583 609 574 q 589 604 595 593 q 569 632 575 627 q 418 705 499 705 q 307 652 363 705 q 215 519 251 598 q 178 369 178 439 q 209 229 178 285 q 293 146 239 173 q 417 119 347 119 q 510 130 478 119 q 553 162 542 140 q 565 223 565 184 l 565 305 q 467 300 528 300 q 436 310 452 300 q 409 336 420 319 q 399 375 399 353 q 417 428 399 413 q 464 442 435 442 q 526 439 485 442 q 578 444 544 439 q 633 450 611 450 m 432 1044 q 498 1108 460 1079 q 575 1153 536 1137 q 643 1169 613 1169 q 672 1151 659 1169 q 686 1110 686 1133 q 673 1062 686 1084 q 643 1039 659 1040 q 591 1021 619 1036 q 522 981 563 1006 q 464 948 484 958 q 431 938 444 938 q 410 942 419 939 q 391 953 400 945 q 271 1025 340 1003 q 240 1039 251 1033 q 223 1055 230 1044 q 216 1080 216 1065 q 223 1123 216 1104 q 240 1152 230 1141 q 260 1162 250 1162 q 345 1125 294 1162 q 432 1044 395 1088 z "},"Ĝ":{"ha":745,"x_min":90,"x_max":682,"o":"m 633 450 q 666 429 651 450 q 682 383 682 407 q 656 319 682 334 q 655 250 656 295 q 653 180 653 216 q 656 81 653 135 q 652 24 656 43 q 640 -1 647 5 q 619 -7 632 -7 q 596 2 606 -7 q 580 22 587 12 q 569 39 573 33 q 490 7 536 22 q 401 -8 444 -8 q 168 94 246 -8 q 90 387 90 195 q 132 571 90 464 q 251 756 175 678 q 425 835 328 835 q 534 813 484 835 q 615 751 585 791 q 646 656 646 710 q 637 594 646 614 q 613 574 629 574 q 602 583 609 574 q 589 604 595 593 q 569 632 575 627 q 418 705 499 705 q 307 652 363 705 q 215 519 251 598 q 178 369 178 439 q 209 229 178 285 q 293 146 239 173 q 417 119 347 119 q 510 130 478 119 q 553 162 542 140 q 565 223 565 184 l 565 305 q 467 300 528 300 q 436 310 452 300 q 409 336 420 319 q 399 375 399 353 q 417 428 399 413 q 464 442 435 442 q 526 439 485 442 q 578 444 544 439 q 633 450 611 450 m 438 1078 q 372 1015 410 1043 q 296 969 334 986 q 228 953 258 953 q 198 971 212 953 q 184 1013 184 989 q 198 1061 184 1040 q 228 1084 212 1082 q 279 1101 252 1087 q 348 1141 307 1116 q 406 1174 385 1164 q 440 1185 427 1185 q 480 1169 463 1183 q 602 1097 531 1118 q 631 1083 621 1088 q 648 1068 641 1078 q 655 1043 655 1058 q 648 1000 655 1019 q 630 970 641 981 q 610 960 620 960 q 526 997 576 960 q 438 1078 475 1034 z "},"Ģ":{"ha":745,"x_min":90,"x_max":682,"o":"m 633 450 q 666 429 651 450 q 682 383 682 407 q 656 319 682 334 q 655 250 656 295 q 653 180 653 216 q 656 81 653 135 q 652 24 656 43 q 640 -1 647 5 q 619 -7 632 -7 q 596 2 606 -7 q 580 22 587 12 q 569 39 573 33 q 490 7 536 22 q 401 -8 444 -8 q 168 94 246 -8 q 90 387 90 195 q 132 571 90 464 q 251 756 175 678 q 425 835 328 835 q 534 813 484 835 q 615 751 585 791 q 646 656 646 710 q 637 594 646 614 q 613 574 629 574 q 602 583 609 574 q 589 604 595 593 q 569 632 575 627 q 418 705 499 705 q 307 652 363 705 q 215 519 251 598 q 178 369 178 439 q 209 229 178 285 q 293 146 239 173 q 417 119 347 119 q 510 130 478 119 q 553 162 542 140 q 565 223 565 184 l 565 305 q 467 300 528 300 q 436 310 452 300 q 409 336 420 319 q 399 375 399 353 q 417 428 399 413 q 464 442 435 442 q 526 439 485 442 q 578 444 544 439 q 633 450 611 450 m 307 -216 q 323 -179 313 -205 q 344 -136 335 -152 q 368 -109 353 -120 q 406 -98 383 -98 q 441 -109 425 -98 q 467 -137 457 -120 q 477 -172 477 -155 q 448 -244 477 -199 q 380 -325 418 -290 q 319 -360 342 -360 q 282 -346 298 -360 q 267 -309 267 -332 q 273 -276 267 -290 q 292 -242 279 -261 q 307 -216 301 -227 z "},"Ġ":{"ha":745,"x_min":90,"x_max":682,"o":"m 633 450 q 666 429 651 450 q 682 383 682 407 q 656 319 682 334 q 655 250 656 295 q 653 180 653 216 q 656 81 653 135 q 652 24 656 43 q 640 -1 647 5 q 619 -7 632 -7 q 596 2 606 -7 q 580 22 587 12 q 569 39 573 33 q 490 7 536 22 q 401 -8 444 -8 q 168 94 246 -8 q 90 387 90 195 q 132 571 90 464 q 251 756 175 678 q 425 835 328 835 q 534 813 484 835 q 615 751 585 791 q 646 656 646 710 q 637 594 646 614 q 613 574 629 574 q 602 583 609 574 q 589 604 595 593 q 569 632 575 627 q 418 705 499 705 q 307 652 363 705 q 215 519 251 598 q 178 369 178 439 q 209 229 178 285 q 293 146 239 173 q 417 119 347 119 q 510 130 478 119 q 553 162 542 140 q 565 223 565 184 l 565 305 q 467 300 528 300 q 436 310 452 300 q 409 336 420 319 q 399 375 399 353 q 417 428 399 413 q 464 442 435 442 q 526 439 485 442 q 578 444 544 439 q 633 450 611 450 m 437 1152 q 486 1134 465 1152 q 507 1074 507 1117 q 491 1010 507 1032 q 444 989 475 989 q 393 1006 416 989 q 370 1066 370 1023 q 380 1106 370 1086 q 407 1139 391 1126 q 437 1152 422 1152 z "},"Ḡ":{"ha":745,"x_min":90,"x_max":682,"o":"m 633 450 q 666 429 651 450 q 682 383 682 407 q 656 319 682 334 q 655 250 656 295 q 653 180 653 216 q 656 81 653 135 q 652 24 656 43 q 640 -1 647 5 q 619 -7 632 -7 q 596 2 606 -7 q 580 22 587 12 q 569 39 573 33 q 490 7 536 22 q 401 -8 444 -8 q 168 94 246 -8 q 90 387 90 195 q 132 571 90 464 q 251 756 175 678 q 425 835 328 835 q 534 813 484 835 q 615 751 585 791 q 646 656 646 710 q 637 594 646 614 q 613 574 629 574 q 602 583 609 574 q 589 604 595 593 q 569 632 575 627 q 418 705 499 705 q 307 652 363 705 q 215 519 251 598 q 178 369 178 439 q 209 229 178 285 q 293 146 239 173 q 417 119 347 119 q 510 130 478 119 q 553 162 542 140 q 565 223 565 184 l 565 305 q 467 300 528 300 q 436 310 452 300 q 409 336 420 319 q 399 375 399 353 q 417 428 399 413 q 464 442 435 442 q 526 439 485 442 q 578 444 544 439 q 633 450 611 450 m 612 1086 q 636 1083 627 1086 q 649 1066 644 1079 q 653 1029 653 1054 q 647 980 653 996 q 631 962 640 965 q 605 958 621 958 l 271 958 q 235 981 248 958 q 222 1030 222 1004 q 236 1074 222 1054 q 264 1093 249 1093 l 612 1086 z "},"H":{"ha":755,"x_min":109,"x_max":656,"o":"m 211 47 q 200 21 210 33 q 177 1 191 8 q 155 -7 164 -7 q 118 21 127 -7 q 109 99 109 48 q 111 237 109 115 q 112 328 112 304 q 111 477 112 383 l 110 591 q 120 768 110 711 q 161 825 131 825 q 182 811 172 825 q 201 778 193 798 q 208 741 208 758 l 208 606 q 207 472 207 560 l 552 472 q 549 728 549 677 q 559 803 551 777 q 593 828 568 828 q 635 796 624 828 q 646 695 646 764 q 645 673 646 683 q 644 605 645 658 q 644 467 644 553 q 652 443 648 457 q 656 414 656 429 l 648 369 q 653 64 653 207 q 639 13 653 33 q 603 -8 625 -8 q 562 14 574 -8 q 551 92 550 35 l 555 340 l 417 340 q 284 338 327 340 q 207 334 241 337 q 210 73 210 71 l 211 47 z "},"Ħ":{"ha":827,"x_min":33,"x_max":783,"o":"m 741 677 q 771 660 759 677 q 783 608 783 643 q 772 558 783 570 q 745 545 762 545 l 684 545 l 684 467 q 697 414 694 439 l 687 369 q 692 64 692 207 q 679 13 692 33 q 642 -8 665 -8 q 603 14 614 -8 q 591 92 591 35 l 595 266 l 457 266 q 320 264 361 266 q 247 259 279 263 q 250 65 249 80 q 252 47 252 50 q 241 21 251 33 q 217 1 231 8 q 195 -7 204 -7 q 158 20 168 -7 q 149 99 149 47 q 151 237 149 156 l 151 328 q 150 488 151 389 l 149 545 l 81 545 q 45 568 58 545 q 33 615 33 590 q 47 654 33 640 q 76 670 60 669 l 151 672 q 165 786 153 748 q 201 825 176 825 q 222 811 211 825 q 241 778 233 798 q 249 741 249 758 l 249 673 l 589 676 l 589 728 q 600 803 591 777 q 633 828 608 828 q 674 797 664 828 q 684 695 684 766 l 684 677 l 741 677 m 590 545 l 248 545 l 247 399 l 593 399 l 590 545 z "},"Ḫ":{"ha":755,"x_min":109,"x_max":656,"o":"m 211 47 q 200 21 210 33 q 177 1 191 8 q 155 -7 164 -7 q 118 21 127 -7 q 109 99 109 48 q 111 237 109 115 q 112 328 112 304 q 111 477 112 383 l 110 591 q 120 768 110 711 q 161 825 131 825 q 182 811 172 825 q 201 778 193 798 q 208 741 208 758 l 208 606 q 207 472 207 560 l 552 472 q 549 728 549 677 q 559 803 551 777 q 593 828 568 828 q 635 796 624 828 q 646 695 646 764 q 645 673 646 683 q 644 605 645 658 q 644 467 644 553 q 652 443 648 457 q 656 414 656 429 l 648 369 q 653 64 653 207 q 639 13 653 33 q 603 -8 625 -8 q 562 14 574 -8 q 551 92 550 35 l 555 340 l 417 340 q 284 338 327 340 q 207 334 241 337 q 210 73 210 71 l 211 47 m 182 -172 q 198 -112 182 -130 q 231 -95 214 -95 q 262 -104 254 -95 q 274 -132 270 -113 q 285 -163 277 -151 q 316 -184 292 -175 q 385 -193 339 -193 q 464 -183 429 -193 q 499 -155 499 -174 q 515 -108 499 -122 q 549 -94 532 -94 q 581 -112 567 -94 q 594 -161 594 -129 q 568 -237 594 -202 q 496 -293 543 -272 q 390 -313 450 -313 q 241 -280 300 -313 q 182 -172 182 -247 z "},"Ĥ":{"ha":755,"x_min":109,"x_max":656,"o":"m 211 47 q 200 21 210 33 q 177 1 191 8 q 155 -7 164 -7 q 118 21 127 -7 q 109 99 109 48 q 111 237 109 115 q 112 328 112 304 q 111 477 112 383 l 110 591 q 120 768 110 711 q 161 825 131 825 q 182 811 172 825 q 201 778 193 798 q 208 741 208 758 l 208 606 q 207 472 207 560 l 552 472 q 549 728 549 677 q 559 803 551 777 q 593 828 568 828 q 635 796 624 828 q 646 695 646 764 q 645 673 646 683 q 644 605 645 658 q 644 467 644 553 q 652 443 648 457 q 656 414 656 429 l 648 369 q 653 64 653 207 q 639 13 653 33 q 603 -8 625 -8 q 562 14 574 -8 q 551 92 550 35 l 555 340 l 417 340 q 284 338 327 340 q 207 334 241 337 q 210 73 210 71 l 211 47 m 405 1078 q 339 1015 376 1043 q 263 969 301 986 q 195 953 224 953 q 165 971 179 953 q 151 1013 151 989 q 165 1061 151 1040 q 195 1084 178 1082 q 246 1101 218 1087 q 315 1141 273 1116 q 373 1174 352 1164 q 407 1185 393 1185 q 447 1169 429 1183 q 569 1097 498 1118 q 598 1083 588 1088 q 615 1068 608 1078 q 622 1043 622 1058 q 615 1000 622 1019 q 597 970 608 981 q 576 960 587 960 q 492 997 543 960 q 405 1078 441 1034 z "},"Ḥ":{"ha":755,"x_min":109,"x_max":656,"o":"m 211 47 q 200 21 210 33 q 177 1 191 8 q 155 -7 164 -7 q 118 21 127 -7 q 109 99 109 48 q 111 237 109 115 q 112 328 112 304 q 111 477 112 383 l 110 591 q 120 768 110 711 q 161 825 131 825 q 182 811 172 825 q 201 778 193 798 q 208 741 208 758 l 208 606 q 207 472 207 560 l 552 472 q 549 728 549 677 q 559 803 551 777 q 593 828 568 828 q 635 796 624 828 q 646 695 646 764 q 645 673 646 683 q 644 605 645 658 q 644 467 644 553 q 652 443 648 457 q 656 414 656 429 l 648 369 q 653 64 653 207 q 639 13 653 33 q 603 -8 625 -8 q 562 14 574 -8 q 551 92 550 35 l 555 340 l 417 340 q 284 338 327 340 q 207 334 241 337 q 210 73 210 71 l 211 47 m 450 -230 q 387 -315 450 -315 q 335 -299 359 -315 q 311 -241 311 -283 q 322 -199 311 -220 q 350 -165 333 -178 q 382 -151 366 -151 q 430 -169 410 -151 q 450 -230 450 -187 z "},"I":{"ha":458,"x_min":71,"x_max":437,"o":"m 286 680 q 271 305 271 532 q 279 134 271 208 l 329 135 q 357 136 338 136 q 379 106 371 125 q 387 62 387 87 q 378 30 387 44 q 357 8 370 16 q 332 0 344 0 l 161 0 q 125 6 146 0 q 87 27 104 12 q 71 66 71 42 q 85 119 71 96 q 120 142 100 142 l 176 138 l 176 168 q 182 421 176 265 q 195 669 188 576 l 157 669 q 124 672 138 669 q 102 689 111 675 q 92 730 92 702 l 92 732 q 110 790 92 773 q 172 808 127 808 l 324 808 q 359 814 333 808 q 387 818 382 818 q 409 806 397 818 q 429 778 420 793 q 437 751 437 762 q 425 706 437 724 q 396 677 413 687 q 364 668 378 668 q 351 674 359 668 q 334 680 342 680 l 286 680 z "},"Ĳ":{"ha":660,"x_min":81,"x_max":591,"o":"m 203 341 q 189 292 203 310 q 155 274 175 274 q 96 323 111 274 q 81 448 81 372 q 87 698 82 621 q 106 800 93 774 q 151 825 120 825 l 163 825 q 192 806 184 823 q 199 759 199 789 l 188 627 q 182 541 182 557 q 186 478 182 509 q 192 443 191 448 q 200 390 197 412 q 203 341 203 367 m 106 96 q 114 135 106 115 q 134 168 121 155 q 165 182 148 182 q 183 170 170 182 q 201 148 196 157 q 235 132 207 136 q 296 127 264 127 q 382 146 339 127 q 453 198 425 165 q 481 265 481 230 q 483 485 481 334 q 485 720 485 602 q 502 789 485 759 q 549 820 518 820 q 591 661 591 820 l 591 635 l 587 455 q 559 168 585 214 q 438 31 507 74 q 279 -12 368 -12 q 205 -3 245 -12 q 136 31 166 6 q 106 96 106 55 z "},"Í":{"ha":458,"x_min":71,"x_max":456,"o":"m 286 680 q 271 305 271 532 q 279 134 271 208 l 329 135 q 357 136 338 136 q 379 106 371 125 q 387 62 387 87 q 378 30 387 44 q 357 8 370 16 q 332 0 344 0 l 161 0 q 125 6 146 0 q 87 27 104 12 q 71 66 71 42 q 85 119 71 96 q 120 142 100 142 l 176 138 l 176 168 q 182 421 176 265 q 195 669 188 576 l 157 669 q 124 672 138 669 q 102 689 111 675 q 92 730 92 702 l 92 732 q 110 790 92 773 q 172 808 127 808 l 324 808 q 359 814 333 808 q 387 818 382 818 q 409 806 397 818 q 429 778 420 793 q 437 751 437 762 q 425 706 437 724 q 396 677 413 687 q 364 668 378 668 q 351 674 359 668 q 334 680 342 680 l 286 680 m 174 984 q 186 1023 174 1006 q 220 1053 199 1039 q 283 1096 252 1073 q 359 1146 331 1129 q 407 1162 388 1162 q 443 1149 429 1162 q 456 1105 456 1135 q 405 1028 456 1066 q 290 965 354 990 q 201 939 226 939 q 193 942 201 938 q 180 955 186 945 q 174 984 174 965 z "},"Ĭ":{"ha":458,"x_min":54,"x_max":467,"o":"m 286 680 q 271 305 271 532 q 279 134 271 208 l 329 135 q 357 136 338 136 q 379 106 371 125 q 387 62 387 87 q 378 30 387 44 q 357 8 370 16 q 332 0 344 0 l 161 0 q 125 6 146 0 q 87 27 104 12 q 71 66 71 42 q 85 119 71 96 q 120 142 100 142 l 176 138 l 176 168 q 182 421 176 265 q 195 669 188 576 l 157 669 q 124 672 138 669 q 102 689 111 675 q 92 730 92 702 l 92 732 q 110 790 92 773 q 172 808 127 808 l 324 808 q 359 814 333 808 q 387 818 382 818 q 409 806 397 818 q 429 778 420 793 q 437 751 437 762 q 425 706 437 724 q 396 677 413 687 q 364 668 378 668 q 351 674 359 668 q 334 680 342 680 l 286 680 m 54 1156 q 70 1214 54 1197 q 104 1232 86 1232 q 135 1219 127 1232 q 146 1179 142 1206 q 157 1135 150 1152 q 188 1105 165 1118 q 257 1093 212 1093 q 337 1111 302 1093 q 372 1172 372 1130 q 388 1219 372 1204 q 422 1233 404 1233 q 453 1215 439 1233 q 467 1164 467 1198 q 441 1068 467 1113 q 368 997 415 1024 q 262 970 321 970 q 113 1013 172 970 q 54 1156 54 1056 z "},"Ǐ":{"ha":458,"x_min":34,"x_max":505,"o":"m 286 680 q 271 305 271 532 q 279 134 271 208 l 329 135 q 357 136 338 136 q 379 106 371 125 q 387 62 387 87 q 378 30 387 44 q 357 8 370 16 q 332 0 344 0 l 161 0 q 125 6 146 0 q 87 27 104 12 q 71 66 71 42 q 85 119 71 96 q 120 142 100 142 l 176 138 l 176 168 q 182 421 176 265 q 195 669 188 576 l 157 669 q 124 672 138 669 q 102 689 111 675 q 92 730 92 702 l 92 732 q 110 790 92 773 q 172 808 127 808 l 324 808 q 359 814 333 808 q 387 818 382 818 q 409 806 397 818 q 429 778 420 793 q 437 751 437 762 q 425 706 437 724 q 396 677 413 687 q 364 668 378 668 q 351 674 359 668 q 334 680 342 680 l 286 680 m 250 1056 q 317 1120 279 1091 q 393 1165 355 1149 q 461 1181 431 1181 q 491 1163 477 1181 q 505 1122 505 1145 q 491 1074 505 1096 q 461 1051 477 1053 q 409 1033 437 1048 q 340 994 381 1019 q 282 960 302 970 q 249 950 262 950 q 228 955 237 951 q 209 965 218 958 q 89 1038 159 1015 q 59 1051 69 1045 q 41 1067 48 1057 q 34 1093 34 1077 q 41 1135 34 1116 q 58 1164 48 1154 q 79 1175 68 1175 q 163 1138 112 1175 q 250 1056 214 1101 z "},"Î":{"ha":458,"x_min":3,"x_max":473,"o":"m 286 680 q 271 305 271 532 q 279 134 271 208 l 329 135 q 357 136 338 136 q 379 106 371 125 q 387 62 387 87 q 378 30 387 44 q 357 8 370 16 q 332 0 344 0 l 161 0 q 125 6 146 0 q 87 27 104 12 q 71 66 71 42 q 85 119 71 96 q 120 142 100 142 l 176 138 l 176 168 q 182 421 176 265 q 195 669 188 576 l 157 669 q 124 672 138 669 q 102 689 111 675 q 92 730 92 702 l 92 732 q 110 790 92 773 q 172 808 127 808 l 324 808 q 359 814 333 808 q 387 818 382 818 q 409 806 397 818 q 429 778 420 793 q 437 751 437 762 q 425 706 437 724 q 396 677 413 687 q 364 668 378 668 q 351 674 359 668 q 334 680 342 680 l 286 680 m 256 1090 q 190 1027 228 1055 q 114 982 153 998 q 46 965 76 965 q 17 983 31 965 q 3 1025 3 1001 q 16 1073 3 1052 q 46 1096 30 1094 q 97 1114 70 1099 q 166 1154 125 1128 q 224 1186 203 1176 q 258 1197 245 1197 q 298 1181 281 1196 q 420 1109 349 1130 q 449 1095 439 1101 q 466 1080 459 1090 q 473 1055 473 1070 q 466 1012 473 1031 q 449 982 459 993 q 428 972 438 972 q 344 1009 395 972 q 256 1090 293 1046 z "},"Ï":{"ha":458,"x_min":71,"x_max":446,"o":"m 286 680 q 271 305 271 532 q 279 134 271 208 l 329 135 q 357 136 338 136 q 379 106 371 125 q 387 62 387 87 q 378 30 387 44 q 357 8 370 16 q 332 0 344 0 l 161 0 q 125 6 146 0 q 87 27 104 12 q 71 66 71 42 q 85 119 71 96 q 120 142 100 142 l 176 138 l 176 168 q 182 421 176 265 q 195 669 188 576 l 157 669 q 124 672 138 669 q 102 689 111 675 q 92 730 92 702 l 92 732 q 110 790 92 773 q 172 808 127 808 l 324 808 q 359 814 333 808 q 387 818 382 818 q 409 806 397 818 q 429 778 420 793 q 437 751 437 762 q 425 706 437 724 q 396 677 413 687 q 364 668 378 668 q 351 674 359 668 q 334 680 342 680 l 286 680 m 158 1135 q 189 1112 176 1135 q 202 1048 202 1090 q 193 987 202 1013 q 169 950 183 962 q 144 938 155 938 q 94 963 110 938 q 79 1038 79 989 q 93 1084 79 1062 q 125 1121 106 1107 q 158 1135 144 1135 m 446 1031 q 436 989 446 1010 q 411 952 426 967 q 382 938 395 938 q 337 962 355 938 q 320 1025 320 987 q 330 1076 320 1050 q 356 1117 339 1101 q 392 1133 372 1133 q 433 1101 420 1133 q 446 1031 446 1068 z "},"İ":{"ha":458,"x_min":71,"x_max":437,"o":"m 286 680 q 271 305 271 532 q 279 134 271 208 l 329 135 q 357 136 338 136 q 379 106 371 125 q 387 62 387 87 q 378 30 387 44 q 357 8 370 16 q 332 0 344 0 l 161 0 q 125 6 146 0 q 87 27 104 12 q 71 66 71 42 q 85 119 71 96 q 120 142 100 142 l 176 138 l 176 168 q 182 421 176 265 q 195 669 188 576 l 157 669 q 124 672 138 669 q 102 689 111 675 q 92 730 92 702 l 92 732 q 110 790 92 773 q 172 808 127 808 l 324 808 q 359 814 333 808 q 387 818 382 818 q 409 806 397 818 q 429 778 420 793 q 437 751 437 762 q 425 706 437 724 q 396 677 413 687 q 364 668 378 668 q 351 674 359 668 q 334 680 342 680 l 286 680 m 256 1164 q 304 1146 283 1164 q 326 1086 326 1129 q 309 1023 326 1044 q 262 1001 293 1001 q 211 1018 235 1001 q 188 1078 188 1036 q 198 1118 188 1098 q 225 1151 209 1138 q 256 1164 241 1164 z "},"Ị":{"ha":458,"x_min":71,"x_max":437,"o":"m 286 680 q 271 305 271 532 q 279 134 271 208 l 329 135 q 357 136 338 136 q 379 106 371 125 q 387 62 387 87 q 378 30 387 44 q 357 8 370 16 q 332 0 344 0 l 161 0 q 125 6 146 0 q 87 27 104 12 q 71 66 71 42 q 85 119 71 96 q 120 142 100 142 l 176 138 l 176 168 q 182 421 176 265 q 195 669 188 576 l 157 669 q 124 672 138 669 q 102 689 111 675 q 92 730 92 702 l 92 732 q 110 790 92 773 q 172 808 127 808 l 324 808 q 359 814 333 808 q 387 818 382 818 q 409 806 397 818 q 429 778 420 793 q 437 751 437 762 q 425 706 437 724 q 396 677 413 687 q 364 668 378 668 q 351 674 359 668 q 334 680 342 680 l 286 680 m 322 -230 q 259 -315 322 -315 q 207 -299 231 -315 q 183 -241 183 -283 q 194 -199 183 -220 q 221 -165 205 -178 q 254 -151 238 -151 q 302 -169 281 -151 q 322 -230 322 -187 z "},"Ì":{"ha":458,"x_min":71,"x_max":437,"o":"m 286 680 q 271 305 271 532 q 279 134 271 208 l 329 135 q 357 136 338 136 q 379 106 371 125 q 387 62 387 87 q 378 30 387 44 q 357 8 370 16 q 332 0 344 0 l 161 0 q 125 6 146 0 q 87 27 104 12 q 71 66 71 42 q 85 119 71 96 q 120 142 100 142 l 176 138 l 176 168 q 182 421 176 265 q 195 669 188 576 l 157 669 q 124 672 138 669 q 102 689 111 675 q 92 730 92 702 l 92 732 q 110 790 92 773 q 172 808 127 808 l 324 808 q 359 814 333 808 q 387 818 382 818 q 409 806 397 818 q 429 778 420 793 q 437 751 437 762 q 425 706 437 724 q 396 677 413 687 q 364 668 378 668 q 351 674 359 668 q 334 680 342 680 l 286 680 m 122 1105 q 136 1149 122 1135 q 174 1162 150 1162 q 221 1145 193 1162 q 294 1097 250 1128 q 359 1053 339 1065 q 394 1023 381 1039 q 407 984 407 1006 q 400 955 407 965 q 386 942 394 945 q 378 939 378 938 q 289 965 353 939 q 173 1028 224 990 q 122 1105 122 1066 z "},"Ỉ":{"ha":458,"x_min":71,"x_max":437,"o":"m 286 680 q 271 305 271 532 q 279 134 271 208 l 329 135 q 357 136 338 136 q 379 106 371 125 q 387 62 387 87 q 378 30 387 44 q 357 8 370 16 q 332 0 344 0 l 161 0 q 125 6 146 0 q 87 27 104 12 q 71 66 71 42 q 85 119 71 96 q 120 142 100 142 l 176 138 l 176 168 q 182 421 176 265 q 195 669 188 576 l 157 669 q 124 672 138 669 q 102 689 111 675 q 92 730 92 702 l 92 732 q 110 790 92 773 q 172 808 127 808 l 324 808 q 359 814 333 808 q 387 818 382 818 q 409 806 397 818 q 429 778 420 793 q 437 751 437 762 q 425 706 437 724 q 396 677 413 687 q 364 668 378 668 q 351 674 359 668 q 334 680 342 680 l 286 680 m 297 1118 q 286 1089 297 1103 q 257 1066 275 1075 q 221 1057 239 1057 q 191 1049 201 1057 q 180 1021 180 1040 q 193 989 180 1001 q 227 977 205 977 q 313 1003 267 977 q 391 1071 359 1029 q 423 1158 423 1113 q 408 1209 423 1183 q 368 1254 393 1235 q 323 1277 353 1266 q 260 1287 292 1287 q 208 1269 230 1287 q 186 1226 186 1251 q 194 1197 186 1208 q 214 1179 202 1185 q 245 1166 226 1173 q 284 1147 272 1156 q 297 1118 297 1138 z "},"Ī":{"ha":458,"x_min":41,"x_max":471,"o":"m 286 680 q 271 305 271 532 q 279 134 271 208 l 329 135 q 357 136 338 136 q 379 106 371 125 q 387 62 387 87 q 378 30 387 44 q 357 8 370 16 q 332 0 344 0 l 161 0 q 125 6 146 0 q 87 27 104 12 q 71 66 71 42 q 85 119 71 96 q 120 142 100 142 l 176 138 l 176 168 q 182 421 176 265 q 195 669 188 576 l 157 669 q 124 672 138 669 q 102 689 111 675 q 92 730 92 702 l 92 732 q 110 790 92 773 q 172 808 127 808 l 324 808 q 359 814 333 808 q 387 818 382 818 q 409 806 397 818 q 429 778 420 793 q 437 751 437 762 q 425 706 437 724 q 396 677 413 687 q 364 668 378 668 q 351 674 359 668 q 334 680 342 680 l 286 680 m 430 1099 q 454 1095 446 1099 q 467 1079 463 1091 q 471 1041 471 1066 q 465 992 471 1008 q 449 974 458 977 q 423 970 439 970 l 89 970 q 53 993 66 970 q 41 1042 41 1016 q 54 1086 41 1066 q 83 1105 67 1105 l 430 1099 z "},"Į":{"ha":458,"x_min":71,"x_max":437,"o":"m 286 680 q 271 305 271 532 q 279 134 271 208 l 329 135 q 357 136 338 136 q 379 106 371 125 q 387 62 387 87 q 381 36 387 48 q 363 11 376 22 q 323 -13 349 1 q 275 -42 294 -28 q 242 -81 256 -56 q 229 -141 229 -105 q 256 -183 237 -167 q 296 -199 276 -199 q 319 -193 310 -199 q 340 -177 329 -188 q 360 -161 352 -166 q 382 -156 369 -156 q 402 -172 395 -156 q 410 -210 410 -189 q 375 -295 410 -273 q 287 -316 340 -316 q 208 -297 243 -316 q 152 -245 172 -279 q 131 -168 131 -211 q 152 -68 131 -109 q 209 0 173 -28 l 161 0 q 125 6 146 0 q 87 27 104 12 q 71 66 71 42 q 85 119 71 96 q 120 142 100 142 l 176 138 l 176 168 q 182 421 176 265 q 195 669 188 576 l 157 669 q 124 672 138 669 q 102 689 111 675 q 92 730 92 702 l 92 732 q 110 790 92 773 q 172 808 127 808 l 324 808 q 359 814 333 808 q 387 818 382 818 q 409 806 397 818 q 429 778 420 793 q 437 751 437 762 q 425 706 437 724 q 396 677 413 687 q 364 668 378 668 q 351 674 359 668 q 334 680 342 680 l 286 680 z "},"Ĩ":{"ha":458,"x_min":42,"x_max":456,"o":"m 286 680 q 271 305 271 532 q 279 134 271 208 l 329 135 q 357 136 338 136 q 379 106 371 125 q 387 62 387 87 q 378 30 387 44 q 357 8 370 16 q 332 0 344 0 l 161 0 q 125 6 146 0 q 87 27 104 12 q 71 66 71 42 q 85 119 71 96 q 120 142 100 142 l 176 138 l 176 168 q 182 421 176 265 q 195 669 188 576 l 157 669 q 124 672 138 669 q 102 689 111 675 q 92 730 92 702 l 92 732 q 110 790 92 773 q 172 808 127 808 l 324 808 q 359 814 333 808 q 387 818 382 818 q 409 806 397 818 q 429 778 420 793 q 437 751 437 762 q 425 706 437 724 q 396 677 413 687 q 364 668 378 668 q 351 674 359 668 q 334 680 342 680 l 286 680 m 83 951 q 54 967 66 951 q 42 1008 42 983 q 60 1076 42 1045 q 107 1124 79 1107 q 168 1142 136 1142 q 230 1127 204 1142 q 283 1085 255 1112 q 315 1059 302 1067 q 340 1051 327 1051 q 369 1060 358 1051 q 391 1084 379 1068 q 407 1104 400 1098 q 425 1110 414 1110 q 448 1097 440 1110 q 456 1065 456 1084 q 442 1001 456 1033 q 402 948 429 969 q 340 928 376 928 q 296 941 318 928 q 244 980 274 955 q 199 1014 216 1003 q 166 1025 182 1025 q 135 1013 146 1025 q 110 979 123 1001 q 96 958 101 965 q 83 951 90 951 z "},"J":{"ha":537,"x_min":45,"x_max":469,"o":"m 193 123 q 272 142 232 123 q 337 195 311 162 q 363 265 363 228 q 363 381 363 315 q 365 484 364 448 q 368 728 368 637 q 381 798 368 768 q 425 827 395 827 q 460 783 450 827 q 469 658 469 739 q 468 568 469 631 q 467 472 467 505 q 457 295 467 401 q 437 168 448 189 q 175 -12 345 -12 q 119 -3 149 -12 q 67 31 90 6 q 45 96 45 55 q 51 132 45 113 q 70 162 58 150 q 99 175 83 175 q 117 169 109 175 q 136 153 125 163 q 162 131 150 138 q 193 123 175 123 z "},"Ĵ":{"ha":537,"x_min":45,"x_max":642,"o":"m 193 123 q 272 142 232 123 q 337 195 311 162 q 363 265 363 228 q 363 381 363 315 q 365 484 364 448 q 368 728 368 637 q 381 798 368 768 q 425 827 395 827 q 460 783 450 827 q 469 658 469 739 q 468 568 469 631 q 467 472 467 505 q 457 295 467 401 q 437 168 448 189 q 175 -12 345 -12 q 119 -3 149 -12 q 67 31 90 6 q 45 96 45 55 q 51 132 45 113 q 70 162 58 150 q 99 175 83 175 q 117 169 109 175 q 136 153 125 163 q 162 131 150 138 q 193 123 175 123 m 425 1078 q 358 1015 396 1043 q 282 969 321 986 q 214 953 244 953 q 185 971 199 953 q 171 1013 171 989 q 184 1061 171 1040 q 214 1084 198 1082 q 266 1101 238 1087 q 334 1141 293 1116 q 392 1174 372 1164 q 427 1185 413 1185 q 467 1169 449 1183 q 589 1097 517 1118 q 617 1083 608 1088 q 634 1068 627 1078 q 642 1043 642 1058 q 634 1000 642 1019 q 617 970 627 981 q 596 960 606 960 q 512 997 563 960 q 425 1078 461 1034 z "},"K":{"ha":682,"x_min":106,"x_max":639,"o":"m 568 205 q 620 89 601 136 q 639 12 639 41 q 583 -71 639 -71 q 548 -33 566 -71 q 509 71 531 5 q 461 190 496 106 q 390 350 426 273 q 336 454 354 427 q 271 378 308 426 q 210 296 233 331 l 210 271 q 213 169 210 239 l 215 131 l 218 45 q 211 12 219 26 q 191 -9 203 -2 q 168 -17 179 -17 q 118 20 130 -17 q 106 130 106 58 l 112 351 q 123 754 117 614 q 136 805 124 783 q 172 828 147 828 q 201 811 188 828 q 214 764 214 795 l 205 537 l 205 494 q 207 458 205 462 q 247 512 221 481 q 290 569 278 550 q 317 614 305 601 q 349 631 329 628 l 385 681 q 425 734 410 716 q 450 769 433 744 q 484 811 469 798 q 526 825 498 824 q 541 818 532 825 q 556 798 549 812 q 562 764 562 784 q 553 711 562 733 q 531 672 545 688 q 490 630 517 656 q 469 609 486 626 q 437 574 452 592 q 408 537 421 556 q 472 412 436 490 l 478 400 l 551 243 l 568 205 z "},"Ķ":{"ha":682,"x_min":106,"x_max":639,"o":"m 568 205 q 620 89 601 136 q 639 12 639 41 q 583 -71 639 -71 q 548 -33 566 -71 q 509 71 531 5 q 461 190 496 106 q 390 350 426 273 q 336 454 354 427 q 271 378 308 426 q 210 296 233 331 l 210 271 q 213 169 210 239 l 215 131 l 218 45 q 211 12 219 26 q 191 -9 203 -2 q 168 -17 179 -17 q 118 20 130 -17 q 106 130 106 58 l 112 351 q 123 754 117 614 q 136 805 124 783 q 172 828 147 828 q 201 811 188 828 q 214 764 214 795 l 205 537 l 205 494 q 207 458 205 462 q 247 512 221 481 q 290 569 278 550 q 317 614 305 601 q 349 631 329 628 l 385 681 q 425 734 410 716 q 450 769 433 744 q 484 811 469 798 q 526 825 498 824 q 541 818 532 825 q 556 798 549 812 q 562 764 562 784 q 553 711 562 733 q 531 672 545 688 q 490 630 517 656 q 469 609 486 626 q 437 574 452 592 q 408 537 421 556 q 472 412 436 490 l 478 400 l 551 243 l 568 205 m 253 -257 q 270 -220 259 -245 q 291 -177 281 -193 q 315 -150 300 -161 q 353 -139 330 -139 q 387 -150 371 -139 q 413 -178 404 -161 q 423 -213 423 -195 q 394 -285 423 -239 q 327 -366 365 -330 q 266 -401 289 -401 q 229 -387 244 -401 q 214 -349 214 -372 q 219 -316 213 -331 q 238 -283 226 -302 q 253 -257 248 -268 z "},"L":{"ha":604,"x_min":99,"x_max":581,"o":"m 316 0 q 271 -3 297 0 q 248 -5 265 -4 q 215 -7 231 -7 q 123 0 195 -7 q 110 3 115 0 q 102 15 104 5 q 99 45 99 24 q 101 107 99 74 q 108 180 104 140 l 112 223 q 110 345 112 278 q 107 432 108 411 q 102 640 102 570 q 105 752 102 715 q 118 808 108 790 q 148 825 127 825 q 173 814 160 825 q 193 785 185 803 q 201 747 201 767 q 197 677 201 716 l 195 646 q 196 450 195 515 l 204 144 q 277 141 229 144 q 455 136 392 136 q 481 138 460 136 q 534 146 488 140 q 567 122 553 145 q 581 68 581 98 q 572 35 581 53 q 550 5 563 17 q 526 -7 537 -7 q 432 -3 486 -7 q 384 -1 420 -3 q 316 0 348 0 z "},"Ǉ":{"ha":1141,"x_min":99,"x_max":1074,"o":"m 316 0 q 271 -3 297 0 q 248 -5 265 -4 q 215 -7 231 -7 q 123 0 195 -7 q 110 3 115 0 q 102 15 104 5 q 99 45 99 24 q 101 107 99 74 q 108 180 104 140 l 112 223 q 110 345 112 278 q 107 432 108 411 q 102 640 102 570 q 105 752 102 715 q 118 808 108 790 q 148 825 127 825 q 173 814 160 825 q 193 785 185 803 q 201 747 201 767 q 197 677 201 716 l 195 646 q 196 450 195 515 l 204 144 q 277 141 229 144 q 455 136 392 136 q 481 138 460 136 q 534 146 488 140 q 567 122 553 145 q 581 68 581 98 q 572 35 581 53 q 550 5 563 17 q 526 -7 537 -7 q 432 -3 486 -7 q 384 -1 420 -3 q 316 0 348 0 m 797 123 q 876 142 836 123 q 941 195 916 162 q 967 265 967 228 q 968 381 967 315 q 969 484 968 448 q 972 728 972 637 q 986 798 972 768 q 1029 827 1000 827 q 1064 783 1055 827 q 1074 658 1074 739 q 1072 568 1074 631 q 1071 472 1071 505 q 1061 295 1071 401 q 1042 168 1052 189 q 779 -12 949 -12 q 724 -3 753 -12 q 671 31 694 6 q 649 96 649 55 q 655 132 649 113 q 674 162 662 150 q 703 175 687 175 q 721 169 713 175 q 740 153 730 163 q 767 131 754 138 q 797 123 779 123 z "},"Ĺ":{"ha":604,"x_min":99,"x_max":581,"o":"m 316 0 q 271 -3 297 0 q 248 -5 265 -4 q 215 -7 231 -7 q 123 0 195 -7 q 110 3 115 0 q 102 15 104 5 q 99 45 99 24 q 101 107 99 74 q 108 180 104 140 l 112 223 q 110 345 112 278 q 107 432 108 411 q 102 640 102 570 q 105 752 102 715 q 118 808 108 790 q 148 825 127 825 q 173 814 160 825 q 193 785 185 803 q 201 747 201 767 q 197 677 201 716 l 195 646 q 196 450 195 515 l 204 144 q 277 141 229 144 q 455 136 392 136 q 481 138 460 136 q 534 146 488 140 q 567 122 553 145 q 581 68 581 98 q 572 35 581 53 q 550 5 563 17 q 526 -7 537 -7 q 432 -3 486 -7 q 384 -1 420 -3 q 316 0 348 0 m 193 926 q 206 964 193 948 q 239 995 218 981 q 303 1038 271 1015 q 379 1087 351 1071 q 427 1104 408 1104 q 462 1090 449 1104 q 475 1047 475 1077 q 425 970 475 1008 q 310 906 374 932 q 220 881 245 881 q 213 883 220 880 q 199 897 205 887 q 193 926 193 907 z "},"Ľ":{"ha":604,"x_min":99,"x_max":581,"o":"m 316 0 q 271 -3 297 0 q 248 -5 265 -4 q 215 -7 231 -7 q 123 0 195 -7 q 110 3 115 0 q 102 15 104 5 q 99 45 99 24 q 101 107 99 74 q 108 180 104 140 l 112 223 q 110 345 112 278 q 107 432 108 411 q 102 640 102 570 q 105 752 102 715 q 118 808 108 790 q 148 825 127 825 q 173 814 160 825 q 193 785 185 803 q 201 747 201 767 q 197 677 201 716 l 195 646 q 196 450 195 515 l 204 144 q 277 141 229 144 q 455 136 392 136 q 481 138 460 136 q 534 146 488 140 q 567 122 553 145 q 581 68 581 98 q 572 35 581 53 q 550 5 563 17 q 526 -7 537 -7 q 432 -3 486 -7 q 384 -1 420 -3 q 316 0 348 0 m 507 604 q 492 569 507 582 q 460 556 478 556 q 421 567 435 556 q 399 602 406 577 q 393 694 393 623 q 407 906 393 811 q 471 1001 421 1001 q 497 989 491 1001 q 504 955 504 977 l 498 892 q 490 762 490 802 q 498 680 490 733 q 507 604 507 626 z "},"Ļ":{"ha":604,"x_min":99,"x_max":581,"o":"m 316 0 q 271 -3 297 0 q 248 -5 265 -4 q 215 -7 231 -7 q 123 0 195 -7 q 110 3 115 0 q 102 15 104 5 q 99 45 99 24 q 101 107 99 74 q 108 180 104 140 l 112 223 q 110 345 112 278 q 107 432 108 411 q 102 640 102 570 q 105 752 102 715 q 118 808 108 790 q 148 825 127 825 q 173 814 160 825 q 193 785 185 803 q 201 747 201 767 q 197 677 201 716 l 195 646 q 196 450 195 515 l 204 144 q 277 141 229 144 q 455 136 392 136 q 481 138 460 136 q 534 146 488 140 q 567 122 553 145 q 581 68 581 98 q 572 35 581 53 q 550 5 563 17 q 526 -7 537 -7 q 432 -3 486 -7 q 384 -1 420 -3 q 316 0 348 0 m 177 -257 q 194 -220 183 -245 q 215 -177 205 -193 q 239 -150 224 -161 q 277 -139 254 -139 q 311 -150 295 -139 q 337 -178 328 -161 q 347 -213 347 -195 q 318 -285 347 -239 q 251 -366 289 -330 q 190 -401 213 -401 q 153 -387 168 -401 q 138 -349 138 -372 q 143 -316 137 -331 q 162 -283 150 -302 q 177 -257 172 -268 z "},"Ŀ":{"ha":559,"x_min":99,"x_max":581,"o":"m 534 146 q 567 122 553 145 q 581 68 581 98 q 572 35 581 53 q 550 5 563 17 q 526 -7 537 -7 q 432 -3 486 -7 q 384 -1 420 -3 q 316 0 348 0 q 271 -3 297 0 q 248 -5 265 -4 q 215 -7 231 -7 q 123 0 195 -7 q 110 3 115 0 q 102 15 104 5 q 99 45 99 24 q 101 107 99 74 q 108 180 104 140 l 112 223 q 110 345 112 278 q 107 432 108 411 q 102 640 102 570 q 105 752 102 715 q 118 808 108 790 q 148 825 127 825 q 173 814 160 825 q 193 785 185 803 q 201 747 201 767 q 197 677 201 716 l 195 646 q 196 450 195 515 l 204 144 q 277 141 229 144 q 455 136 392 136 q 481 138 460 136 q 534 146 488 140 m 450 397 q 398 414 422 397 q 374 471 374 430 q 385 512 374 492 q 412 547 395 533 q 444 560 429 560 q 492 543 472 560 q 513 482 513 525 q 450 397 513 397 m 498 144 q 501 144 499 144 l 498 144 m 496 144 l 498 144 l 496 144 z "},"Ḷ":{"ha":604,"x_min":99,"x_max":581,"o":"m 316 0 q 271 -3 297 0 q 248 -5 265 -4 q 215 -7 231 -7 q 123 0 195 -7 q 110 3 115 0 q 102 15 104 5 q 99 45 99 24 q 101 107 99 74 q 108 180 104 140 l 112 223 q 110 345 112 278 q 107 432 108 411 q 102 640 102 570 q 105 752 102 715 q 118 808 108 790 q 148 825 127 825 q 173 814 160 825 q 193 785 185 803 q 201 747 201 767 q 197 677 201 716 l 195 646 q 196 450 195 515 l 204 144 q 277 141 229 144 q 455 136 392 136 q 481 138 460 136 q 534 146 488 140 q 567 122 553 145 q 581 68 581 98 q 572 35 581 53 q 550 5 563 17 q 526 -7 537 -7 q 432 -3 486 -7 q 384 -1 420 -3 q 316 0 348 0 m 408 -230 q 345 -315 408 -315 q 293 -299 317 -315 q 269 -241 269 -283 q 280 -199 269 -220 q 308 -165 291 -178 q 340 -151 324 -151 q 388 -169 368 -151 q 408 -230 408 -187 z "},"Ḹ":{"ha":604,"x_min":60,"x_max":581,"o":"m 316 0 q 271 -3 297 0 q 248 -5 265 -4 q 215 -7 231 -7 q 123 0 195 -7 q 110 3 115 0 q 102 15 104 5 q 99 45 99 24 q 101 107 99 74 q 108 180 104 140 l 112 223 q 110 345 112 278 q 107 432 108 411 q 102 640 102 570 q 105 752 102 715 q 118 808 108 790 q 148 825 127 825 q 173 814 160 825 q 193 785 185 803 q 201 747 201 767 q 197 677 201 716 l 195 646 q 196 450 195 515 l 204 144 q 277 141 229 144 q 455 136 392 136 q 481 138 460 136 q 534 146 488 140 q 567 122 553 145 q 581 68 581 98 q 572 35 581 53 q 550 5 563 17 q 526 -7 537 -7 q 432 -3 486 -7 q 384 -1 420 -3 q 316 0 348 0 m 408 -230 q 345 -315 408 -315 q 293 -299 317 -315 q 269 -241 269 -283 q 280 -199 269 -220 q 308 -165 291 -178 q 340 -151 324 -151 q 388 -169 368 -151 q 408 -230 408 -187 m 450 1040 q 474 1037 465 1040 q 487 1020 482 1033 q 491 983 491 1008 q 485 934 491 949 q 469 916 478 919 q 443 912 459 912 l 109 912 q 73 935 85 912 q 60 984 60 958 q 74 1027 60 1008 q 102 1047 87 1047 l 450 1040 z "},"ǈ":{"ha":991,"x_min":99,"x_max":901,"o":"m 316 0 q 271 -3 297 0 q 248 -5 265 -4 q 215 -7 231 -7 q 123 0 195 -7 q 110 3 115 0 q 102 15 104 5 q 99 45 99 24 q 101 107 99 74 q 108 180 104 140 l 112 223 q 110 345 112 278 q 107 432 108 411 q 102 640 102 570 q 105 752 102 715 q 118 808 108 790 q 148 825 127 825 q 173 814 160 825 q 193 785 185 803 q 201 747 201 767 q 197 677 201 716 l 195 646 q 196 450 195 515 l 204 144 q 277 141 229 144 q 455 136 392 136 q 481 138 460 136 q 534 146 488 140 q 567 122 553 145 q 581 68 581 98 q 572 35 581 53 q 550 5 563 17 q 526 -7 537 -7 q 432 -3 486 -7 q 384 -1 420 -3 q 316 0 348 0 m 901 909 q 838 825 901 825 q 785 842 810 825 q 760 900 760 859 q 771 941 760 920 q 800 976 783 962 q 833 989 817 989 q 880 971 860 989 q 901 909 901 953 m 876 264 q 878 183 878 213 l 878 159 q 863 -116 878 -18 q 787 -275 848 -214 q 595 -336 726 -336 q 529 -323 558 -336 q 500 -266 500 -311 q 514 -218 500 -231 q 556 -205 528 -205 l 576 -205 q 716 -157 671 -205 q 774 -35 762 -108 q 787 151 787 37 l 789 540 q 841 656 791 656 q 876 636 864 656 q 891 587 888 616 q 884 463 891 542 q 876 326 876 372 l 876 264 z "},"Ḻ":{"ha":604,"x_min":99,"x_max":581,"o":"m 316 0 q 271 -3 297 0 q 248 -5 265 -4 q 215 -7 231 -7 q 123 0 195 -7 q 110 3 115 0 q 102 15 104 5 q 99 45 99 24 q 101 107 99 74 q 108 180 104 140 l 112 223 q 110 345 112 278 q 107 432 108 411 q 102 640 102 570 q 105 752 102 715 q 118 808 108 790 q 148 825 127 825 q 173 814 160 825 q 193 785 185 803 q 201 747 201 767 q 197 677 201 716 l 195 646 q 196 450 195 515 l 204 144 q 277 141 229 144 q 455 136 392 136 q 481 138 460 136 q 534 146 488 140 q 567 122 553 145 q 581 68 581 98 q 572 35 581 53 q 550 5 563 17 q 526 -7 537 -7 q 432 -3 486 -7 q 384 -1 420 -3 q 316 0 348 0 m 534 -162 q 565 -179 555 -162 q 574 -235 574 -196 q 568 -280 574 -269 q 545 -291 561 -291 l 527 -290 l 192 -290 q 156 -275 168 -290 q 143 -239 143 -260 q 150 -203 143 -222 q 167 -171 157 -184 q 186 -157 177 -157 q 279 -158 239 -157 q 349 -159 320 -159 q 534 -162 467 -162 z "},"Ł":{"ha":624,"x_min":-24,"x_max":581,"o":"m 534 146 q 567 122 553 145 q 581 68 581 98 q 572 35 581 53 q 550 5 563 17 q 526 -7 537 -7 q 432 -3 486 -7 q 384 -1 420 -3 q 316 0 348 0 q 271 -3 297 0 q 248 -5 265 -4 q 215 -7 231 -7 q 123 0 195 -7 q 110 3 115 0 q 102 15 104 5 q 99 45 99 24 q 101 107 99 74 q 108 180 104 140 l 112 223 q 110 342 112 283 q 56 315 75 323 q 22 308 37 308 q -13 327 -2 308 q -24 376 -24 345 q -9 410 -24 394 q 24 435 5 426 q 105 477 66 453 q 102 640 102 568 q 105 752 102 715 q 118 808 108 790 q 148 825 127 825 q 173 814 160 825 q 193 785 185 803 q 201 747 201 767 q 197 677 201 716 l 195 646 l 195 534 q 281 593 229 557 q 319 620 299 606 q 361 648 339 633 q 377 656 366 652 q 397 660 388 660 q 439 647 422 660 q 455 604 455 634 q 438 562 455 580 q 397 526 422 543 l 232 418 l 197 396 l 204 144 q 277 141 229 144 q 455 136 392 136 q 481 138 460 136 q 534 146 488 140 z "},"M":{"ha":865,"x_min":96,"x_max":777,"o":"m 677 567 q 654 515 667 555 q 646 492 652 511 q 631 460 639 473 l 606 415 l 569 347 q 503 229 529 272 q 450 157 477 186 q 397 128 422 127 q 337 197 374 128 q 259 355 300 266 l 178 530 q 177 474 177 514 q 181 322 177 432 q 185 151 185 204 q 193 108 191 116 q 195 99 195 100 q 151 -3 195 -3 q 115 7 127 -3 q 100 36 103 18 q 96 81 96 54 q 99 126 96 96 q 100 143 100 134 q 101 165 101 153 q 103 344 103 262 q 110 637 106 546 q 130 777 115 729 q 178 825 145 825 q 210 803 197 825 q 223 754 223 780 l 223 747 q 298 530 231 684 q 364 387 321 475 q 420 283 407 299 q 442 295 431 283 q 475 341 454 307 q 595 592 492 371 q 671 754 658 726 q 692 799 676 779 q 722 820 707 820 q 763 799 748 820 q 777 742 777 778 q 771 585 777 680 q 766 472 767 513 l 754 41 q 746 11 754 23 q 729 -7 739 -1 q 715 -14 720 -14 q 693 -6 709 -14 q 662 18 677 1 q 648 64 648 35 q 651 94 648 79 q 660 130 654 109 q 665 150 661 134 q 670 180 670 166 l 677 567 z "},"Ṁ":{"ha":865,"x_min":96,"x_max":777,"o":"m 677 567 q 654 515 667 555 q 646 492 652 511 q 631 460 639 473 l 606 415 l 569 347 q 503 229 529 272 q 450 157 477 186 q 397 128 422 127 q 337 197 374 128 q 259 355 300 266 l 178 530 q 177 474 177 514 q 181 322 177 432 q 185 151 185 204 q 193 108 191 116 q 195 99 195 100 q 151 -3 195 -3 q 115 7 127 -3 q 100 36 103 18 q 96 81 96 54 q 99 126 96 96 q 100 143 100 134 q 101 165 101 153 q 103 344 103 262 q 110 637 106 546 q 130 777 115 729 q 178 825 145 825 q 210 803 197 825 q 223 754 223 780 l 223 747 q 298 530 231 684 q 364 387 321 475 q 420 283 407 299 q 442 295 431 283 q 475 341 454 307 q 595 592 492 371 q 671 754 658 726 q 692 799 676 779 q 722 820 707 820 q 763 799 748 820 q 777 742 777 778 q 771 585 777 680 q 766 472 767 513 l 754 41 q 746 11 754 23 q 729 -7 739 -1 q 715 -14 720 -14 q 693 -6 709 -14 q 662 18 677 1 q 648 64 648 35 q 651 94 648 79 q 660 130 654 109 q 665 150 661 134 q 670 180 670 166 l 677 567 m 467 1105 q 516 1088 495 1105 q 537 1028 537 1071 q 521 964 537 986 q 473 943 505 943 q 423 960 446 943 q 399 1020 399 977 q 410 1060 399 1040 q 436 1093 420 1080 q 467 1105 452 1105 z "},"Ṃ":{"ha":865,"x_min":96,"x_max":777,"o":"m 677 567 q 654 515 667 555 q 646 492 652 511 q 631 460 639 473 l 606 415 l 569 347 q 503 229 529 272 q 450 157 477 186 q 397 128 422 127 q 337 197 374 128 q 259 355 300 266 l 178 530 q 177 474 177 514 q 181 322 177 432 q 185 151 185 204 q 193 108 191 116 q 195 99 195 100 q 151 -3 195 -3 q 115 7 127 -3 q 100 36 103 18 q 96 81 96 54 q 99 126 96 96 q 100 143 100 134 q 101 165 101 153 q 103 344 103 262 q 110 637 106 546 q 130 777 115 729 q 178 825 145 825 q 210 803 197 825 q 223 754 223 780 l 223 747 q 298 530 231 684 q 364 387 321 475 q 420 283 407 299 q 442 295 431 283 q 475 341 454 307 q 595 592 492 371 q 671 754 658 726 q 692 799 676 779 q 722 820 707 820 q 763 799 748 820 q 777 742 777 778 q 771 585 777 680 q 766 472 767 513 l 754 41 q 746 11 754 23 q 729 -7 739 -1 q 715 -14 720 -14 q 693 -6 709 -14 q 662 18 677 1 q 648 64 648 35 q 651 94 648 79 q 660 130 654 109 q 665 150 661 134 q 670 180 670 166 l 677 567 m 505 -230 q 441 -315 505 -315 q 389 -299 413 -315 q 366 -241 366 -283 q 376 -199 366 -220 q 404 -165 387 -178 q 436 -151 420 -151 q 484 -169 464 -151 q 505 -230 505 -187 z "},"N":{"ha":730,"x_min":102,"x_max":648,"o":"m 201 498 q 199 309 199 450 q 198 221 199 252 q 198 172 198 190 q 197 123 197 155 q 186 27 197 58 q 149 -3 175 -3 q 112 13 121 -3 q 102 60 102 28 q 104 104 102 73 l 106 333 q 112 481 111 431 q 113 589 113 531 q 113 617 113 606 q 111 739 111 684 q 116 774 111 753 q 130 810 121 795 q 153 825 140 825 q 208 790 189 825 q 239 692 227 755 q 320 475 258 596 q 445 259 381 354 q 520 165 509 165 q 526 189 524 165 q 533 328 529 214 q 545 697 538 443 q 551 784 547 755 q 566 828 555 814 q 597 842 576 842 q 627 837 617 842 q 643 815 637 832 q 648 764 648 799 q 638 497 648 626 q 610 166 629 368 l 608 144 l 608 127 q 602 52 607 83 q 579 1 596 22 q 530 -20 562 -20 q 504 -7 517 -20 q 486 16 490 5 q 330 244 406 115 q 201 498 254 374 z "},"Ǌ":{"ha":1267,"x_min":102,"x_max":1199,"o":"m 201 498 q 199 309 199 450 q 198 221 199 252 q 198 172 198 190 q 197 123 197 155 q 186 27 197 58 q 149 -3 175 -3 q 112 13 121 -3 q 102 60 102 28 q 104 104 102 73 l 106 333 q 112 481 111 431 q 113 589 113 531 q 113 617 113 606 q 111 739 111 684 q 116 774 111 753 q 130 810 121 795 q 153 825 140 825 q 208 790 189 825 q 239 692 227 755 q 320 475 258 596 q 445 259 381 354 q 520 165 509 165 q 526 189 524 165 q 533 328 529 214 q 545 697 538 443 q 551 784 547 755 q 566 828 555 814 q 597 842 576 842 q 627 837 617 842 q 643 815 637 832 q 648 764 648 799 q 638 497 648 626 q 610 166 629 368 l 608 144 l 608 127 q 602 52 607 83 q 579 1 596 22 q 530 -20 562 -20 q 504 -7 517 -20 q 486 16 490 5 q 330 244 406 115 q 201 498 254 374 m 922 123 q 1001 142 962 123 q 1067 195 1041 162 q 1093 265 1093 228 q 1093 381 1093 315 q 1095 484 1094 448 q 1097 728 1097 637 q 1111 798 1097 768 q 1154 827 1125 827 q 1190 783 1180 827 q 1199 658 1199 739 q 1198 568 1199 631 q 1196 472 1196 505 q 1187 295 1196 401 q 1167 168 1177 189 q 905 -12 1074 -12 q 849 -3 879 -12 q 797 31 819 6 q 774 96 774 55 q 781 132 774 113 q 800 162 787 150 q 829 175 812 175 q 847 169 838 175 q 865 153 855 163 q 892 131 880 138 q 922 123 905 123 z "},"Ń":{"ha":730,"x_min":102,"x_max":648,"o":"m 201 498 q 199 309 199 450 q 198 221 199 252 q 198 172 198 190 q 197 123 197 155 q 186 27 197 58 q 149 -3 175 -3 q 112 13 121 -3 q 102 60 102 28 q 104 104 102 73 l 106 333 q 112 481 111 431 q 113 589 113 531 q 113 617 113 606 q 111 739 111 684 q 116 774 111 753 q 130 810 121 795 q 153 825 140 825 q 208 790 189 825 q 239 692 227 755 q 320 475 258 596 q 445 259 381 354 q 520 165 509 165 q 526 189 524 165 q 533 328 529 214 q 545 697 538 443 q 551 784 547 755 q 566 828 555 814 q 597 842 576 842 q 627 837 617 842 q 643 815 637 832 q 648 764 648 799 q 638 497 648 626 q 610 166 629 368 l 608 144 l 608 127 q 602 52 607 83 q 579 1 596 22 q 530 -20 562 -20 q 504 -7 517 -20 q 486 16 490 5 q 330 244 406 115 q 201 498 254 374 m 293 984 q 306 1023 293 1006 q 339 1053 318 1039 q 403 1096 371 1073 q 479 1146 450 1129 q 526 1162 507 1162 q 562 1149 549 1162 q 575 1105 575 1135 q 524 1028 575 1066 q 409 965 473 990 q 320 939 345 939 q 313 942 320 938 q 299 955 305 945 q 293 984 293 965 z "},"Ň":{"ha":730,"x_min":102,"x_max":648,"o":"m 201 498 q 199 309 199 450 q 198 221 199 252 q 198 172 198 190 q 197 123 197 155 q 186 27 197 58 q 149 -3 175 -3 q 112 13 121 -3 q 102 60 102 28 q 104 104 102 73 l 106 333 q 112 481 111 431 q 113 589 113 531 q 113 617 113 606 q 111 739 111 684 q 116 774 111 753 q 130 810 121 795 q 153 825 140 825 q 208 790 189 825 q 239 692 227 755 q 320 475 258 596 q 445 259 381 354 q 520 165 509 165 q 526 189 524 165 q 533 328 529 214 q 545 697 538 443 q 551 784 547 755 q 566 828 555 814 q 597 842 576 842 q 627 837 617 842 q 643 815 637 832 q 648 764 648 799 q 638 497 648 626 q 610 166 629 368 l 608 144 l 608 127 q 602 52 607 83 q 579 1 596 22 q 530 -20 562 -20 q 504 -7 517 -20 q 486 16 490 5 q 330 244 406 115 q 201 498 254 374 m 370 1056 q 436 1120 398 1091 q 512 1165 474 1149 q 581 1181 551 1181 q 610 1163 596 1181 q 624 1122 624 1145 q 610 1074 624 1096 q 581 1051 597 1053 q 529 1033 557 1048 q 460 994 500 1019 q 401 960 421 970 q 368 950 382 950 q 347 955 357 951 q 328 965 338 958 q 208 1038 278 1015 q 178 1051 189 1045 q 160 1067 168 1057 q 153 1093 153 1077 q 160 1135 153 1116 q 178 1164 168 1154 q 198 1175 188 1175 q 282 1138 231 1175 q 370 1056 333 1101 z "},"Ņ":{"ha":730,"x_min":102,"x_max":648,"o":"m 201 498 q 199 309 199 450 q 198 221 199 252 q 198 172 198 190 q 197 123 197 155 q 186 27 197 58 q 149 -3 175 -3 q 112 13 121 -3 q 102 60 102 28 q 104 104 102 73 l 106 333 q 112 481 111 431 q 113 589 113 531 q 113 617 113 606 q 111 739 111 684 q 116 774 111 753 q 130 810 121 795 q 153 825 140 825 q 208 790 189 825 q 239 692 227 755 q 320 475 258 596 q 445 259 381 354 q 520 165 509 165 q 526 189 524 165 q 533 328 529 214 q 545 697 538 443 q 551 784 547 755 q 566 828 555 814 q 597 842 576 842 q 627 837 617 842 q 643 815 637 832 q 648 764 648 799 q 638 497 648 626 q 610 166 629 368 l 608 144 l 608 127 q 602 52 607 83 q 579 1 596 22 q 530 -20 562 -20 q 504 -7 517 -20 q 486 16 490 5 q 330 244 406 115 q 201 498 254 374 m 277 -199 q 294 -161 283 -187 q 314 -118 305 -134 q 338 -92 323 -102 q 376 -81 353 -81 q 411 -92 395 -81 q 437 -120 427 -102 q 447 -155 447 -137 q 418 -227 447 -181 q 351 -307 389 -272 q 290 -342 313 -342 q 253 -328 268 -342 q 237 -291 237 -314 q 243 -258 237 -273 q 262 -224 250 -243 q 277 -199 271 -210 z "},"Ṅ":{"ha":730,"x_min":102,"x_max":648,"o":"m 201 498 q 199 309 199 450 q 198 221 199 252 q 198 172 198 190 q 197 123 197 155 q 186 27 197 58 q 149 -3 175 -3 q 112 13 121 -3 q 102 60 102 28 q 104 104 102 73 l 106 333 q 112 481 111 431 q 113 589 113 531 q 113 617 113 606 q 111 739 111 684 q 116 774 111 753 q 130 810 121 795 q 153 825 140 825 q 208 790 189 825 q 239 692 227 755 q 320 475 258 596 q 445 259 381 354 q 520 165 509 165 q 526 189 524 165 q 533 328 529 214 q 545 697 538 443 q 551 784 547 755 q 566 828 555 814 q 597 842 576 842 q 627 837 617 842 q 643 815 637 832 q 648 764 648 799 q 638 497 648 626 q 610 166 629 368 l 608 144 l 608 127 q 602 52 607 83 q 579 1 596 22 q 530 -20 562 -20 q 504 -7 517 -20 q 486 16 490 5 q 330 244 406 115 q 201 498 254 374 m 375 1164 q 424 1146 403 1164 q 445 1086 445 1129 q 429 1023 445 1044 q 381 1001 412 1001 q 331 1018 354 1001 q 307 1078 307 1036 q 318 1118 307 1098 q 344 1151 328 1138 q 375 1164 360 1164 z "},"Ṇ":{"ha":730,"x_min":102,"x_max":648,"o":"m 201 498 q 199 309 199 450 q 198 221 199 252 q 198 172 198 190 q 197 123 197 155 q 186 27 197 58 q 149 -3 175 -3 q 112 13 121 -3 q 102 60 102 28 q 104 104 102 73 l 106 333 q 112 481 111 431 q 113 589 113 531 q 113 617 113 606 q 111 739 111 684 q 116 774 111 753 q 130 810 121 795 q 153 825 140 825 q 208 790 189 825 q 239 692 227 755 q 320 475 258 596 q 445 259 381 354 q 520 165 509 165 q 526 189 524 165 q 533 328 529 214 q 545 697 538 443 q 551 784 547 755 q 566 828 555 814 q 597 842 576 842 q 627 837 617 842 q 643 815 637 832 q 648 764 648 799 q 638 497 648 626 q 610 166 629 368 l 608 144 l 608 127 q 602 52 607 83 q 579 1 596 22 q 530 -20 562 -20 q 504 -7 517 -20 q 486 16 490 5 q 330 244 406 115 q 201 498 254 374 m 443 -230 q 380 -315 443 -315 q 328 -299 351 -315 q 304 -241 304 -283 q 315 -199 304 -220 q 342 -165 326 -178 q 374 -151 359 -151 q 422 -169 402 -151 q 443 -230 443 -187 z "},"Ŋ":{"ha":684,"x_min":81,"x_max":625,"o":"m 176 478 q 176 238 176 295 l 176 91 q 170 19 176 42 q 141 -3 164 -3 q 93 24 104 -3 q 81 104 81 51 q 84 333 81 144 q 87 416 84 358 q 91 574 91 495 q 90 644 91 596 q 88 723 88 695 q 94 759 88 738 q 109 794 99 779 q 131 808 118 808 q 185 774 167 808 q 216 677 204 740 q 297 460 235 582 q 423 241 359 338 q 498 144 488 144 q 513 248 509 144 q 521 555 517 351 q 526 734 524 707 q 537 839 527 807 q 576 870 547 870 q 605 866 595 870 q 620 845 615 861 q 625 794 625 829 q 616 553 625 761 l 608 393 q 606 235 606 340 q 599 -41 606 68 q 567 -199 592 -151 q 463 -329 521 -288 q 324 -370 405 -370 q 270 -360 299 -370 q 218 -327 240 -351 q 196 -262 196 -302 q 202 -227 196 -245 q 221 -195 208 -208 q 252 -182 233 -182 q 263 -186 258 -182 q 275 -200 267 -190 q 302 -229 288 -218 q 344 -239 317 -239 q 429 -211 393 -239 q 485 -140 465 -184 q 504 -48 504 -96 l 504 -36 q 336 202 430 54 q 176 478 243 350 z "},"ǋ":{"ha":1116,"x_min":102,"x_max":1026,"o":"m 201 498 q 199 309 199 450 q 198 221 199 252 q 198 172 198 190 q 197 123 197 155 q 186 27 197 58 q 149 -3 175 -3 q 112 13 121 -3 q 102 60 102 28 q 104 104 102 73 l 106 333 q 112 481 111 431 q 113 589 113 531 q 113 617 113 606 q 111 739 111 684 q 116 774 111 753 q 130 810 121 795 q 153 825 140 825 q 208 790 189 825 q 239 692 227 755 q 320 475 258 596 q 445 259 381 354 q 520 165 509 165 q 526 189 524 165 q 533 328 529 214 q 545 697 538 443 q 551 784 547 755 q 566 828 555 814 q 597 842 576 842 q 627 837 617 842 q 643 815 637 832 q 648 764 648 799 q 638 497 648 626 q 610 166 629 368 l 608 144 l 608 127 q 602 52 607 83 q 579 1 596 22 q 530 -20 562 -20 q 504 -7 517 -20 q 486 16 490 5 q 330 244 406 115 q 201 498 254 374 m 1026 909 q 963 825 1026 825 q 910 842 935 825 q 885 900 885 859 q 897 941 885 920 q 925 976 908 962 q 958 989 942 989 q 1006 971 985 989 q 1026 909 1026 953 m 1002 264 q 1003 183 1003 213 l 1003 159 q 988 -116 1003 -18 q 913 -275 974 -214 q 720 -336 852 -336 q 655 -323 684 -336 q 626 -266 626 -311 q 640 -218 626 -231 q 682 -205 654 -205 l 702 -205 q 842 -157 796 -205 q 900 -35 888 -108 q 913 151 912 37 l 915 540 q 966 656 916 656 q 1002 636 989 656 q 1017 587 1014 616 q 1009 463 1017 542 q 1001 326 1001 372 l 1002 264 z "},"Ṉ":{"ha":730,"x_min":102,"x_max":648,"o":"m 201 498 q 199 309 199 450 q 198 221 199 252 q 198 172 198 190 q 197 123 197 155 q 186 27 197 58 q 149 -3 175 -3 q 112 13 121 -3 q 102 60 102 28 q 104 104 102 73 l 106 333 q 112 481 111 431 q 113 589 113 531 q 113 617 113 606 q 111 739 111 684 q 116 774 111 753 q 130 810 121 795 q 153 825 140 825 q 208 790 189 825 q 239 692 227 755 q 320 475 258 596 q 445 259 381 354 q 520 165 509 165 q 526 189 524 165 q 533 328 529 214 q 545 697 538 443 q 551 784 547 755 q 566 828 555 814 q 597 842 576 842 q 627 837 617 842 q 643 815 637 832 q 648 764 648 799 q 638 497 648 626 q 610 166 629 368 l 608 144 l 608 127 q 602 52 607 83 q 579 1 596 22 q 530 -20 562 -20 q 504 -7 517 -20 q 486 16 490 5 q 330 244 406 115 q 201 498 254 374 m 568 -162 q 599 -179 589 -162 q 609 -235 609 -196 q 602 -280 609 -269 q 580 -291 595 -291 l 562 -290 l 227 -290 q 190 -275 203 -290 q 178 -239 178 -260 q 184 -203 178 -222 q 201 -171 191 -184 q 221 -157 212 -157 q 314 -158 273 -157 q 383 -159 355 -159 q 568 -162 501 -162 z "},"Ñ":{"ha":730,"x_min":102,"x_max":648,"o":"m 201 498 q 199 309 199 450 q 198 221 199 252 q 198 172 198 190 q 197 123 197 155 q 186 27 197 58 q 149 -3 175 -3 q 112 13 121 -3 q 102 60 102 28 q 104 104 102 73 l 106 333 q 112 481 111 431 q 113 589 113 531 q 113 617 113 606 q 111 739 111 684 q 116 774 111 753 q 130 810 121 795 q 153 825 140 825 q 208 790 189 825 q 239 692 227 755 q 320 475 258 596 q 445 259 381 354 q 520 165 509 165 q 526 189 524 165 q 533 328 529 214 q 545 697 538 443 q 551 784 547 755 q 566 828 555 814 q 597 842 576 842 q 627 837 617 842 q 643 815 637 832 q 648 764 648 799 q 638 497 648 626 q 610 166 629 368 l 608 144 l 608 127 q 602 52 607 83 q 579 1 596 22 q 530 -20 562 -20 q 504 -7 517 -20 q 486 16 490 5 q 330 244 406 115 q 201 498 254 374 m 202 951 q 174 967 186 951 q 161 1008 161 983 q 180 1076 161 1045 q 227 1124 198 1107 q 287 1142 256 1142 q 349 1127 323 1142 q 403 1085 374 1112 q 434 1059 422 1067 q 459 1051 446 1051 q 488 1060 477 1051 q 510 1084 498 1068 q 526 1104 519 1098 q 544 1110 533 1110 q 567 1097 559 1110 q 575 1065 575 1084 q 562 1001 575 1033 q 522 948 548 969 q 459 928 495 928 q 415 941 437 928 q 363 980 393 955 q 319 1014 336 1003 q 286 1025 302 1025 q 254 1013 266 1025 q 229 979 242 1001 q 215 958 220 965 q 202 951 210 951 z "},"O":{"ha":846,"x_min":78,"x_max":762,"o":"m 441 828 q 616 778 545 828 q 725 632 688 727 q 762 406 762 538 q 714 188 762 284 q 589 38 667 92 q 420 -16 510 -16 q 251 47 330 -16 q 125 207 172 110 q 78 400 78 304 q 131 644 80 548 q 263 784 182 740 q 441 828 345 828 m 414 115 q 545 148 484 115 q 643 246 606 181 q 680 401 680 311 q 650 559 680 492 q 569 664 621 627 q 452 701 517 701 q 311 669 377 701 q 205 574 245 637 q 165 420 165 511 q 200 276 165 347 q 293 160 235 205 q 414 115 351 115 z "},"Ó":{"ha":846,"x_min":78,"x_max":762,"o":"m 441 828 q 616 778 545 828 q 725 632 688 727 q 762 406 762 538 q 714 188 762 284 q 589 38 667 92 q 420 -16 510 -16 q 251 47 330 -16 q 125 207 172 110 q 78 400 78 304 q 131 644 80 548 q 263 784 182 740 q 441 828 345 828 m 414 115 q 545 148 484 115 q 643 246 606 181 q 680 401 680 311 q 650 559 680 492 q 569 664 621 627 q 452 701 517 701 q 311 669 377 701 q 205 574 245 637 q 165 420 165 511 q 200 276 165 347 q 293 160 235 205 q 414 115 351 115 m 359 984 q 372 1023 359 1006 q 406 1053 385 1039 q 469 1096 437 1073 q 545 1146 517 1129 q 593 1162 574 1162 q 628 1149 615 1162 q 642 1105 642 1135 q 591 1028 642 1066 q 476 965 540 990 q 387 939 412 939 q 379 942 387 938 q 366 955 372 945 q 359 984 359 965 z "},"Ŏ":{"ha":846,"x_min":78,"x_max":762,"o":"m 441 828 q 616 778 545 828 q 725 632 688 727 q 762 406 762 538 q 714 188 762 284 q 589 38 667 92 q 420 -16 510 -16 q 251 47 330 -16 q 125 207 172 110 q 78 400 78 304 q 131 644 80 548 q 263 784 182 740 q 441 828 345 828 m 414 115 q 545 148 484 115 q 643 246 606 181 q 680 401 680 311 q 650 559 680 492 q 569 664 621 627 q 452 701 517 701 q 311 669 377 701 q 205 574 245 637 q 165 420 165 511 q 200 276 165 347 q 293 160 235 205 q 414 115 351 115 m 240 1156 q 256 1214 240 1197 q 290 1232 272 1232 q 320 1219 313 1232 q 332 1179 328 1206 q 343 1135 336 1152 q 374 1105 351 1118 q 443 1093 397 1093 q 523 1111 488 1093 q 557 1172 557 1130 q 574 1219 557 1204 q 608 1233 590 1233 q 639 1215 625 1233 q 652 1164 652 1198 q 627 1068 652 1113 q 554 997 601 1024 q 448 970 507 970 q 299 1013 357 970 q 240 1156 240 1056 z "},"Ǒ":{"ha":846,"x_min":78,"x_max":762,"o":"m 441 828 q 616 778 545 828 q 725 632 688 727 q 762 406 762 538 q 714 188 762 284 q 589 38 667 92 q 420 -16 510 -16 q 251 47 330 -16 q 125 207 172 110 q 78 400 78 304 q 131 644 80 548 q 263 784 182 740 q 441 828 345 828 m 414 115 q 545 148 484 115 q 643 246 606 181 q 680 401 680 311 q 650 559 680 492 q 569 664 621 627 q 452 701 517 701 q 311 669 377 701 q 205 574 245 637 q 165 420 165 511 q 200 276 165 347 q 293 160 235 205 q 414 115 351 115 m 436 1056 q 503 1120 465 1091 q 579 1165 541 1149 q 647 1181 617 1181 q 676 1163 663 1181 q 690 1122 690 1145 q 677 1074 690 1096 q 647 1051 663 1053 q 595 1033 623 1048 q 526 994 567 1019 q 468 960 488 970 q 435 950 448 950 q 414 955 423 951 q 395 965 404 958 q 275 1038 345 1015 q 244 1051 255 1045 q 227 1067 234 1057 q 220 1093 220 1077 q 227 1135 220 1116 q 244 1164 234 1154 q 264 1175 254 1175 q 349 1138 298 1175 q 436 1056 399 1101 z "},"Ô":{"ha":846,"x_min":78,"x_max":762,"o":"m 441 828 q 616 778 545 828 q 725 632 688 727 q 762 406 762 538 q 714 188 762 284 q 589 38 667 92 q 420 -16 510 -16 q 251 47 330 -16 q 125 207 172 110 q 78 400 78 304 q 131 644 80 548 q 263 784 182 740 q 441 828 345 828 m 414 115 q 545 148 484 115 q 643 246 606 181 q 680 401 680 311 q 650 559 680 492 q 569 664 621 627 q 452 701 517 701 q 311 669 377 701 q 205 574 245 637 q 165 420 165 511 q 200 276 165 347 q 293 160 235 205 q 414 115 351 115 m 442 1090 q 376 1027 414 1055 q 300 982 338 998 q 232 965 262 965 q 202 983 216 965 q 189 1025 189 1001 q 202 1073 189 1052 q 232 1096 216 1094 q 283 1114 256 1099 q 352 1154 311 1128 q 410 1186 389 1176 q 444 1197 431 1197 q 484 1181 467 1196 q 606 1109 535 1130 q 635 1095 625 1101 q 652 1080 645 1090 q 659 1055 659 1070 q 652 1012 659 1031 q 634 982 645 993 q 614 972 624 972 q 530 1009 581 972 q 442 1090 479 1046 z "},"Ố":{"ha":846,"x_min":78,"x_max":825,"o":"m 441 828 q 616 778 545 828 q 725 632 688 727 q 762 406 762 538 q 714 188 762 284 q 589 38 667 92 q 420 -16 510 -16 q 251 47 330 -16 q 125 207 172 110 q 78 400 78 304 q 131 644 80 548 q 263 784 182 740 q 441 828 345 828 m 414 115 q 545 148 484 115 q 643 246 606 181 q 680 401 680 311 q 650 559 680 492 q 569 664 621 627 q 452 701 517 701 q 311 669 377 701 q 205 574 245 637 q 165 420 165 511 q 200 276 165 347 q 293 160 235 205 q 414 115 351 115 m 584 1101 q 591 1143 584 1126 q 616 1170 599 1159 q 652 1196 634 1181 q 692 1235 669 1212 q 742 1279 724 1265 q 775 1293 760 1293 q 811 1279 798 1293 q 825 1236 825 1265 q 786 1159 825 1197 q 698 1095 747 1120 q 625 1069 648 1069 q 621 1069 624 1069 q 614 1068 618 1068 q 584 1101 584 1068 m 269 888 q 236 906 250 888 q 222 958 222 924 q 255 1008 222 989 q 279 1028 271 1022 q 355 1088 328 1068 q 407 1121 382 1109 q 454 1133 431 1133 q 496 1115 475 1133 q 544 1066 517 1097 l 560 1048 q 602 1013 570 1038 q 647 974 632 989 q 663 943 663 958 q 653 909 663 926 q 628 880 644 891 q 593 868 612 868 q 566 882 580 868 q 526 927 551 896 q 481 978 499 959 q 444 1007 464 996 q 412 981 429 997 q 391 962 394 965 q 323 907 351 926 q 269 888 296 888 z "},"Ộ":{"ha":846,"x_min":78,"x_max":762,"o":"m 441 828 q 616 778 545 828 q 725 632 688 727 q 762 406 762 538 q 714 188 762 284 q 589 38 667 92 q 420 -16 510 -16 q 251 47 330 -16 q 125 207 172 110 q 78 400 78 304 q 131 644 80 548 q 263 784 182 740 q 441 828 345 828 m 414 115 q 545 148 484 115 q 643 246 606 181 q 680 401 680 311 q 650 559 680 492 q 569 664 621 627 q 452 701 517 701 q 311 669 377 701 q 205 574 245 637 q 165 420 165 511 q 200 276 165 347 q 293 160 235 205 q 414 115 351 115 m 442 1090 q 376 1027 414 1055 q 300 982 338 998 q 232 965 262 965 q 202 983 216 965 q 189 1025 189 1001 q 202 1073 189 1052 q 232 1096 216 1094 q 283 1114 256 1099 q 352 1154 311 1128 q 410 1186 389 1176 q 444 1197 431 1197 q 484 1181 467 1196 q 606 1109 535 1130 q 635 1095 625 1101 q 652 1080 645 1090 q 659 1055 659 1070 q 652 1012 659 1031 q 634 982 645 993 q 614 972 624 972 q 530 1009 581 972 q 442 1090 479 1046 m 488 -230 q 425 -315 488 -315 q 373 -299 397 -315 q 349 -241 349 -283 q 360 -199 349 -220 q 388 -165 371 -178 q 420 -151 404 -151 q 468 -169 448 -151 q 488 -230 488 -187 z "},"Ồ":{"ha":846,"x_min":78,"x_max":798,"o":"m 441 828 q 616 778 545 828 q 725 632 688 727 q 762 406 762 538 q 714 188 762 284 q 589 38 667 92 q 420 -16 510 -16 q 251 47 330 -16 q 125 207 172 110 q 78 400 78 304 q 131 644 80 548 q 263 784 182 740 q 441 828 345 828 m 414 115 q 545 148 484 115 q 643 246 606 181 q 680 401 680 311 q 650 559 680 492 q 569 664 621 627 q 452 701 517 701 q 311 669 377 701 q 205 574 245 637 q 165 420 165 511 q 200 276 165 347 q 293 160 235 205 q 414 115 351 115 m 566 1253 q 574 1285 566 1272 q 593 1305 582 1299 q 615 1311 605 1311 q 663 1286 639 1311 q 724 1208 686 1261 q 774 1141 760 1158 q 798 1084 798 1113 q 790 1049 798 1061 q 771 1032 781 1036 q 755 1027 762 1027 l 752 1027 q 685 1075 731 1035 q 602 1165 638 1116 q 566 1253 566 1214 m 269 916 q 236 933 250 916 q 222 985 222 951 q 232 1015 222 1002 q 255 1036 242 1028 q 315 1078 278 1052 q 397 1131 368 1115 q 454 1147 427 1147 q 494 1131 474 1147 q 543 1082 513 1114 l 560 1063 q 608 1027 573 1048 q 649 997 635 1009 q 663 970 663 985 q 653 937 663 954 q 628 907 644 919 q 593 895 612 895 q 565 908 580 895 q 523 950 550 921 q 480 994 498 977 q 444 1021 463 1010 q 401 988 429 1011 q 328 934 357 953 q 269 916 298 916 z "},"Ổ":{"ha":846,"x_min":78,"x_max":896,"o":"m 441 828 q 616 778 545 828 q 725 632 688 727 q 762 406 762 538 q 714 188 762 284 q 589 38 667 92 q 420 -16 510 -16 q 251 47 330 -16 q 125 207 172 110 q 78 400 78 304 q 131 644 80 548 q 263 784 182 740 q 441 828 345 828 m 414 115 q 545 148 484 115 q 643 246 606 181 q 680 401 680 311 q 650 559 680 492 q 569 664 621 627 q 452 701 517 701 q 311 669 377 701 q 205 574 245 637 q 165 420 165 511 q 200 276 165 347 q 293 160 235 205 q 414 115 351 115 m 786 1211 q 789 1197 789 1201 q 770 1161 789 1177 q 728 1136 751 1145 q 706 1133 721 1133 q 685 1131 692 1133 q 670 1118 675 1127 q 665 1098 665 1109 q 667 1084 665 1092 q 712 1052 677 1052 q 781 1068 734 1052 q 847 1110 822 1083 q 884 1167 873 1137 q 896 1227 896 1198 q 891 1259 896 1244 q 843 1321 880 1291 q 745 1363 790 1363 q 715 1358 729 1363 q 682 1334 694 1350 q 670 1301 670 1318 q 671 1292 670 1295 q 688 1272 676 1278 q 720 1260 699 1265 q 762 1244 747 1253 q 786 1211 777 1234 m 269 916 q 236 933 250 916 q 222 985 222 951 q 232 1015 222 1002 q 255 1036 242 1028 q 315 1078 278 1052 q 397 1131 368 1115 q 454 1147 427 1147 q 494 1131 474 1147 q 543 1082 513 1114 l 560 1063 q 608 1027 573 1048 q 649 997 635 1009 q 663 970 663 985 q 653 937 663 954 q 628 907 644 919 q 593 895 612 895 q 565 908 580 895 q 523 950 550 921 q 480 994 498 977 q 444 1021 463 1010 q 401 988 429 1011 q 328 934 357 953 q 269 916 298 916 z "},"Ỗ":{"ha":846,"x_min":78,"x_max":762,"o":"m 441 828 q 616 778 545 828 q 725 632 688 727 q 762 406 762 538 q 714 188 762 284 q 589 38 667 92 q 420 -16 510 -16 q 251 47 330 -16 q 125 207 172 110 q 78 400 78 304 q 131 644 80 548 q 263 784 182 740 q 441 828 345 828 m 414 115 q 545 148 484 115 q 643 246 606 181 q 680 401 680 311 q 650 559 680 492 q 569 664 621 627 q 452 701 517 701 q 311 669 377 701 q 205 574 245 637 q 165 420 165 511 q 200 276 165 347 q 293 160 235 205 q 414 115 351 115 m 296 1138 q 267 1153 279 1138 q 255 1192 255 1168 q 273 1257 255 1230 q 320 1299 291 1284 q 381 1314 349 1314 q 443 1304 418 1314 q 496 1274 467 1293 q 528 1255 515 1261 q 553 1249 540 1249 q 582 1257 572 1249 q 604 1282 593 1265 q 620 1301 613 1295 q 637 1307 627 1307 q 661 1295 653 1307 q 669 1263 669 1282 q 655 1203 669 1231 q 616 1157 642 1175 q 553 1140 590 1140 q 509 1149 531 1140 q 457 1177 488 1159 q 412 1201 429 1194 q 380 1209 395 1209 q 349 1198 360 1209 q 323 1165 337 1187 q 310 1144 315 1151 q 296 1138 304 1138 m 261 901 q 228 919 242 901 q 214 972 214 937 q 224 1002 214 989 q 247 1023 234 1015 l 305 1063 q 390 1117 361 1101 q 446 1133 418 1133 q 488 1115 467 1133 q 536 1066 509 1097 l 552 1048 q 600 1013 566 1034 q 641 983 627 996 q 654 956 654 971 q 645 922 654 940 q 620 893 635 905 q 585 882 604 882 q 556 895 572 882 q 515 936 540 909 q 473 980 490 963 q 436 1007 455 996 q 391 972 420 996 q 317 918 346 936 q 261 901 289 901 z "},"Ö":{"ha":846,"x_min":78,"x_max":762,"o":"m 441 828 q 616 778 545 828 q 725 632 688 727 q 762 406 762 538 q 714 188 762 284 q 589 38 667 92 q 420 -16 510 -16 q 251 47 330 -16 q 125 207 172 110 q 78 400 78 304 q 131 644 80 548 q 263 784 182 740 q 441 828 345 828 m 414 115 q 545 148 484 115 q 643 246 606 181 q 680 401 680 311 q 650 559 680 492 q 569 664 621 627 q 452 701 517 701 q 311 669 377 701 q 205 574 245 637 q 165 420 165 511 q 200 276 165 347 q 293 160 235 205 q 414 115 351 115 m 344 1135 q 375 1112 361 1135 q 388 1048 388 1090 q 378 987 388 1013 q 355 950 369 962 q 330 938 341 938 q 280 963 296 938 q 264 1038 264 989 q 278 1084 264 1062 q 311 1121 292 1107 q 344 1135 330 1135 m 632 1031 q 622 989 632 1010 q 596 952 612 967 q 568 938 581 938 q 523 962 541 938 q 506 1025 506 987 q 515 1076 506 1050 q 542 1117 525 1101 q 578 1133 558 1133 q 619 1101 606 1133 q 632 1031 632 1068 z "},"Ọ":{"ha":846,"x_min":78,"x_max":762,"o":"m 441 828 q 616 778 545 828 q 725 632 688 727 q 762 406 762 538 q 714 188 762 284 q 589 38 667 92 q 420 -16 510 -16 q 251 47 330 -16 q 125 207 172 110 q 78 400 78 304 q 131 644 80 548 q 263 784 182 740 q 441 828 345 828 m 414 115 q 545 148 484 115 q 643 246 606 181 q 680 401 680 311 q 650 559 680 492 q 569 664 621 627 q 452 701 517 701 q 311 669 377 701 q 205 574 245 637 q 165 420 165 511 q 200 276 165 347 q 293 160 235 205 q 414 115 351 115 m 488 -230 q 425 -315 488 -315 q 373 -299 397 -315 q 349 -241 349 -283 q 360 -199 349 -220 q 388 -165 371 -178 q 420 -151 404 -151 q 468 -169 448 -151 q 488 -230 488 -187 z "},"Ò":{"ha":846,"x_min":78,"x_max":762,"o":"m 441 828 q 616 778 545 828 q 725 632 688 727 q 762 406 762 538 q 714 188 762 284 q 589 38 667 92 q 420 -16 510 -16 q 251 47 330 -16 q 125 207 172 110 q 78 400 78 304 q 131 644 80 548 q 263 784 182 740 q 441 828 345 828 m 414 115 q 545 148 484 115 q 643 246 606 181 q 680 401 680 311 q 650 559 680 492 q 569 664 621 627 q 452 701 517 701 q 311 669 377 701 q 205 574 245 637 q 165 420 165 511 q 200 276 165 347 q 293 160 235 205 q 414 115 351 115 m 308 1105 q 322 1149 308 1135 q 359 1162 336 1162 q 407 1145 378 1162 q 480 1097 436 1128 q 545 1053 525 1065 q 580 1023 567 1039 q 593 984 593 1006 q 586 955 593 965 q 572 942 580 945 q 564 939 564 938 q 474 965 538 939 q 359 1028 410 990 q 308 1105 308 1066 z "},"Ỏ":{"ha":846,"x_min":78,"x_max":762,"o":"m 441 828 q 616 778 545 828 q 725 632 688 727 q 762 406 762 538 q 714 188 762 284 q 589 38 667 92 q 420 -16 510 -16 q 251 47 330 -16 q 125 207 172 110 q 78 400 78 304 q 131 644 80 548 q 263 784 182 740 q 441 828 345 828 m 414 115 q 545 148 484 115 q 643 246 606 181 q 680 401 680 311 q 650 559 680 492 q 569 664 621 627 q 452 701 517 701 q 311 669 377 701 q 205 574 245 637 q 165 420 165 511 q 200 276 165 347 q 293 160 235 205 q 414 115 351 115 m 483 1118 q 472 1089 483 1103 q 443 1066 460 1075 q 407 1057 425 1057 q 377 1049 387 1057 q 366 1021 366 1040 q 379 989 366 1001 q 412 977 391 977 q 499 1003 452 977 q 577 1071 545 1029 q 609 1158 609 1113 q 594 1209 609 1183 q 554 1254 578 1235 q 509 1277 539 1266 q 446 1287 478 1287 q 394 1269 416 1287 q 372 1226 372 1251 q 380 1197 372 1208 q 400 1179 388 1185 q 431 1166 412 1173 q 470 1147 458 1156 q 483 1118 483 1138 z "},"Ơ":{"ha":846,"x_min":71,"x_max":941,"o":"m 784 964 q 864 944 827 964 q 921 891 900 925 q 941 814 941 857 q 926 732 941 766 q 889 678 911 699 q 836 635 868 658 l 808 614 l 747 579 q 768 406 768 503 q 720 188 768 284 q 590 38 671 92 q 420 -16 510 -16 q 249 47 330 -16 q 120 207 168 110 q 71 400 71 304 q 126 644 73 548 q 261 784 178 740 q 441 828 345 828 q 602 788 533 828 q 711 672 670 748 q 735 685 721 678 q 755 694 749 691 q 803 720 785 709 q 833 746 821 730 q 845 785 845 762 q 833 815 845 802 q 804 837 821 829 q 774 845 787 845 q 742 839 754 845 q 716 821 730 833 q 696 806 705 810 q 673 801 687 801 q 654 817 661 801 q 648 857 648 833 q 689 942 648 920 q 784 964 730 964 m 414 115 q 545 148 484 115 q 643 246 606 181 q 680 401 680 311 q 650 559 680 492 q 569 664 621 627 q 452 701 517 701 q 311 669 377 701 q 205 574 245 637 q 165 420 165 511 q 200 276 165 347 q 293 160 235 205 q 414 115 351 115 z "},"Ớ":{"ha":846,"x_min":71,"x_max":941,"o":"m 784 964 q 864 944 827 964 q 921 891 900 925 q 941 814 941 857 q 926 732 941 766 q 889 678 911 699 q 836 635 868 658 l 808 614 l 747 579 q 768 406 768 503 q 720 188 768 284 q 590 38 671 92 q 420 -16 510 -16 q 249 47 330 -16 q 120 207 168 110 q 71 400 71 304 q 126 644 73 548 q 261 784 178 740 q 441 828 345 828 q 602 788 533 828 q 711 672 670 748 q 735 685 721 678 q 755 694 749 691 q 803 720 785 709 q 833 746 821 730 q 845 785 845 762 q 833 815 845 802 q 804 837 821 829 q 774 845 787 845 q 742 839 754 845 q 716 821 730 833 q 696 806 705 810 q 673 801 687 801 q 654 817 661 801 q 648 857 648 833 q 689 942 648 920 q 784 964 730 964 m 414 115 q 545 148 484 115 q 643 246 606 181 q 680 401 680 311 q 650 559 680 492 q 569 664 621 627 q 452 701 517 701 q 311 669 377 701 q 205 574 245 637 q 165 420 165 511 q 200 276 165 347 q 293 160 235 205 q 414 115 351 115 m 326 984 q 339 1023 326 1006 q 372 1053 351 1039 q 436 1096 404 1073 q 512 1146 484 1129 q 559 1162 541 1162 q 595 1149 582 1162 q 608 1105 608 1135 q 557 1028 608 1066 q 443 965 507 990 q 353 939 378 939 q 346 942 353 938 q 332 955 338 945 q 326 984 326 965 z "},"Ợ":{"ha":846,"x_min":71,"x_max":941,"o":"m 784 964 q 864 944 827 964 q 921 891 900 925 q 941 814 941 857 q 926 732 941 766 q 889 678 911 699 q 836 635 868 658 l 808 614 l 747 579 q 768 406 768 503 q 720 188 768 284 q 590 38 671 92 q 420 -16 510 -16 q 249 47 330 -16 q 120 207 168 110 q 71 400 71 304 q 126 644 73 548 q 261 784 178 740 q 441 828 345 828 q 602 788 533 828 q 711 672 670 748 q 735 685 721 678 q 755 694 749 691 q 803 720 785 709 q 833 746 821 730 q 845 785 845 762 q 833 815 845 802 q 804 837 821 829 q 774 845 787 845 q 742 839 754 845 q 716 821 730 833 q 696 806 705 810 q 673 801 687 801 q 654 817 661 801 q 648 857 648 833 q 689 942 648 920 q 784 964 730 964 m 414 115 q 545 148 484 115 q 643 246 606 181 q 680 401 680 311 q 650 559 680 492 q 569 664 621 627 q 452 701 517 701 q 311 669 377 701 q 205 574 245 637 q 165 420 165 511 q 200 276 165 347 q 293 160 235 205 q 414 115 351 115 m 486 -230 q 423 -315 486 -315 q 371 -299 395 -315 q 347 -241 347 -283 q 358 -199 347 -220 q 386 -165 369 -178 q 418 -151 402 -151 q 466 -169 446 -151 q 486 -230 486 -187 z "},"Ờ":{"ha":846,"x_min":71,"x_max":941,"o":"m 784 964 q 864 944 827 964 q 921 891 900 925 q 941 814 941 857 q 926 732 941 766 q 889 678 911 699 q 836 635 868 658 l 808 614 l 747 579 q 768 406 768 503 q 720 188 768 284 q 590 38 671 92 q 420 -16 510 -16 q 249 47 330 -16 q 120 207 168 110 q 71 400 71 304 q 126 644 73 548 q 261 784 178 740 q 441 828 345 828 q 602 788 533 828 q 711 672 670 748 q 735 685 721 678 q 755 694 749 691 q 803 720 785 709 q 833 746 821 730 q 845 785 845 762 q 833 815 845 802 q 804 837 821 829 q 774 845 787 845 q 742 839 754 845 q 716 821 730 833 q 696 806 705 810 q 673 801 687 801 q 654 817 661 801 q 648 857 648 833 q 689 942 648 920 q 784 964 730 964 m 414 115 q 545 148 484 115 q 643 246 606 181 q 680 401 680 311 q 650 559 680 492 q 569 664 621 627 q 452 701 517 701 q 311 669 377 701 q 205 574 245 637 q 165 420 165 511 q 200 276 165 347 q 293 160 235 205 q 414 115 351 115 m 275 1105 q 289 1149 275 1135 q 326 1162 302 1162 q 374 1145 345 1162 q 447 1097 403 1128 q 512 1053 492 1065 q 547 1023 534 1039 q 559 984 559 1006 q 553 955 559 965 q 538 942 547 945 q 530 939 530 938 q 441 965 505 939 q 326 1028 377 990 q 275 1105 275 1066 z "},"Ở":{"ha":846,"x_min":71,"x_max":941,"o":"m 784 964 q 864 944 827 964 q 921 891 900 925 q 941 814 941 857 q 926 732 941 766 q 889 678 911 699 q 836 635 868 658 l 808 614 l 747 579 q 768 406 768 503 q 720 188 768 284 q 590 38 671 92 q 420 -16 510 -16 q 249 47 330 -16 q 120 207 168 110 q 71 400 71 304 q 126 644 73 548 q 261 784 178 740 q 441 828 345 828 q 602 788 533 828 q 711 672 670 748 q 735 685 721 678 q 755 694 749 691 q 803 720 785 709 q 833 746 821 730 q 845 785 845 762 q 833 815 845 802 q 804 837 821 829 q 774 845 787 845 q 742 839 754 845 q 716 821 730 833 q 696 806 705 810 q 673 801 687 801 q 654 817 661 801 q 648 857 648 833 q 689 942 648 920 q 784 964 730 964 m 414 115 q 545 148 484 115 q 643 246 606 181 q 680 401 680 311 q 650 559 680 492 q 569 664 621 627 q 452 701 517 701 q 311 669 377 701 q 205 574 245 637 q 165 420 165 511 q 200 276 165 347 q 293 160 235 205 q 414 115 351 115 m 450 1118 q 438 1089 450 1103 q 410 1066 427 1075 q 374 1057 392 1057 q 343 1049 354 1057 q 333 1021 333 1040 q 346 989 333 1001 q 379 977 358 977 q 466 1003 419 977 q 544 1071 512 1029 q 576 1158 576 1113 q 561 1209 576 1183 q 521 1254 545 1235 q 475 1277 506 1266 q 413 1287 445 1287 q 360 1269 382 1287 q 338 1226 338 1251 q 347 1197 338 1208 q 367 1179 355 1185 q 398 1166 378 1173 q 437 1147 425 1156 q 450 1118 450 1138 z "},"Ỡ":{"ha":846,"x_min":71,"x_max":941,"o":"m 784 964 q 864 944 827 964 q 921 891 900 925 q 941 814 941 857 q 926 732 941 766 q 889 678 911 699 q 836 635 868 658 l 808 614 l 747 579 q 768 406 768 503 q 720 188 768 284 q 590 38 671 92 q 420 -16 510 -16 q 249 47 330 -16 q 120 207 168 110 q 71 400 71 304 q 126 644 73 548 q 261 784 178 740 q 441 828 345 828 q 602 788 533 828 q 711 672 670 748 q 735 685 721 678 q 755 694 749 691 q 803 720 785 709 q 833 746 821 730 q 845 785 845 762 q 833 815 845 802 q 804 837 821 829 q 774 845 787 845 q 742 839 754 845 q 716 821 730 833 q 696 806 705 810 q 673 801 687 801 q 654 817 661 801 q 648 857 648 833 q 689 942 648 920 q 784 964 730 964 m 414 115 q 545 148 484 115 q 643 246 606 181 q 680 401 680 311 q 650 559 680 492 q 569 664 621 627 q 452 701 517 701 q 311 669 377 701 q 205 574 245 637 q 165 420 165 511 q 200 276 165 347 q 293 160 235 205 q 414 115 351 115 m 235 951 q 207 967 219 951 q 195 1008 195 983 q 213 1076 195 1045 q 260 1124 231 1107 q 320 1142 289 1142 q 382 1127 357 1142 q 436 1085 408 1112 q 467 1059 455 1067 q 492 1051 479 1051 q 521 1060 511 1051 q 543 1084 532 1068 q 559 1104 553 1098 q 577 1110 566 1110 q 601 1097 593 1110 q 608 1065 608 1084 q 595 1001 608 1033 q 555 948 581 969 q 492 928 528 928 q 449 941 471 928 q 397 980 427 955 q 352 1014 369 1003 q 319 1025 335 1025 q 287 1013 299 1025 q 262 979 275 1001 q 248 958 254 965 q 235 951 243 951 z "},"Ő":{"ha":846,"x_min":78,"x_max":831,"o":"m 441 828 q 616 778 545 828 q 725 632 688 727 q 762 406 762 538 q 714 188 762 284 q 589 38 667 92 q 420 -16 510 -16 q 251 47 330 -16 q 125 207 172 110 q 78 400 78 304 q 131 644 80 548 q 263 784 182 740 q 441 828 345 828 m 414 115 q 545 148 484 115 q 643 246 606 181 q 680 401 680 311 q 650 559 680 492 q 569 664 621 627 q 452 701 517 701 q 311 669 377 701 q 205 574 245 637 q 165 420 165 511 q 200 276 165 347 q 293 160 235 205 q 414 115 351 115 m 210 984 q 223 1023 210 1006 q 256 1053 235 1039 q 295 1083 275 1064 q 345 1131 316 1102 q 405 1188 382 1169 q 444 1206 428 1206 q 479 1193 466 1206 q 492 1149 492 1179 q 447 1062 492 1111 q 346 976 402 1013 q 266 939 289 939 q 250 942 266 938 q 222 955 235 945 q 210 984 210 965 m 548 984 q 561 1023 548 1006 q 595 1053 573 1039 q 634 1083 613 1064 q 683 1131 654 1102 q 744 1188 722 1171 q 781 1206 765 1206 q 817 1193 803 1206 q 831 1149 831 1179 q 786 1062 831 1111 q 684 976 741 1013 q 605 939 627 939 q 589 942 605 938 q 561 955 573 945 q 548 984 548 965 z "},"Ō":{"ha":846,"x_min":78,"x_max":762,"o":"m 441 828 q 616 778 545 828 q 725 632 688 727 q 762 406 762 538 q 714 188 762 284 q 589 38 667 92 q 420 -16 510 -16 q 251 47 330 -16 q 125 207 172 110 q 78 400 78 304 q 131 644 80 548 q 263 784 182 740 q 441 828 345 828 m 414 115 q 545 148 484 115 q 643 246 606 181 q 680 401 680 311 q 650 559 680 492 q 569 664 621 627 q 452 701 517 701 q 311 669 377 701 q 205 574 245 637 q 165 420 165 511 q 200 276 165 347 q 293 160 235 205 q 414 115 351 115 m 616 1099 q 640 1095 631 1099 q 653 1079 648 1091 q 657 1041 657 1066 q 651 992 657 1008 q 635 974 644 977 q 609 970 625 970 l 275 970 q 239 993 252 970 q 227 1042 227 1016 q 240 1086 227 1066 q 269 1105 253 1105 l 616 1099 z "},"Ǫ":{"ha":846,"x_min":78,"x_max":762,"o":"m 527 5 q 493 -27 513 -10 q 467 -50 472 -45 q 416 -93 435 -76 q 385 -132 398 -111 q 372 -175 372 -153 q 384 -205 372 -192 q 413 -227 396 -219 q 442 -235 429 -235 q 475 -229 463 -235 q 500 -211 488 -222 q 521 -196 512 -201 q 544 -191 530 -191 q 563 -208 557 -191 q 570 -247 570 -224 q 433 -353 570 -353 q 353 -334 389 -353 q 296 -281 317 -315 q 275 -204 275 -247 q 296 -99 275 -149 q 350 -5 317 -48 q 212 82 275 18 q 114 231 150 146 q 78 400 78 317 q 131 644 80 548 q 263 784 182 740 q 441 828 345 828 q 616 778 545 828 q 725 632 688 727 q 762 406 762 538 q 731 227 762 309 q 647 89 701 146 q 527 5 594 32 m 165 420 q 200 276 165 347 q 293 160 235 205 q 414 115 351 115 q 545 148 484 115 q 643 246 606 181 q 680 401 680 311 q 650 559 680 492 q 569 664 621 627 q 452 701 517 701 q 311 669 377 701 q 205 574 245 637 q 165 420 165 511 z "},"Ø":{"ha":803,"x_min":52,"x_max":747,"o":"m 397 -16 q 315 -1 361 -16 q 229 34 269 13 q 196 -21 214 2 q 161 -45 178 -45 q 138 -33 153 -45 q 113 -2 123 -20 q 102 33 102 16 q 105 48 102 38 q 111 62 109 58 l 148 124 q 80 259 108 180 q 52 404 52 337 q 104 645 52 550 q 240 784 157 741 q 420 828 323 828 q 583 785 496 828 q 587 784 585 785 q 591 783 589 783 l 610 802 q 626 818 614 806 q 647 836 637 829 q 663 843 656 843 q 695 828 680 843 q 710 786 710 812 q 706 755 710 768 q 695 734 701 741 l 669 702 q 726 569 705 646 q 747 404 747 492 q 699 188 747 283 q 570 38 650 92 q 397 -16 489 -16 m 285 337 q 509 677 432 570 q 473 691 491 687 q 429 695 454 695 q 291 664 355 695 q 187 570 227 633 q 148 418 148 508 q 166 320 148 370 q 216 230 184 270 l 285 337 m 392 119 q 522 153 462 119 q 617 252 581 186 q 653 408 653 317 q 636 519 653 464 q 593 610 618 574 q 462 421 543 552 l 355 247 q 313 177 334 212 l 296 148 q 340 126 314 134 q 392 119 366 119 z "},"Õ":{"ha":846,"x_min":78,"x_max":762,"o":"m 441 828 q 616 778 545 828 q 725 632 688 727 q 762 406 762 538 q 714 188 762 284 q 589 38 667 92 q 420 -16 510 -16 q 251 47 330 -16 q 125 207 172 110 q 78 400 78 304 q 131 644 80 548 q 263 784 182 740 q 441 828 345 828 m 414 115 q 545 148 484 115 q 643 246 606 181 q 680 401 680 311 q 650 559 680 492 q 569 664 621 627 q 452 701 517 701 q 311 669 377 701 q 205 574 245 637 q 165 420 165 511 q 200 276 165 347 q 293 160 235 205 q 414 115 351 115 m 269 951 q 240 967 252 951 q 228 1008 228 983 q 246 1076 228 1045 q 293 1124 264 1107 q 353 1142 322 1142 q 415 1127 390 1142 q 469 1085 441 1112 q 500 1059 488 1067 q 526 1051 513 1051 q 554 1060 544 1051 q 576 1084 565 1068 q 593 1104 586 1098 q 610 1110 600 1110 q 634 1097 626 1110 q 642 1065 642 1084 q 628 1001 642 1033 q 588 948 614 969 q 526 928 562 928 q 482 941 504 928 q 430 980 460 955 q 385 1014 402 1003 q 352 1025 368 1025 q 320 1013 332 1025 q 296 979 309 1001 q 281 958 287 965 q 269 951 276 951 z "},"Œ":{"ha":1260,"x_min":79,"x_max":1183,"o":"m 1102 131 q 1157 113 1143 131 q 1172 52 1172 94 q 1153 -3 1172 14 q 1102 -20 1133 -20 q 1078 -16 1090 -20 q 1011 -5 1056 -9 q 850 -1 966 -1 q 798 -4 836 -1 q 723 -8 753 -8 q 693 -1 705 -8 q 674 28 682 6 q 667 92 667 50 q 610 41 654 66 q 513 0 566 16 q 424 -16 460 -16 q 253 47 333 -16 q 126 207 174 110 q 79 400 79 304 q 130 645 79 549 q 263 784 180 741 q 444 828 346 828 q 533 813 487 828 q 617 770 578 798 q 677 707 655 742 q 692 793 681 751 q 723 835 703 835 q 741 832 732 835 q 764 822 750 829 q 786 812 777 815 q 806 808 795 808 q 928 811 842 808 q 1105 814 1059 814 q 1154 810 1138 814 q 1176 791 1169 806 q 1183 747 1183 777 q 1170 703 1183 725 q 1140 680 1156 680 l 760 686 l 760 496 q 901 494 844 496 q 949 492 937 492 q 984 496 964 492 q 1028 499 1018 499 q 1061 483 1048 499 q 1074 431 1074 466 q 1069 404 1074 420 q 1055 374 1064 387 q 1032 361 1046 361 l 765 361 l 764 203 q 764 141 764 178 q 935 136 823 141 q 1004 133 951 135 q 1102 131 1057 131 m 418 119 q 511 137 461 119 q 605 189 561 155 q 673 266 648 222 l 673 376 q 667 398 672 382 q 663 425 663 414 q 667 450 663 437 q 677 469 671 463 l 677 552 q 618 622 655 589 q 538 675 581 655 q 455 695 495 695 q 316 664 380 695 q 212 570 251 632 q 172 418 172 507 q 207 277 172 347 q 298 163 241 207 q 418 119 355 119 z "},"P":{"ha":670,"x_min":93,"x_max":620,"o":"m 113 510 q 117 645 113 591 q 136 733 121 699 q 178 769 150 768 q 197 753 185 769 q 204 745 199 751 q 215 739 210 739 q 262 774 233 757 q 327 803 292 792 q 394 812 362 814 q 569 757 518 812 q 620 593 620 702 q 571 405 620 480 q 434 293 522 330 q 225 256 345 256 q 201 260 215 256 q 201 235 202 254 q 199 165 199 204 q 205 43 199 125 q 190 3 205 13 q 160 -7 176 -7 q 122 -1 136 -7 q 101 36 109 4 q 100 138 93 67 l 113 280 q 105 302 109 288 q 102 324 102 316 q 107 376 102 343 q 113 433 113 408 l 113 510 m 269 395 q 399 414 338 395 q 499 470 461 433 q 536 557 536 507 q 494 653 536 617 q 368 688 452 688 q 277 674 330 688 q 212 646 224 661 q 209 611 212 644 q 200 407 205 578 q 235 398 220 401 q 269 395 250 395 z "},"Ṗ":{"ha":670,"x_min":93,"x_max":620,"o":"m 113 510 q 117 645 113 591 q 136 733 121 699 q 178 769 150 768 q 197 753 185 769 q 204 745 199 751 q 215 739 210 739 q 262 774 233 757 q 327 803 292 792 q 394 812 362 814 q 569 757 518 812 q 620 593 620 702 q 571 405 620 480 q 434 293 522 330 q 225 256 345 256 q 201 260 215 256 q 201 235 202 254 q 199 165 199 204 q 205 43 199 125 q 190 3 205 13 q 160 -7 176 -7 q 122 -1 136 -7 q 101 36 109 4 q 100 138 93 67 l 113 280 q 105 302 109 288 q 102 324 102 316 q 107 376 102 343 q 113 433 113 408 l 113 510 m 269 395 q 399 414 338 395 q 499 470 461 433 q 536 557 536 507 q 494 653 536 617 q 368 688 452 688 q 277 674 330 688 q 212 646 224 661 q 209 611 212 644 q 200 407 205 578 q 235 398 220 401 q 269 395 250 395 m 363 1164 q 412 1146 391 1164 q 433 1086 433 1129 q 416 1023 433 1044 q 369 1001 400 1001 q 318 1018 342 1001 q 295 1078 295 1036 q 306 1118 295 1098 q 332 1151 316 1138 q 363 1164 348 1164 z "},"Þ":{"ha":656,"x_min":97,"x_max":606,"o":"m 196 153 q 200 96 196 137 q 204 31 204 52 q 187 -9 204 1 q 151 -20 170 -20 q 109 0 121 -20 q 98 67 97 20 l 108 755 q 121 824 108 802 q 161 846 134 846 q 194 841 182 846 q 207 825 207 835 l 205 648 q 236 654 225 651 q 301 667 278 663 q 349 670 323 670 q 542 617 477 670 q 606 460 606 564 q 586 331 606 379 q 544 260 566 283 q 469 211 520 236 q 355 168 417 185 q 241 151 294 151 l 196 153 m 203 304 q 271 287 236 287 q 444 318 376 287 q 511 424 511 349 q 473 512 511 482 q 353 541 435 541 q 261 535 308 541 q 203 515 215 529 l 203 304 z "},"Q":{"ha":861,"x_min":71,"x_max":810,"o":"m 699 138 q 777 12 745 71 q 810 -71 810 -47 q 799 -115 810 -99 q 768 -130 789 -130 q 732 -123 751 -130 q 704 -98 713 -116 q 670 -41 696 -83 q 612 50 644 1 q 511 1 566 17 q 400 -16 457 -16 q 224 36 298 -16 q 111 185 150 88 q 71 414 71 281 q 120 628 71 533 q 251 775 170 722 q 424 828 332 828 q 595 766 515 828 q 724 607 676 703 q 772 414 772 510 q 699 138 772 246 m 392 115 q 541 151 475 115 q 448 256 490 216 l 448 289 q 457 338 448 319 q 483 357 467 357 q 543 331 515 357 q 604 262 571 304 q 621 239 615 246 l 631 229 q 677 389 677 295 q 643 538 677 465 q 550 658 608 612 q 429 704 492 704 q 298 668 358 704 q 201 565 237 633 q 165 404 165 496 q 194 250 165 315 q 274 150 223 184 q 392 115 326 115 z "},"R":{"ha":719,"x_min":102,"x_max":651,"o":"m 227 60 q 211 9 227 28 q 168 -9 195 -9 q 134 15 149 -9 q 119 68 119 39 q 121 101 119 78 q 124 132 124 123 q 119 196 124 149 q 106 336 111 265 q 102 495 102 407 q 110 615 102 561 q 141 694 117 669 q 387 810 259 810 q 477 789 435 810 q 546 726 519 768 q 572 620 572 683 q 548 524 572 563 q 485 460 524 484 q 591 389 555 436 q 639 277 627 342 q 651 117 651 212 q 648 34 651 65 q 635 -19 646 2 q 602 -41 625 -41 q 567 -19 576 -41 q 557 41 557 2 l 557 58 q 558 107 557 90 l 559 161 q 557 212 559 191 q 551 262 555 234 q 497 319 534 297 q 415 351 460 341 q 328 361 370 361 q 266 350 309 361 q 199 326 224 339 q 208 186 200 265 q 227 60 216 106 m 186 538 q 191 471 186 503 q 317 504 247 481 q 437 553 387 526 q 488 604 488 580 q 458 668 488 649 q 388 687 429 687 q 304 673 351 687 q 223 634 257 659 q 188 581 189 610 l 187 559 q 186 538 186 546 z "},"Ŕ":{"ha":719,"x_min":102,"x_max":651,"o":"m 227 60 q 211 9 227 28 q 168 -9 195 -9 q 134 15 149 -9 q 119 68 119 39 q 121 101 119 78 q 124 132 124 123 q 119 196 124 149 q 106 336 111 265 q 102 495 102 407 q 110 615 102 561 q 141 694 117 669 q 387 810 259 810 q 477 789 435 810 q 546 726 519 768 q 572 620 572 683 q 548 524 572 563 q 485 460 524 484 q 591 389 555 436 q 639 277 627 342 q 651 117 651 212 q 648 34 651 65 q 635 -19 646 2 q 602 -41 625 -41 q 567 -19 576 -41 q 557 41 557 2 l 557 58 q 558 107 557 90 l 559 161 q 557 212 559 191 q 551 262 555 234 q 497 319 534 297 q 415 351 460 341 q 328 361 370 361 q 266 350 309 361 q 199 326 224 339 q 208 186 200 265 q 227 60 216 106 m 186 538 q 191 471 186 503 q 317 504 247 481 q 437 553 387 526 q 488 604 488 580 q 458 668 488 649 q 388 687 429 687 q 304 673 351 687 q 223 634 257 659 q 188 581 189 610 l 187 559 q 186 538 186 546 m 292 984 q 305 1023 292 1006 q 338 1053 317 1039 q 402 1096 370 1073 q 478 1146 450 1129 q 526 1162 507 1162 q 561 1149 548 1162 q 574 1105 574 1135 q 524 1028 574 1066 q 409 965 473 990 q 319 939 345 939 q 312 942 319 938 q 298 955 304 945 q 292 984 292 965 z "},"Ř":{"ha":719,"x_min":102,"x_max":651,"o":"m 227 60 q 211 9 227 28 q 168 -9 195 -9 q 134 15 149 -9 q 119 68 119 39 q 121 101 119 78 q 124 132 124 123 q 119 196 124 149 q 106 336 111 265 q 102 495 102 407 q 110 615 102 561 q 141 694 117 669 q 387 810 259 810 q 477 789 435 810 q 546 726 519 768 q 572 620 572 683 q 548 524 572 563 q 485 460 524 484 q 591 389 555 436 q 639 277 627 342 q 651 117 651 212 q 648 34 651 65 q 635 -19 646 2 q 602 -41 625 -41 q 567 -19 576 -41 q 557 41 557 2 l 557 58 q 558 107 557 90 l 559 161 q 557 212 559 191 q 551 262 555 234 q 497 319 534 297 q 415 351 460 341 q 328 361 370 361 q 266 350 309 361 q 199 326 224 339 q 208 186 200 265 q 227 60 216 106 m 186 538 q 191 471 186 503 q 317 504 247 481 q 437 553 387 526 q 488 604 488 580 q 458 668 488 649 q 388 687 429 687 q 304 673 351 687 q 223 634 257 659 q 188 581 189 610 l 187 559 q 186 538 186 546 m 369 1056 q 435 1120 397 1091 q 512 1165 473 1149 q 580 1181 550 1181 q 609 1163 595 1181 q 623 1122 623 1145 q 610 1074 623 1096 q 580 1051 596 1053 q 528 1033 556 1048 q 459 994 500 1019 q 401 960 420 970 q 368 950 381 950 q 347 955 356 951 q 328 965 337 958 q 208 1038 277 1015 q 177 1051 188 1045 q 160 1067 167 1057 q 153 1093 153 1077 q 160 1135 153 1116 q 177 1164 167 1154 q 197 1175 187 1175 q 281 1138 231 1175 q 369 1056 332 1101 z "},"Ŗ":{"ha":719,"x_min":102,"x_max":651,"o":"m 227 60 q 211 9 227 28 q 168 -9 195 -9 q 134 15 149 -9 q 119 68 119 39 q 121 101 119 78 q 124 132 124 123 q 119 196 124 149 q 106 336 111 265 q 102 495 102 407 q 110 615 102 561 q 141 694 117 669 q 387 810 259 810 q 477 789 435 810 q 546 726 519 768 q 572 620 572 683 q 548 524 572 563 q 485 460 524 484 q 591 389 555 436 q 639 277 627 342 q 651 117 651 212 q 648 34 651 65 q 635 -19 646 2 q 602 -41 625 -41 q 567 -19 576 -41 q 557 41 557 2 l 557 58 q 558 107 557 90 l 559 161 q 557 212 559 191 q 551 262 555 234 q 497 319 534 297 q 415 351 460 341 q 328 361 370 361 q 266 350 309 361 q 199 326 224 339 q 208 186 200 265 q 227 60 216 106 m 186 538 q 191 471 186 503 q 317 504 247 481 q 437 553 387 526 q 488 604 488 580 q 458 668 488 649 q 388 687 429 687 q 304 673 351 687 q 223 634 257 659 q 188 581 189 610 l 187 559 q 186 538 186 546 m 276 -199 q 293 -161 282 -187 q 314 -118 304 -134 q 338 -92 323 -102 q 376 -81 353 -81 q 410 -92 394 -81 q 436 -120 427 -102 q 446 -155 446 -137 q 417 -227 446 -181 q 350 -307 388 -272 q 289 -342 312 -342 q 252 -328 267 -342 q 237 -291 237 -314 q 242 -258 236 -273 q 261 -224 249 -243 q 276 -199 271 -210 z "},"Ṛ":{"ha":719,"x_min":102,"x_max":651,"o":"m 227 60 q 211 9 227 28 q 168 -9 195 -9 q 134 15 149 -9 q 119 68 119 39 q 121 101 119 78 q 124 132 124 123 q 119 196 124 149 q 106 336 111 265 q 102 495 102 407 q 110 615 102 561 q 141 694 117 669 q 387 810 259 810 q 477 789 435 810 q 546 726 519 768 q 572 620 572 683 q 548 524 572 563 q 485 460 524 484 q 591 389 555 436 q 639 277 627 342 q 651 117 651 212 q 648 34 651 65 q 635 -19 646 2 q 602 -41 625 -41 q 567 -19 576 -41 q 557 41 557 2 l 557 58 q 558 107 557 90 l 559 161 q 557 212 559 191 q 551 262 555 234 q 497 319 534 297 q 415 351 460 341 q 328 361 370 361 q 266 350 309 361 q 199 326 224 339 q 208 186 200 265 q 227 60 216 106 m 186 538 q 191 471 186 503 q 317 504 247 481 q 437 553 387 526 q 488 604 488 580 q 458 668 488 649 q 388 687 429 687 q 304 673 351 687 q 223 634 257 659 q 188 581 189 610 l 187 559 q 186 538 186 546 m 445 -230 q 382 -315 445 -315 q 330 -299 353 -315 q 306 -241 306 -283 q 317 -199 306 -220 q 344 -165 328 -178 q 376 -151 361 -151 q 425 -169 404 -151 q 445 -230 445 -187 z "},"Ṝ":{"ha":719,"x_min":102,"x_max":651,"o":"m 227 60 q 211 9 227 28 q 168 -9 195 -9 q 134 15 149 -9 q 119 68 119 39 q 121 101 119 78 q 124 132 124 123 q 119 196 124 149 q 106 336 111 265 q 102 495 102 407 q 110 615 102 561 q 141 694 117 669 q 387 810 259 810 q 477 789 435 810 q 546 726 519 768 q 572 620 572 683 q 548 524 572 563 q 485 460 524 484 q 591 389 555 436 q 639 277 627 342 q 651 117 651 212 q 648 34 651 65 q 635 -19 646 2 q 602 -41 625 -41 q 567 -19 576 -41 q 557 41 557 2 l 557 58 q 558 107 557 90 l 559 161 q 557 212 559 191 q 551 262 555 234 q 497 319 534 297 q 415 351 460 341 q 328 361 370 361 q 266 350 309 361 q 199 326 224 339 q 208 186 200 265 q 227 60 216 106 m 186 538 q 191 471 186 503 q 317 504 247 481 q 437 553 387 526 q 488 604 488 580 q 458 668 488 649 q 388 687 429 687 q 304 673 351 687 q 223 634 257 659 q 188 581 189 610 l 187 559 q 186 538 186 546 m 445 -230 q 382 -315 445 -315 q 330 -299 353 -315 q 306 -241 306 -283 q 317 -199 306 -220 q 344 -165 328 -178 q 376 -151 361 -151 q 425 -169 404 -151 q 445 -230 445 -187 m 549 1099 q 573 1095 564 1099 q 586 1079 581 1091 q 590 1041 590 1066 q 584 992 590 1008 q 568 974 577 977 q 542 970 558 970 l 208 970 q 172 993 184 970 q 159 1042 159 1016 q 173 1086 159 1066 q 201 1105 186 1105 l 549 1099 z "},"Ṟ":{"ha":719,"x_min":102,"x_max":651,"o":"m 227 60 q 211 9 227 28 q 168 -9 195 -9 q 134 15 149 -9 q 119 68 119 39 q 121 101 119 78 q 124 132 124 123 q 119 196 124 149 q 106 336 111 265 q 102 495 102 407 q 110 615 102 561 q 141 694 117 669 q 387 810 259 810 q 477 789 435 810 q 546 726 519 768 q 572 620 572 683 q 548 524 572 563 q 485 460 524 484 q 591 389 555 436 q 639 277 627 342 q 651 117 651 212 q 648 34 651 65 q 635 -19 646 2 q 602 -41 625 -41 q 567 -19 576 -41 q 557 41 557 2 l 557 58 q 558 107 557 90 l 559 161 q 557 212 559 191 q 551 262 555 234 q 497 319 534 297 q 415 351 460 341 q 328 361 370 361 q 266 350 309 361 q 199 326 224 339 q 208 186 200 265 q 227 60 216 106 m 186 538 q 191 471 186 503 q 317 504 247 481 q 437 553 387 526 q 488 604 488 580 q 458 668 488 649 q 388 687 429 687 q 304 673 351 687 q 223 634 257 659 q 188 581 189 610 l 187 559 q 186 538 186 546 m 570 -162 q 601 -179 591 -162 q 611 -235 611 -196 q 604 -280 611 -269 q 582 -291 597 -291 l 564 -290 l 229 -290 q 192 -275 205 -290 q 180 -239 180 -260 q 186 -203 180 -222 q 203 -171 193 -184 q 223 -157 214 -157 q 316 -158 275 -157 q 385 -159 357 -159 q 570 -162 503 -162 z "},"S":{"ha":651,"x_min":77,"x_max":576,"o":"m 286 -8 q 162 21 218 -8 q 106 138 106 51 q 113 173 106 151 q 130 212 119 195 q 151 229 140 229 q 158 222 153 229 q 168 205 163 215 q 205 148 189 165 q 241 127 222 131 q 299 123 260 123 q 385 139 339 123 q 461 180 430 156 q 492 227 492 205 q 472 263 492 248 q 422 290 452 279 q 338 315 391 300 q 205 359 257 338 q 115 420 153 380 q 77 520 77 459 q 121 682 77 612 q 233 788 165 751 q 373 825 302 825 q 453 804 418 825 q 508 747 488 783 q 527 671 527 712 q 518 585 527 620 q 481 551 509 551 q 457 567 462 551 q 452 614 452 583 q 427 677 452 659 q 355 695 402 695 q 274 671 321 695 q 195 610 228 648 q 161 533 161 572 q 182 490 161 507 q 234 462 203 473 q 321 437 265 452 q 453 398 402 417 q 540 338 503 378 q 576 233 576 298 q 524 98 576 153 q 403 18 472 44 q 286 -8 334 -8 z "},"Ś":{"ha":651,"x_min":77,"x_max":576,"o":"m 286 -8 q 162 21 218 -8 q 106 138 106 51 q 113 173 106 151 q 130 212 119 195 q 151 229 140 229 q 158 222 153 229 q 168 205 163 215 q 205 148 189 165 q 241 127 222 131 q 299 123 260 123 q 385 139 339 123 q 461 180 430 156 q 492 227 492 205 q 472 263 492 248 q 422 290 452 279 q 338 315 391 300 q 205 359 257 338 q 115 420 153 380 q 77 520 77 459 q 121 682 77 612 q 233 788 165 751 q 373 825 302 825 q 453 804 418 825 q 508 747 488 783 q 527 671 527 712 q 518 585 527 620 q 481 551 509 551 q 457 567 462 551 q 452 614 452 583 q 427 677 452 659 q 355 695 402 695 q 274 671 321 695 q 195 610 228 648 q 161 533 161 572 q 182 490 161 507 q 234 462 203 473 q 321 437 265 452 q 453 398 402 417 q 540 338 503 378 q 576 233 576 298 q 524 98 576 153 q 403 18 472 44 q 286 -8 334 -8 m 264 984 q 277 1023 264 1006 q 311 1053 290 1039 q 374 1096 342 1073 q 450 1146 422 1129 q 498 1162 479 1162 q 533 1149 520 1162 q 547 1105 547 1135 q 496 1028 547 1066 q 381 965 445 990 q 292 939 317 939 q 284 942 292 938 q 271 955 277 945 q 264 984 264 965 z "},"Š":{"ha":651,"x_min":77,"x_max":595,"o":"m 286 -8 q 162 21 218 -8 q 106 138 106 51 q 113 173 106 151 q 130 212 119 195 q 151 229 140 229 q 158 222 153 229 q 168 205 163 215 q 205 148 189 165 q 241 127 222 131 q 299 123 260 123 q 385 139 339 123 q 461 180 430 156 q 492 227 492 205 q 472 263 492 248 q 422 290 452 279 q 338 315 391 300 q 205 359 257 338 q 115 420 153 380 q 77 520 77 459 q 121 682 77 612 q 233 788 165 751 q 373 825 302 825 q 453 804 418 825 q 508 747 488 783 q 527 671 527 712 q 518 585 527 620 q 481 551 509 551 q 457 567 462 551 q 452 614 452 583 q 427 677 452 659 q 355 695 402 695 q 274 671 321 695 q 195 610 228 648 q 161 533 161 572 q 182 490 161 507 q 234 462 203 473 q 321 437 265 452 q 453 398 402 417 q 540 338 503 378 q 576 233 576 298 q 524 98 576 153 q 403 18 472 44 q 286 -8 334 -8 m 341 1056 q 408 1120 370 1091 q 484 1165 446 1149 q 552 1181 522 1181 q 582 1163 568 1181 q 595 1122 595 1145 q 582 1074 595 1096 q 552 1051 568 1053 q 500 1033 528 1048 q 431 994 472 1019 q 373 960 393 970 q 340 950 353 950 q 319 955 328 951 q 300 965 309 958 q 180 1038 250 1015 q 150 1051 160 1045 q 132 1067 139 1057 q 125 1093 125 1077 q 132 1135 125 1116 q 149 1164 139 1154 q 170 1175 159 1175 q 254 1138 203 1175 q 341 1056 304 1101 z "},"Ş":{"ha":651,"x_min":77,"x_max":576,"o":"m 388 12 q 387 8 387 11 l 382 -18 q 392 -45 385 -32 q 415 -78 400 -58 q 450 -134 438 -109 q 463 -191 463 -159 q 429 -304 463 -273 q 334 -336 395 -336 q 279 -326 312 -336 q 220 -292 246 -315 q 195 -232 195 -269 q 200 -199 195 -214 q 213 -176 205 -184 q 229 -168 221 -168 q 244 -176 235 -171 q 256 -184 252 -181 q 298 -206 280 -199 q 340 -214 317 -214 q 368 -210 359 -214 q 377 -196 377 -207 q 371 -183 377 -192 q 363 -172 365 -175 q 322 -104 338 -137 q 307 -28 307 -72 q 307 -7 307 -15 q 286 -8 291 -8 q 162 21 218 -8 q 106 138 106 51 q 113 173 106 151 q 130 212 119 195 q 151 229 140 229 q 158 222 153 229 q 168 205 163 215 q 205 148 189 165 q 241 127 222 131 q 299 123 260 123 q 385 139 339 123 q 461 180 430 156 q 492 227 492 205 q 472 263 492 248 q 422 290 452 279 q 338 315 391 300 q 205 359 257 338 q 115 420 153 380 q 77 520 77 459 q 121 682 77 612 q 233 788 165 751 q 373 825 302 825 q 453 804 418 825 q 508 747 488 783 q 527 671 527 712 q 518 585 527 620 q 481 551 509 551 q 457 567 462 551 q 452 614 452 583 q 427 677 452 659 q 355 695 402 695 q 274 671 321 695 q 195 610 228 648 q 161 533 161 572 q 182 490 161 507 q 234 462 203 473 q 321 437 265 452 q 453 398 402 417 q 540 338 503 378 q 576 233 576 298 q 522 95 576 151 q 388 12 467 40 z "},"Ŝ":{"ha":651,"x_min":77,"x_max":576,"o":"m 286 -8 q 162 21 218 -8 q 106 138 106 51 q 113 173 106 151 q 130 212 119 195 q 151 229 140 229 q 158 222 153 229 q 168 205 163 215 q 205 148 189 165 q 241 127 222 131 q 299 123 260 123 q 385 139 339 123 q 461 180 430 156 q 492 227 492 205 q 472 263 492 248 q 422 290 452 279 q 338 315 391 300 q 205 359 257 338 q 115 420 153 380 q 77 520 77 459 q 121 682 77 612 q 233 788 165 751 q 373 825 302 825 q 453 804 418 825 q 508 747 488 783 q 527 671 527 712 q 518 585 527 620 q 481 551 509 551 q 457 567 462 551 q 452 614 452 583 q 427 677 452 659 q 355 695 402 695 q 274 671 321 695 q 195 610 228 648 q 161 533 161 572 q 182 490 161 507 q 234 462 203 473 q 321 437 265 452 q 453 398 402 417 q 540 338 503 378 q 576 233 576 298 q 524 98 576 153 q 403 18 472 44 q 286 -8 334 -8 m 347 1090 q 281 1027 319 1055 q 205 982 243 998 q 137 965 167 965 q 107 983 121 965 q 94 1025 94 1001 q 107 1073 94 1052 q 137 1096 121 1094 q 188 1114 161 1099 q 257 1154 216 1128 q 315 1186 294 1176 q 349 1197 336 1197 q 389 1181 372 1196 q 511 1109 440 1130 q 540 1095 530 1101 q 557 1080 550 1090 q 564 1055 564 1070 q 557 1012 564 1031 q 539 982 550 993 q 519 972 529 972 q 435 1009 486 972 q 347 1090 384 1046 z "},"Ș":{"ha":651,"x_min":77,"x_max":576,"o":"m 286 -8 q 162 21 218 -8 q 106 138 106 51 q 113 173 106 151 q 130 212 119 195 q 151 229 140 229 q 158 222 153 229 q 168 205 163 215 q 205 148 189 165 q 241 127 222 131 q 299 123 260 123 q 385 139 339 123 q 461 180 430 156 q 492 227 492 205 q 472 263 492 248 q 422 290 452 279 q 338 315 391 300 q 205 359 257 338 q 115 420 153 380 q 77 520 77 459 q 121 682 77 612 q 233 788 165 751 q 373 825 302 825 q 453 804 418 825 q 508 747 488 783 q 527 671 527 712 q 518 585 527 620 q 481 551 509 551 q 457 567 462 551 q 452 614 452 583 q 427 677 452 659 q 355 695 402 695 q 274 671 321 695 q 195 610 228 648 q 161 533 161 572 q 182 490 161 507 q 234 462 203 473 q 321 437 265 452 q 453 398 402 417 q 540 338 503 378 q 576 233 576 298 q 524 98 576 153 q 403 18 472 44 q 286 -8 334 -8 m 248 -199 q 265 -161 254 -187 q 286 -118 277 -134 q 310 -92 295 -102 q 348 -81 325 -81 q 382 -92 366 -81 q 409 -120 399 -102 q 418 -155 418 -137 q 389 -227 418 -181 q 322 -307 360 -272 q 261 -342 284 -342 q 224 -328 239 -342 q 209 -291 209 -314 q 215 -258 208 -273 q 233 -224 221 -243 q 248 -199 243 -210 z "},"Ṡ":{"ha":651,"x_min":77,"x_max":576,"o":"m 286 -8 q 162 21 218 -8 q 106 138 106 51 q 113 173 106 151 q 130 212 119 195 q 151 229 140 229 q 158 222 153 229 q 168 205 163 215 q 205 148 189 165 q 241 127 222 131 q 299 123 260 123 q 385 139 339 123 q 461 180 430 156 q 492 227 492 205 q 472 263 492 248 q 422 290 452 279 q 338 315 391 300 q 205 359 257 338 q 115 420 153 380 q 77 520 77 459 q 121 682 77 612 q 233 788 165 751 q 373 825 302 825 q 453 804 418 825 q 508 747 488 783 q 527 671 527 712 q 518 585 527 620 q 481 551 509 551 q 457 567 462 551 q 452 614 452 583 q 427 677 452 659 q 355 695 402 695 q 274 671 321 695 q 195 610 228 648 q 161 533 161 572 q 182 490 161 507 q 234 462 203 473 q 321 437 265 452 q 453 398 402 417 q 540 338 503 378 q 576 233 576 298 q 524 98 576 153 q 403 18 472 44 q 286 -8 334 -8 m 347 1164 q 395 1146 374 1164 q 416 1086 416 1129 q 400 1023 416 1044 q 353 1001 384 1001 q 302 1018 326 1001 q 279 1078 279 1036 q 289 1118 279 1098 q 316 1151 300 1138 q 347 1164 332 1164 z "},"Ṣ":{"ha":651,"x_min":77,"x_max":576,"o":"m 286 -8 q 162 21 218 -8 q 106 138 106 51 q 113 173 106 151 q 130 212 119 195 q 151 229 140 229 q 158 222 153 229 q 168 205 163 215 q 205 148 189 165 q 241 127 222 131 q 299 123 260 123 q 385 139 339 123 q 461 180 430 156 q 492 227 492 205 q 472 263 492 248 q 422 290 452 279 q 338 315 391 300 q 205 359 257 338 q 115 420 153 380 q 77 520 77 459 q 121 682 77 612 q 233 788 165 751 q 373 825 302 825 q 453 804 418 825 q 508 747 488 783 q 527 671 527 712 q 518 585 527 620 q 481 551 509 551 q 457 567 462 551 q 452 614 452 583 q 427 677 452 659 q 355 695 402 695 q 274 671 321 695 q 195 610 228 648 q 161 533 161 572 q 182 490 161 507 q 234 462 203 473 q 321 437 265 452 q 453 398 402 417 q 540 338 503 378 q 576 233 576 298 q 524 98 576 153 q 403 18 472 44 q 286 -8 334 -8 m 395 -230 q 332 -315 395 -315 q 279 -299 303 -315 q 256 -241 256 -283 q 267 -199 256 -220 q 294 -165 277 -178 q 326 -151 311 -151 q 374 -169 354 -151 q 395 -230 395 -187 z "},"ẞ":{"ha":692,"x_min":81,"x_max":660,"o":"m 277 395 q 316 472 277 414 q 393 576 354 530 q 449 635 433 614 q 470 668 465 656 q 478 684 476 680 q 451 711 471 699 q 381 723 431 723 q 242 683 288 723 q 186 590 197 642 q 172 462 174 537 q 172 334 172 414 q 174 253 172 296 q 176 196 176 210 q 181 62 181 117 q 178 11 181 27 q 168 -13 176 -6 q 144 -20 160 -20 q 103 -11 117 -20 q 85 14 90 -3 q 81 62 81 31 l 81 460 q 86 566 81 516 q 104 656 91 616 q 173 762 124 718 q 285 829 221 806 q 415 852 349 852 q 508 836 463 852 q 583 795 554 820 q 611 745 611 770 q 565 643 611 709 q 435 481 519 577 l 399 444 l 524 406 q 626 346 591 386 q 660 249 660 306 q 624 102 660 163 q 530 11 587 41 q 410 -20 473 -20 q 297 20 334 -20 q 260 121 260 59 q 274 185 260 155 q 309 215 288 215 q 341 199 326 215 q 356 144 356 183 q 379 126 356 133 q 428 120 401 120 q 490 133 457 120 q 546 172 523 146 q 569 235 569 197 q 550 269 569 255 q 504 291 532 283 q 430 309 476 299 q 349 329 379 319 q 298 354 319 338 q 277 395 277 370 z "},"Ə":{"ha":745,"x_min":70,"x_max":663,"o":"m 119 376 q 85 398 100 376 q 70 442 70 419 q 87 594 70 508 q 168 756 105 680 q 351 835 230 832 q 585 735 507 838 q 663 440 663 633 q 620 255 663 363 q 500 70 577 148 q 326 -8 424 -8 q 217 14 268 -8 q 137 77 167 36 q 106 172 106 117 q 118 218 106 202 q 146 234 130 234 q 159 227 151 234 q 182 204 168 219 l 191 195 q 260 139 227 157 q 334 121 294 121 q 449 175 389 121 q 548 308 508 229 q 587 458 587 388 q 554 597 587 541 q 463 681 520 654 q 336 708 406 708 q 214 665 250 708 q 176 557 178 621 l 174 515 q 517 519 210 519 q 564 501 543 519 q 586 452 586 484 q 521 383 586 383 l 439 382 q 309 380 385 381 q 227 380 233 379 q 175 378 210 380 q 119 376 147 376 z "},"T":{"ha":591,"x_min":39,"x_max":569,"o":"m 376 55 q 372 16 376 28 q 359 -2 369 3 q 328 -8 349 -8 q 288 3 301 -8 q 270 36 275 15 q 266 91 266 56 l 267 111 q 267 131 267 118 l 249 677 q 209 671 233 675 q 102 661 136 661 q 54 674 70 661 q 39 715 39 687 q 62 788 39 767 q 120 808 85 808 l 406 811 l 513 818 q 554 798 538 818 q 569 747 569 777 q 561 713 569 733 q 539 677 552 692 q 512 663 526 663 q 481 677 502 663 q 463 688 471 684 q 448 692 455 692 q 345 687 378 692 l 364 134 q 376 55 374 79 z "},"Ŧ":{"ha":593,"x_min":42,"x_max":572,"o":"m 517 818 q 557 798 542 818 q 572 747 572 777 q 564 713 572 733 q 542 677 555 692 q 515 663 529 663 q 484 677 505 663 q 466 688 474 684 q 451 692 458 692 q 348 687 381 692 l 353 532 q 440 536 413 536 q 470 522 458 536 q 481 469 481 507 q 475 424 481 438 q 459 407 469 410 q 431 404 449 404 l 358 398 l 368 134 q 380 55 377 79 q 376 16 379 28 q 362 -2 372 3 q 331 -8 353 -8 q 291 3 304 -8 q 274 36 278 15 q 269 91 269 56 l 270 111 q 271 131 271 118 l 262 391 l 157 383 q 120 407 134 383 q 106 457 106 431 q 114 488 106 472 q 132 514 121 503 q 151 524 143 524 q 176 523 159 524 q 210 522 197 522 q 258 524 231 522 l 252 677 q 212 671 237 675 q 105 661 140 661 q 58 674 73 661 q 42 715 42 687 q 65 788 42 767 q 123 808 88 808 l 409 811 l 517 818 z "},"Ť":{"ha":591,"x_min":39,"x_max":569,"o":"m 376 55 q 372 16 376 28 q 359 -2 369 3 q 328 -8 349 -8 q 288 3 301 -8 q 270 36 275 15 q 266 91 266 56 l 267 111 q 267 131 267 118 l 249 677 q 209 671 233 675 q 102 661 136 661 q 54 674 70 661 q 39 715 39 687 q 62 788 39 767 q 120 808 85 808 l 406 811 l 513 818 q 554 798 538 818 q 569 747 569 777 q 561 713 569 733 q 539 677 552 692 q 512 663 526 663 q 481 677 502 663 q 463 688 471 684 q 448 692 455 692 q 345 687 378 692 l 364 134 q 376 55 374 79 m 304 1044 q 370 1108 332 1079 q 447 1153 408 1137 q 515 1169 485 1169 q 544 1151 530 1169 q 558 1110 558 1133 q 545 1062 558 1084 q 515 1039 531 1040 q 463 1021 491 1036 q 394 981 435 1006 q 336 948 355 958 q 302 938 316 938 q 281 942 291 939 q 262 953 272 945 q 142 1025 212 1003 q 112 1039 123 1033 q 95 1055 102 1044 q 87 1080 87 1065 q 95 1123 87 1104 q 112 1152 102 1141 q 132 1162 122 1162 q 216 1125 165 1162 q 304 1044 267 1088 z "},"Ţ":{"ha":591,"x_min":39,"x_max":569,"o":"m 513 818 q 554 798 538 818 q 569 747 569 777 q 561 713 569 733 q 539 677 552 692 q 512 663 526 663 q 481 677 502 663 q 463 688 471 684 q 448 692 455 692 q 345 687 378 692 l 364 134 q 376 55 374 79 q 370 11 375 24 q 349 -6 366 -2 l 345 -30 q 355 -57 347 -44 q 378 -90 363 -70 q 413 -146 401 -121 q 425 -203 425 -171 q 392 -317 425 -286 q 296 -348 358 -348 q 242 -338 275 -348 q 183 -304 209 -328 q 157 -244 157 -281 q 163 -211 157 -226 q 176 -189 168 -197 q 191 -180 184 -180 q 207 -188 198 -183 q 219 -196 215 -193 q 261 -218 243 -211 q 303 -226 279 -226 q 331 -222 321 -226 q 340 -208 340 -219 q 334 -196 340 -204 q 326 -184 328 -187 q 285 -117 300 -149 q 269 -40 269 -84 q 277 17 269 -7 q 268 47 271 29 q 266 91 266 64 l 267 111 q 267 131 267 118 l 249 677 q 209 671 233 675 q 102 661 136 661 q 54 674 70 661 q 39 715 39 687 q 62 788 39 767 q 120 808 85 808 l 406 811 l 513 818 z "},"Ț":{"ha":591,"x_min":39,"x_max":569,"o":"m 376 55 q 372 16 376 28 q 359 -2 369 3 q 328 -8 349 -8 q 288 3 301 -8 q 270 36 275 15 q 266 91 266 56 l 267 111 q 267 131 267 118 l 249 677 q 209 671 233 675 q 102 661 136 661 q 54 674 70 661 q 39 715 39 687 q 62 788 39 767 q 120 808 85 808 l 406 811 l 513 818 q 554 798 538 818 q 569 747 569 777 q 561 713 569 733 q 539 677 552 692 q 512 663 526 663 q 481 677 502 663 q 463 688 471 684 q 448 692 455 692 q 345 687 378 692 l 364 134 q 376 55 374 79 m 211 -211 q 228 -174 217 -199 q 249 -131 239 -146 q 273 -104 258 -115 q 311 -93 288 -93 q 345 -104 329 -93 q 371 -132 361 -115 q 381 -167 381 -149 q 352 -239 381 -193 q 285 -319 323 -284 q 224 -355 247 -355 q 187 -340 202 -355 q 172 -303 172 -326 q 177 -270 171 -285 q 196 -237 184 -256 q 211 -211 205 -222 z "},"Ṫ":{"ha":591,"x_min":39,"x_max":569,"o":"m 376 55 q 372 16 376 28 q 359 -2 369 3 q 328 -8 349 -8 q 288 3 301 -8 q 270 36 275 15 q 266 91 266 56 l 267 111 q 267 131 267 118 l 249 677 q 209 671 233 675 q 102 661 136 661 q 54 674 70 661 q 39 715 39 687 q 62 788 39 767 q 120 808 85 808 l 406 811 l 513 818 q 554 798 538 818 q 569 747 569 777 q 561 713 569 733 q 539 677 552 692 q 512 663 526 663 q 481 677 502 663 q 463 688 471 684 q 448 692 455 692 q 345 687 378 692 l 364 134 q 376 55 374 79 m 309 1152 q 358 1134 337 1152 q 379 1074 379 1117 q 363 1010 379 1032 q 315 989 347 989 q 265 1006 288 989 q 241 1066 241 1023 q 252 1106 241 1086 q 278 1139 262 1126 q 309 1152 294 1152 z "},"Ṭ":{"ha":591,"x_min":39,"x_max":569,"o":"m 376 55 q 372 16 376 28 q 359 -2 369 3 q 328 -8 349 -8 q 288 3 301 -8 q 270 36 275 15 q 266 91 266 56 l 267 111 q 267 131 267 118 l 249 677 q 209 671 233 675 q 102 661 136 661 q 54 674 70 661 q 39 715 39 687 q 62 788 39 767 q 120 808 85 808 l 406 811 l 513 818 q 554 798 538 818 q 569 747 569 777 q 561 713 569 733 q 539 677 552 692 q 512 663 526 663 q 481 677 502 663 q 463 688 471 684 q 448 692 455 692 q 345 687 378 692 l 364 134 q 376 55 374 79 m 372 -230 q 309 -315 372 -315 q 257 -299 281 -315 q 233 -241 233 -283 q 244 -199 233 -220 q 272 -165 255 -178 q 304 -151 288 -151 q 352 -169 332 -151 q 372 -230 372 -187 z "},"Ṯ":{"ha":591,"x_min":39,"x_max":569,"o":"m 376 55 q 372 16 376 28 q 359 -2 369 3 q 328 -8 349 -8 q 288 3 301 -8 q 270 36 275 15 q 266 91 266 56 l 267 111 q 267 131 267 118 l 249 677 q 209 671 233 675 q 102 661 136 661 q 54 674 70 661 q 39 715 39 687 q 62 788 39 767 q 120 808 85 808 l 406 811 l 513 818 q 554 798 538 818 q 569 747 569 777 q 561 713 569 733 q 539 677 552 692 q 512 663 526 663 q 481 677 502 663 q 463 688 471 684 q 448 692 455 692 q 345 687 378 692 l 364 134 q 376 55 374 79 m 498 -162 q 529 -179 519 -162 q 538 -235 538 -196 q 532 -280 538 -269 q 509 -291 525 -291 l 491 -290 l 156 -290 q 120 -275 132 -290 q 107 -239 107 -260 q 114 -203 107 -222 q 131 -171 121 -184 q 151 -157 141 -157 q 243 -158 203 -157 q 313 -159 284 -159 q 498 -162 431 -162 z "},"U":{"ha":712,"x_min":98,"x_max":636,"o":"m 613 45 q 597 6 613 21 q 555 -8 581 -8 q 519 14 531 -8 q 507 90 508 37 q 447 31 482 55 q 376 -5 412 7 q 311 -18 340 -18 q 145 106 192 -18 q 98 406 98 230 l 98 427 q 114 699 98 574 q 182 825 131 825 q 218 765 218 825 q 212 666 218 726 q 205 595 206 606 q 193 431 193 478 q 219 202 193 293 q 326 111 246 111 q 450 152 402 111 q 502 265 498 193 l 523 606 q 535 741 526 691 q 560 813 545 791 q 600 835 576 835 q 626 812 615 835 q 636 753 636 789 q 635 747 636 749 q 635 742 635 744 l 632 713 q 609 526 618 650 q 600 280 600 401 q 603 195 600 239 q 607 144 606 151 q 613 45 613 79 z "},"Ú":{"ha":712,"x_min":98,"x_max":636,"o":"m 613 45 q 597 6 613 21 q 555 -8 581 -8 q 519 14 531 -8 q 507 90 508 37 q 447 31 482 55 q 376 -5 412 7 q 311 -18 340 -18 q 145 106 192 -18 q 98 406 98 230 l 98 427 q 114 699 98 574 q 182 825 131 825 q 218 765 218 825 q 212 666 218 726 q 205 595 206 606 q 193 431 193 478 q 219 202 193 293 q 326 111 246 111 q 450 152 402 111 q 502 265 498 193 l 523 606 q 535 741 526 691 q 560 813 545 791 q 600 835 576 835 q 626 812 615 835 q 636 753 636 789 q 635 747 636 749 q 635 742 635 744 l 632 713 q 609 526 618 650 q 600 280 600 401 q 603 195 600 239 q 607 144 606 151 q 613 45 613 79 m 289 984 q 301 1023 289 1006 q 335 1053 314 1039 q 399 1096 367 1073 q 475 1146 446 1129 q 522 1162 503 1162 q 558 1149 545 1162 q 571 1105 571 1135 q 520 1028 571 1066 q 405 965 469 990 q 316 939 341 939 q 309 942 316 938 q 295 955 301 945 q 289 984 289 965 z "},"Ŭ":{"ha":712,"x_min":98,"x_max":636,"o":"m 613 45 q 597 6 613 21 q 555 -8 581 -8 q 519 14 531 -8 q 507 90 508 37 q 447 31 482 55 q 376 -5 412 7 q 311 -18 340 -18 q 145 106 192 -18 q 98 406 98 230 l 98 427 q 114 699 98 574 q 182 825 131 825 q 218 765 218 825 q 212 666 218 726 q 205 595 206 606 q 193 431 193 478 q 219 202 193 293 q 326 111 246 111 q 450 152 402 111 q 502 265 498 193 l 523 606 q 535 741 526 691 q 560 813 545 791 q 600 835 576 835 q 626 812 615 835 q 636 753 636 789 q 635 747 636 749 q 635 742 635 744 l 632 713 q 609 526 618 650 q 600 280 600 401 q 603 195 600 239 q 607 144 606 151 q 613 45 613 79 m 170 1156 q 185 1214 170 1197 q 219 1232 201 1232 q 250 1219 242 1232 q 262 1179 258 1206 q 273 1135 265 1152 q 303 1105 280 1118 q 372 1093 327 1093 q 452 1111 418 1093 q 487 1172 487 1130 q 503 1219 487 1204 q 537 1233 519 1233 q 568 1215 555 1233 q 582 1164 582 1198 q 556 1068 582 1113 q 484 997 530 1024 q 378 970 437 970 q 228 1013 287 970 q 170 1156 170 1056 z "},"Ǔ":{"ha":712,"x_min":98,"x_max":636,"o":"m 613 45 q 597 6 613 21 q 555 -8 581 -8 q 519 14 531 -8 q 507 90 508 37 q 447 31 482 55 q 376 -5 412 7 q 311 -18 340 -18 q 145 106 192 -18 q 98 406 98 230 l 98 427 q 114 699 98 574 q 182 825 131 825 q 218 765 218 825 q 212 666 218 726 q 205 595 206 606 q 193 431 193 478 q 219 202 193 293 q 326 111 246 111 q 450 152 402 111 q 502 265 498 193 l 523 606 q 535 741 526 691 q 560 813 545 791 q 600 835 576 835 q 626 812 615 835 q 636 753 636 789 q 635 747 636 749 q 635 742 635 744 l 632 713 q 609 526 618 650 q 600 280 600 401 q 603 195 600 239 q 607 144 606 151 q 613 45 613 79 m 366 1056 q 432 1120 394 1091 q 508 1165 470 1149 q 576 1181 547 1181 q 606 1163 592 1181 q 620 1122 620 1145 q 606 1074 620 1096 q 576 1051 593 1053 q 525 1033 553 1048 q 456 994 496 1019 q 397 960 417 970 q 364 950 378 950 q 343 955 353 951 q 324 965 334 958 q 204 1038 274 1015 q 174 1051 184 1045 q 156 1067 163 1057 q 149 1093 149 1077 q 156 1135 149 1116 q 174 1164 163 1154 q 194 1175 184 1175 q 278 1138 227 1175 q 366 1056 329 1101 z "},"Û":{"ha":712,"x_min":98,"x_max":636,"o":"m 613 45 q 597 6 613 21 q 555 -8 581 -8 q 519 14 531 -8 q 507 90 508 37 q 447 31 482 55 q 376 -5 412 7 q 311 -18 340 -18 q 145 106 192 -18 q 98 406 98 230 l 98 427 q 114 699 98 574 q 182 825 131 825 q 218 765 218 825 q 212 666 218 726 q 205 595 206 606 q 193 431 193 478 q 219 202 193 293 q 326 111 246 111 q 450 152 402 111 q 502 265 498 193 l 523 606 q 535 741 526 691 q 560 813 545 791 q 600 835 576 835 q 626 812 615 835 q 636 753 636 789 q 635 747 636 749 q 635 742 635 744 l 632 713 q 609 526 618 650 q 600 280 600 401 q 603 195 600 239 q 607 144 606 151 q 613 45 613 79 m 372 1090 q 306 1027 343 1055 q 230 982 268 998 q 161 965 191 965 q 132 983 146 965 q 118 1025 118 1001 q 132 1073 118 1052 q 161 1096 145 1094 q 213 1114 185 1099 q 281 1154 240 1128 q 339 1186 319 1176 q 374 1197 360 1197 q 414 1181 396 1196 q 536 1109 465 1130 q 565 1095 555 1101 q 582 1080 574 1090 q 589 1055 589 1070 q 582 1012 589 1031 q 564 982 574 993 q 543 972 553 972 q 459 1009 510 972 q 372 1090 408 1046 z "},"Ü":{"ha":712,"x_min":98,"x_max":636,"o":"m 613 45 q 597 6 613 21 q 555 -8 581 -8 q 519 14 531 -8 q 507 90 508 37 q 447 31 482 55 q 376 -5 412 7 q 311 -18 340 -18 q 145 106 192 -18 q 98 406 98 230 l 98 427 q 114 699 98 574 q 182 825 131 825 q 218 765 218 825 q 212 666 218 726 q 205 595 206 606 q 193 431 193 478 q 219 202 193 293 q 326 111 246 111 q 450 152 402 111 q 502 265 498 193 l 523 606 q 535 741 526 691 q 560 813 545 791 q 600 835 576 835 q 626 812 615 835 q 636 753 636 789 q 635 747 636 749 q 635 742 635 744 l 632 713 q 609 526 618 650 q 600 280 600 401 q 603 195 600 239 q 607 144 606 151 q 613 45 613 79 m 273 1135 q 304 1112 291 1135 q 317 1048 317 1090 q 308 987 317 1013 q 284 950 298 962 q 259 938 271 938 q 210 963 225 938 q 194 1038 194 989 q 208 1084 194 1062 q 241 1121 222 1107 q 273 1135 260 1135 m 562 1031 q 551 989 562 1010 q 526 952 541 967 q 497 938 511 938 q 453 962 470 938 q 435 1025 435 987 q 445 1076 435 1050 q 471 1117 454 1101 q 507 1133 488 1133 q 549 1101 536 1133 q 562 1031 562 1068 z "},"Ǘ":{"ha":712,"x_min":98,"x_max":636,"o":"m 613 45 q 597 6 613 21 q 555 -8 581 -8 q 519 14 531 -8 q 507 90 508 37 q 447 31 482 55 q 376 -5 412 7 q 311 -18 340 -18 q 145 106 192 -18 q 98 406 98 230 l 98 427 q 114 699 98 574 q 182 825 131 825 q 218 765 218 825 q 212 666 218 726 q 205 595 206 606 q 193 431 193 478 q 219 202 193 293 q 326 111 246 111 q 450 152 402 111 q 502 265 498 193 l 523 606 q 535 741 526 691 q 560 813 545 791 q 600 835 576 835 q 626 812 615 835 q 636 753 636 789 q 635 747 636 749 q 635 742 635 744 l 632 713 q 609 526 618 650 q 600 280 600 401 q 603 195 600 239 q 607 144 606 151 q 613 45 613 79 m 315 1159 q 327 1198 315 1181 q 361 1229 340 1214 q 431 1283 387 1244 q 483 1324 463 1310 q 520 1337 503 1337 q 556 1324 543 1337 q 570 1281 570 1310 q 525 1203 570 1242 q 423 1139 480 1165 q 342 1114 366 1114 q 334 1116 342 1112 q 321 1130 327 1120 q 315 1159 315 1140 m 247 876 q 192 897 210 876 q 174 967 174 918 q 186 1011 174 990 q 218 1044 199 1031 q 252 1056 237 1056 q 268 1044 258 1056 q 285 1012 277 1033 q 292 964 292 991 q 279 899 292 923 q 247 876 266 876 m 543 959 q 533 920 543 939 q 509 888 524 900 q 480 876 494 876 q 438 894 451 876 q 425 952 425 913 q 438 1022 425 995 q 483 1048 452 1048 q 511 1034 497 1048 q 534 999 525 1020 q 543 959 543 978 z "}}}
